<svg width="375" height="812" viewBox="0 0 375 812" fill="none" xmlns="http://www.w3.org/2000/svg">
<g clip-path="url(#clip0_4094_1815)">
<rect width="375" height="812" fill="#FFD15C"/>
<g opacity="0.38">
<path d="M38.5417 258.674C35.5707 258.528 33.7209 258.086 32.3992 256.767C30.4167 254.782 30.4167 251.592 30.4167 245.208V234.375C30.4167 227.991 30.4167 224.798 32.3992 222.816C34.3817 220.833 37.5749 220.833 43.9584 220.833H52.8959C55.9211 220.833 57.4324 220.833 58.6565 221.231C59.8759 221.628 60.9842 222.307 61.8908 223.213C62.7974 224.12 63.4766 225.228 63.8728 226.448C64.2709 227.672 64.2709 229.183 64.2709 232.208C64.2709 234.226 64.2709 235.233 64.5363 236.049C64.8005 236.862 65.2533 237.6 65.8577 238.205C66.4621 238.809 67.2009 239.262 68.0138 239.526C68.829 239.792 69.8365 239.792 71.8542 239.792H84.5834V245.208C84.5834 251.592 84.5834 254.782 82.6009 256.767C81.282 258.086 79.4295 258.528 76.4584 258.674M49.3751 258.75H65.6251H49.3751Z" fill="#FFE4A1"/>
<path d="M38.5417 258.674C35.5707 258.528 33.7209 258.086 32.3992 256.767C30.4167 254.782 30.4167 251.592 30.4167 245.208V234.375C30.4167 227.991 30.4167 224.798 32.3992 222.816C34.3817 220.833 37.5749 220.833 43.9584 220.833H52.8959C55.9211 220.833 57.4324 220.833 58.6565 221.231C59.8759 221.628 60.9842 222.307 61.8908 223.213C62.7974 224.12 63.4766 225.228 63.8728 226.448C64.2709 227.672 64.2709 229.183 64.2709 232.208C64.2709 234.226 64.2709 235.233 64.5363 236.049C64.8005 236.862 65.2533 237.6 65.8577 238.205C66.4621 238.809 67.2009 239.262 68.0138 239.526C68.829 239.792 69.8365 239.792 71.8542 239.792H84.5834V245.208C84.5834 251.592 84.5834 254.782 82.6009 256.767C81.282 258.086 79.4295 258.528 76.4584 258.674M49.3751 258.75H65.6251" stroke="#FFEDC0" stroke-width="2.6" stroke-linecap="round" stroke-linejoin="round"/>
<path d="M52.0835 234.375V239.792" stroke="#FFEDC0" stroke-width="2.6" stroke-linecap="round" stroke-linejoin="round"/>
<path d="M71.0417 264.167C74.0332 264.167 76.4583 261.741 76.4583 258.75C76.4583 255.758 74.0332 253.333 71.0417 253.333C68.0501 253.333 65.625 255.758 65.625 258.75C65.625 261.741 68.0501 264.167 71.0417 264.167Z" fill="#FFE4A1" stroke="#FFEDC0" stroke-width="2.6" stroke-linecap="round" stroke-linejoin="round"/>
<path d="M43.9584 264.167C46.95 264.167 49.3751 261.741 49.3751 258.75C49.3751 255.758 46.95 253.333 43.9584 253.333C40.9669 253.333 38.5417 255.758 38.5417 258.75C38.5417 261.741 40.9669 264.167 43.9584 264.167Z" fill="#FFE4A1" stroke="#FFEDC0" stroke-width="2.6" stroke-linecap="round" stroke-linejoin="round"/>
<path d="M64.2708 226.25H69.2027C73.146 226.25 75.115 226.25 76.7183 227.209C78.3244 228.165 79.2588 229.901 81.1275 233.373L84.5833 239.792M41.25 234.375V239.792" stroke="#FFEDC0" stroke-width="2.6" stroke-linecap="round" stroke-linejoin="round"/>
<g clip-path="url(#clip1_4094_1815)">
<path d="M351.934 327.505C351.026 327.042 350.015 326.802 348.988 326.802C340.971 327.368 340.971 339.033 348.988 339.598H367.985C370.297 339.615 372.524 338.759 374.22 337.2C379.856 332.284 376.841 322.4 369.424 321.458C366.751 305.407 343.575 311.505 349.073 326.802" fill="#FFE4A1"/>
<path d="M366.631 322.212C367.522 321.766 368.499 321.526 369.492 321.509L366.631 322.212Z" fill="#FFE4A1"/>
<path d="M351.934 327.505C351.026 327.042 350.015 326.802 348.988 326.802C340.971 327.368 340.971 339.033 348.988 339.598H367.985C370.297 339.615 372.524 338.759 374.22 337.2C379.856 332.284 376.841 322.4 369.424 321.458C366.751 305.407 343.575 311.505 349.073 326.802M366.631 322.212C367.522 321.766 368.499 321.526 369.492 321.509" stroke="#FFEDC0" stroke-width="2" stroke-miterlimit="10" stroke-linecap="round" stroke-linejoin="round"/>
<path d="M377.738 348.615L385.389 341.115C385.858 340.659 386.232 340.115 386.487 339.513C386.742 338.911 386.874 338.264 386.875 337.61C386.876 336.956 386.746 336.309 386.493 335.706C386.24 335.103 385.868 334.557 385.401 334.101C384.447 333.166 383.165 332.642 381.83 332.639C380.495 332.637 379.211 333.156 378.254 334.087L377.742 334.589L377.233 334.087C376.279 333.153 374.998 332.629 373.664 332.626C372.329 332.624 371.046 333.143 370.089 334.073C369.619 334.528 369.246 335.073 368.991 335.675C368.735 336.277 368.603 336.924 368.602 337.577C368.6 338.231 368.73 338.879 368.983 339.481C369.236 340.084 369.607 340.63 370.075 341.087L377.738 348.615Z" fill="#FFE4A1" stroke="#FFEDC0" stroke-width="2" stroke-linecap="round" stroke-linejoin="round"/>
</g>
<path d="M265.288 162.16C264.094 163.302 263.165 164.693 262.567 166.234C261.97 167.775 261.718 169.429 261.83 171.078C261.791 172.508 262.039 173.931 262.558 175.264L262.922 175.992C263.711 177.962 264.143 180.058 264.196 182.18C264.174 186.419 262.473 190.477 259.464 193.464C257.976 194.929 256.213 196.085 254.276 196.866C252.34 197.647 250.268 198.037 248.18 198.014C246.126 198.038 244.087 197.668 242.174 196.922L241.264 196.558C240.008 195.976 238.644 195.666 237.26 195.648C235.556 195.58 233.858 195.887 232.285 196.547C230.713 197.208 229.304 198.205 228.16 199.47L236.532 207.66C239.08 205.658 239.808 201.654 239.808 198.378C239.864 197.006 239.616 195.638 239.08 194.374L238.716 193.464C237.826 191.525 237.39 189.409 237.442 187.276C237.464 183.037 239.165 178.979 242.174 175.992C245.201 173.067 249.248 171.435 253.458 171.442C255.533 171.385 257.591 171.822 259.464 172.716L260.374 173.08C261.667 173.514 263.015 173.759 264.378 173.808C266.076 173.829 267.76 173.501 269.325 172.843C270.891 172.186 272.304 171.213 273.478 169.986L265.288 162.16Z" fill="#FFE4A1" stroke="#FFEDC0" stroke-width="3.64" stroke-linecap="round" stroke-linejoin="round"/>
<path d="M332.219 66.25C331.419 72.05 333.419 77.85 337.219 83.65L355.819 66.25" fill="#FFE4A1"/>
<path d="M332.219 66.25C331.419 72.05 333.419 77.85 337.219 83.65L355.819 66.25" stroke="#FFEDC0" stroke-width="2.56" stroke-linecap="round" stroke-linejoin="round"/>
<path d="M383.219 66.25C384.019 72.05 382.019 77.85 378.219 83.65L359.819 66.25" fill="#FFE4A1"/>
<path d="M383.219 66.25C384.019 72.05 382.019 77.85 378.219 83.65L359.819 66.25" stroke="#FFEDC0" stroke-width="2.56" stroke-linecap="round" stroke-linejoin="round"/>
<path d="M357.819 66.2499H382.019C382.57 66.253 383.114 66.1218 383.604 65.8677C384.093 65.6137 384.514 65.2443 384.829 64.7916C385.144 64.3388 385.344 63.8162 385.412 63.2689C385.48 62.7216 385.414 62.1659 385.219 61.6499C383.665 56.6317 380.319 52.3605 375.819 49.6499" fill="#FFE4A1"/>
<path d="M357.819 66.2499H382.019C382.57 66.253 383.114 66.1218 383.604 65.8677C384.093 65.6137 384.514 65.2443 384.829 64.7916C385.144 64.3388 385.344 63.8162 385.412 63.2689C385.48 62.7216 385.414 62.1659 385.219 61.6499C383.665 56.6317 380.319 52.3605 375.819 49.6499" stroke="#FFEDC0" stroke-width="2.56" stroke-linecap="round" stroke-linejoin="round"/>
<path d="M357.819 66.2499H333.419C332.867 66.253 332.323 66.1218 331.834 65.8677C331.344 65.6137 330.924 65.2443 330.609 64.7916C330.294 64.3388 330.094 63.8162 330.026 63.2689C329.958 62.7216 330.024 62.1659 330.219 61.6499C331.773 56.6317 335.119 52.3605 339.619 49.6499" fill="#FFE4A1"/>
<path d="M357.819 66.2499H333.419C332.867 66.253 332.323 66.1218 331.834 65.8677C331.344 65.6137 330.924 65.2443 330.609 64.7916C330.294 64.3388 330.094 63.8162 330.026 63.2689C329.958 62.7216 330.024 62.1659 330.219 61.6499C331.773 56.6317 335.119 52.3605 339.619 49.6499" stroke="#FFEDC0" stroke-width="2.56" stroke-linecap="round" stroke-linejoin="round"/>
<path d="M357.819 66.25L376.219 49.25C376.49 48.9777 376.698 48.6486 376.827 48.2864C376.956 47.9242 377.003 47.538 376.965 47.1554C376.927 46.7728 376.804 46.4035 376.606 46.074C376.408 45.7445 376.139 45.4631 375.819 45.25C363.819 38.25 351.819 38.25 339.619 45.25C339.299 45.4631 339.03 45.7445 338.832 46.074C338.634 46.4035 338.511 46.7728 338.473 47.1554C338.435 47.538 338.482 47.9242 338.611 48.2864C338.74 48.6486 338.947 48.9777 339.219 49.25L357.819 66.25Z" fill="#FFE4A1" stroke="#FFEDC0" stroke-width="2.56" stroke-linecap="round" stroke-linejoin="round"/>
<path d="M205.259 370.145C204.197 377.848 206.853 385.551 211.9 393.254L236.603 370.145" fill="#FFE4A1"/>
<path d="M205.259 370.145C204.197 377.848 206.853 385.551 211.9 393.254L236.603 370.145" stroke="#FFEDC0" stroke-width="3.4" stroke-linecap="round" stroke-linejoin="round"/>
<path d="M272.994 370.145C274.056 377.848 271.4 385.551 266.353 393.254L241.916 370.145" fill="#FFE4A1"/>
<path d="M272.994 370.145C274.056 377.848 271.4 385.551 266.353 393.254L241.916 370.145" stroke="#FFEDC0" stroke-width="3.4" stroke-linecap="round" stroke-linejoin="round"/>
<path d="M239.259 370.145H271.399C272.132 370.149 272.854 369.974 273.505 369.637C274.155 369.3 274.713 368.809 275.131 368.208C275.55 367.606 275.815 366.912 275.906 366.185C275.996 365.458 275.908 364.721 275.649 364.035C273.585 357.37 269.142 351.698 263.165 348.098" fill="#FFE4A1"/>
<path d="M239.259 370.145H271.399C272.132 370.149 272.854 369.974 273.505 369.637C274.155 369.3 274.713 368.809 275.131 368.208C275.55 367.606 275.815 366.912 275.906 366.185C275.996 365.458 275.908 364.721 275.649 364.035C273.585 357.37 269.142 351.698 263.165 348.098" stroke="#FFEDC0" stroke-width="3.4" stroke-linecap="round" stroke-linejoin="round"/>
<path d="M239.259 370.145H206.853C206.12 370.149 205.398 369.974 204.747 369.637C204.097 369.3 203.539 368.809 203.121 368.208C202.702 367.606 202.437 366.912 202.346 366.185C202.256 365.458 202.344 364.721 202.603 364.035C204.667 357.37 209.11 351.698 215.087 348.098" fill="#FFE4A1"/>
<path d="M239.259 370.145H206.853C206.12 370.149 205.398 369.974 204.747 369.637C204.097 369.3 203.539 368.809 203.121 368.208C202.702 367.606 202.437 366.912 202.346 366.185C202.256 365.458 202.344 364.721 202.603 364.035C204.667 357.37 209.11 351.698 215.087 348.098" stroke="#FFEDC0" stroke-width="3.4" stroke-linecap="round" stroke-linejoin="round"/>
<path d="M239.259 370.145L263.697 347.566C264.057 347.205 264.333 346.768 264.504 346.287C264.676 345.806 264.738 345.293 264.688 344.785C264.637 344.276 264.474 343.786 264.211 343.348C263.947 342.911 263.59 342.537 263.165 342.254C247.228 332.957 231.29 332.957 215.087 342.254C214.662 342.537 214.305 342.911 214.042 343.348C213.779 343.786 213.616 344.276 213.565 344.785C213.514 345.293 213.577 345.806 213.748 346.287C213.92 346.768 214.195 347.205 214.556 347.566L239.259 370.145Z" fill="#FFE4A1" stroke="#FFEDC0" stroke-width="3.4" stroke-linecap="round" stroke-linejoin="round"/>
<path d="M224.469 265.188C223.87 270.499 221.291 275.39 217.247 278.885C213.202 282.38 207.989 284.222 202.647 284.045C197.305 283.867 192.226 281.683 188.422 277.927C184.619 274.172 182.37 269.121 182.125 263.781C182.152 262.682 182.256 261.585 182.438 260.5C182.535 262.067 183.166 263.552 184.226 264.711C185.285 265.869 186.708 266.63 188.26 266.867C189.811 267.104 191.397 266.804 192.754 266.015C194.111 265.226 195.157 263.997 195.719 262.531C195.892 262.19 195.999 261.819 196.031 261.438C196.515 259.711 197.59 258.209 199.068 257.194C200.545 256.178 202.333 255.713 204.118 255.881C205.903 256.048 207.573 256.837 208.837 258.109C210.1 259.382 210.877 261.057 211.031 262.844V264.25C211.226 265.921 212.04 267.458 213.313 268.557C214.586 269.656 216.225 270.238 217.906 270.188C219.4 270.203 220.857 269.719 222.045 268.814C223.234 267.908 224.087 266.632 224.469 265.188Z" fill="#FFE4A1" stroke="#FFEDC0" stroke-width="2" stroke-linecap="round" stroke-linejoin="round"/>
<path d="M211.031 263.781V264.25C210.951 266.226 210.108 268.094 208.681 269.463C207.254 270.832 205.353 271.596 203.375 271.594C201.303 271.594 199.316 270.771 197.851 269.306C196.386 267.841 195.562 265.853 195.562 263.781C195.562 263.313 195.719 263 195.719 262.531C195.892 262.19 195.999 261.819 196.031 261.438C196.515 259.711 197.59 258.209 199.068 257.194C200.545 256.178 202.333 255.713 204.118 255.881C205.903 256.048 207.573 256.837 208.837 258.109C210.1 259.382 210.877 261.057 211.031 262.844V263.781Z" stroke="#FFEDC0" stroke-width="2" stroke-linecap="round" stroke-linejoin="round"/>
<path d="M224.469 263.781V265.188C224.087 266.632 223.234 267.908 222.045 268.813C220.857 269.719 219.4 270.202 217.906 270.187C216.225 270.238 214.586 269.656 213.313 268.557C212.04 267.457 211.226 265.921 211.031 264.25V262.844C210.877 261.057 210.1 259.382 208.837 258.109C207.573 256.837 205.903 256.048 204.118 255.881C202.333 255.713 200.545 256.178 199.068 257.193C197.59 258.209 196.515 259.711 196.031 261.438C195.875 261.75 195.875 262.219 195.719 262.531C195.157 263.997 194.111 265.226 192.754 266.015C191.397 266.803 189.811 267.104 188.26 266.867C186.708 266.63 185.285 265.869 184.226 264.71C183.166 263.552 182.535 262.066 182.438 260.5C182.606 259.335 182.868 258.186 183.219 257.062C184.675 252.874 187.397 249.241 191.008 246.666C194.619 244.09 198.94 242.7 203.375 242.688C208.488 242.68 213.429 244.529 217.281 247.892C221.132 251.255 223.631 255.902 224.312 260.969C224.442 261.9 224.494 262.841 224.469 263.781Z" stroke="#FFEDC0" stroke-width="2" stroke-linecap="round" stroke-linejoin="round"/>
<path d="M189.781 260.187L191.656 258" stroke="#FFEDC0" stroke-width="2" stroke-linecap="round" stroke-linejoin="round"/>
<path d="M197.281 253.469L195.094 251.75" stroke="#FFEDC0" stroke-width="2" stroke-linecap="round" stroke-linejoin="round"/>
<path d="M214.469 253.938L212.281 252.219" stroke="#FFEDC0" stroke-width="2" stroke-linecap="round" stroke-linejoin="round"/>
<path d="M203.531 250.656L205.25 248.469" stroke="#FFEDC0" stroke-width="2" stroke-linecap="round" stroke-linejoin="round"/>
<path d="M216.969 261.75L218.844 259.562" stroke="#FFEDC0" stroke-width="2" stroke-linecap="round" stroke-linejoin="round"/>
<path d="M336.938 138.649L335.375 162.712H306.312L304.75 138.649" stroke="#FFEDC0" stroke-width="2" stroke-linecap="round" stroke-linejoin="round"/>
<path d="M341 132.868C341 134.443 340.374 135.953 339.261 137.066C338.147 138.18 336.637 138.805 335.062 138.805C334.024 138.778 333.008 138.492 332.108 137.974C331.208 137.456 330.451 136.721 329.906 135.837C329.02 137.468 327.711 138.829 326.116 139.778C324.521 140.727 322.699 141.228 320.843 141.228C318.988 141.228 317.166 140.727 315.571 139.778C313.976 138.829 312.667 137.468 311.781 135.837C311.236 136.721 310.479 137.456 309.579 137.974C308.679 138.492 307.663 138.778 306.625 138.805C305.05 138.805 303.54 138.18 302.426 137.066C301.313 135.953 300.687 134.443 300.687 132.868C300.687 132.095 300.842 131.331 301.142 130.619C301.442 129.907 301.882 129.263 302.435 128.724C302.989 128.185 303.645 127.762 304.364 127.481C305.084 127.2 305.853 127.066 306.625 127.087C308.122 127.104 309.564 127.658 310.687 128.649C311.108 126.261 312.356 124.097 314.214 122.538C316.071 120.98 318.419 120.125 320.843 120.125C323.268 120.125 325.616 120.98 327.473 122.538C329.331 124.097 330.579 126.261 331 128.649C332.123 127.658 333.565 127.104 335.062 127.087C335.835 127.066 336.603 127.2 337.323 127.481C338.042 127.762 338.698 128.185 339.252 128.724C339.805 129.263 340.245 129.907 340.545 130.619C340.845 131.331 341 132.095 341 132.868Z" fill="#FFE4A1" stroke="#FFEDC0" stroke-width="2" stroke-linecap="round" stroke-linejoin="round"/>
<path d="M316 162.712L315.688 151.774" stroke="#FFEDC0" stroke-width="2" stroke-linecap="round" stroke-linejoin="round"/>
<path d="M325.688 162.712L326 151.774" stroke="#FFEDC0" stroke-width="2" stroke-linecap="round" stroke-linejoin="round"/>
<path d="M306 133.805L307.562 132.243" stroke="#FFEDC0" stroke-width="2" stroke-linecap="round" stroke-linejoin="round"/>
<path d="M334.125 133.805L335.688 132.243" stroke="#FFEDC0" stroke-width="2" stroke-linecap="round" stroke-linejoin="round"/>
<path d="M322.094 129.118L323.656 127.555" stroke="#FFEDC0" stroke-width="2" stroke-linecap="round" stroke-linejoin="round"/>
<path d="M317.25 132.555L318.812 134.118" stroke="#FFEDC0" stroke-width="2" stroke-linecap="round" stroke-linejoin="round"/>
<path d="M41.75 769.325H-1.63745L-4.4187 712.865H44.5312L41.75 769.325Z" fill="#FFE4A1" stroke="#FFEDC0" stroke-width="3.56" stroke-linecap="round" stroke-linejoin="round"/>
<path d="M20.0562 749.578C26.354 749.578 31.4594 744.473 31.4594 738.175C31.4594 731.877 26.354 726.772 20.0562 726.772C13.7584 726.772 8.65308 731.877 8.65308 738.175C8.65308 744.473 13.7584 749.578 20.0562 749.578Z" fill="#FFF9EB" stroke="#FFEDC0" stroke-width="3.56" stroke-linecap="round" stroke-linejoin="round"/>
<path d="M53.9876 701.741V712.866H-13.875V701.741H1.14382L3.64692 695.344H36.7438L39.2469 701.741H53.9876Z" stroke="#FFEDC0" stroke-width="3.56" stroke-linecap="round" stroke-linejoin="round"/>
<path d="M223.375 66.6875C227.975 66.6875 232.386 68.5147 235.639 71.7673C238.891 75.0199 240.719 79.4314 240.719 84.0312V114.266H206.031V84.0312C206.031 79.4314 207.859 75.0199 211.111 71.7673C214.364 68.5147 218.775 66.6875 223.375 66.6875Z" fill="#FFE4A1" stroke="#FFEDC0" stroke-width="3" stroke-linecap="round" stroke-linejoin="round"/>
<path d="M217.516 114.266H229.469V126.453C229.469 128.069 228.827 129.619 227.684 130.762C226.541 131.905 224.991 132.547 223.375 132.547C221.759 132.547 220.209 131.905 219.066 130.762C217.923 129.619 217.281 128.069 217.281 126.453V114.266H217.516Z" stroke="#FFEDC0" stroke-width="3" stroke-linecap="round" stroke-linejoin="round"/>
<path d="M217.516 86.8438V103.25" stroke="#FFEDC0" stroke-width="3" stroke-linecap="round" stroke-linejoin="round"/>
<path d="M229.469 86.8438V103.25" stroke="#FFEDC0" stroke-width="3" stroke-linecap="round" stroke-linejoin="round"/>
<path d="M262.984 107.234C269.078 102.313 259.234 90.3594 259.234 90.3594C259.234 90.3594 249.39 102.313 255.719 107.234C256.769 108.014 258.043 108.436 259.351 108.436C260.66 108.436 261.934 108.014 262.984 107.234Z" stroke="#FFEDC0" stroke-width="3" stroke-linecap="round" stroke-linejoin="round"/>
<path d="M285.094 543.125V571.563H274.625V553.594C274.625 550.817 275.728 548.154 277.691 546.191C279.654 544.228 282.317 543.125 285.094 543.125Z" stroke="#FFEDC0" stroke-width="2" stroke-linecap="round" stroke-linejoin="round"/>
<path d="M279 571.406H285.094V584.531C285.094 585.319 284.781 586.074 284.224 586.63C283.667 587.187 282.912 587.5 282.125 587.5H281.969C281.181 587.5 280.426 587.187 279.87 586.63C279.313 586.074 279 585.319 279 584.531V571.406Z" fill="#FFE4A1" stroke="#FFEDC0" stroke-width="2" stroke-linecap="round" stroke-linejoin="round"/>
<path d="M259 587.5C258.047 587.5 257.133 587.121 256.459 586.447C255.785 585.773 255.406 584.859 255.406 583.906L256.969 564.375H261.187L262.75 583.906C262.75 584.392 262.653 584.872 262.462 585.319C262.272 585.765 261.993 586.168 261.643 586.504C261.292 586.84 260.878 587.101 260.423 587.273C259.969 587.444 259.485 587.521 259 587.5Z" fill="#FFE4A1" stroke="#FFEDC0" stroke-width="2" stroke-linecap="round" stroke-linejoin="round"/>
<path d="M266.031 557.344C265.778 559.048 264.921 560.605 263.616 561.73C262.311 562.855 260.645 563.474 258.922 563.474C257.199 563.474 255.533 562.855 254.228 561.73C252.923 560.605 252.066 559.048 251.812 557.344H266.031Z" stroke="#FFEDC0" stroke-width="2" stroke-linecap="round" stroke-linejoin="round"/>
<path d="M251.812 544.375V557.344" stroke="#FFEDC0" stroke-width="2" stroke-linecap="round" stroke-linejoin="round"/>
<path d="M258.844 544.375V557.031" stroke="#FFEDC0" stroke-width="2" stroke-linecap="round" stroke-linejoin="round"/>
<path d="M266.031 544.375V557.344" stroke="#FFEDC0" stroke-width="2" stroke-linecap="round" stroke-linejoin="round"/>
<path d="M223.844 471.25H252.594V489.531C252.594 491.479 251.82 493.347 250.443 494.724C249.066 496.101 247.198 496.875 245.25 496.875H231.188C229.24 496.875 227.372 496.101 225.995 494.724C224.618 493.347 223.844 491.479 223.844 489.531V471.25Z" fill="#FFE4A1" stroke="#FFEDC0" stroke-width="2" stroke-linecap="round" stroke-linejoin="round"/>
<path d="M218.688 496.875H257.437C257.437 498.201 256.911 499.473 255.973 500.411C255.035 501.348 253.764 501.875 252.438 501.875H223.844C222.518 501.875 221.246 501.348 220.308 500.411C219.371 499.473 218.844 498.201 218.844 496.875H218.688Z" stroke="#FFEDC0" stroke-width="2" stroke-linecap="round" stroke-linejoin="round"/>
<path d="M228.531 465.781V460" stroke="#FFEDC0" stroke-width="2" stroke-linecap="round" stroke-linejoin="round"/>
<path d="M247.594 465.938V460" stroke="#FFEDC0" stroke-width="2" stroke-linecap="round" stroke-linejoin="round"/>
<path d="M238.062 463.594V458.125" stroke="#FFEDC0" stroke-width="2" stroke-linecap="round" stroke-linejoin="round"/>
<path d="M253.062 475.312H260.875V480.69C260.875 482.579 260.052 484.391 258.587 485.726C257.122 487.062 255.135 487.813 253.062 487.813V475.312Z" stroke="#FFEDC0" stroke-width="2" stroke-linecap="round" stroke-linejoin="round"/>
<path d="M167.5 497.688L153.125 539.406" stroke="#FFEDC0" stroke-width="2" stroke-linecap="round" stroke-linejoin="round"/>
<path d="M144.688 532.844L186.406 518.469" stroke="#FFEDC0" stroke-width="2" stroke-linecap="round" stroke-linejoin="round"/>
<path d="M173.906 521.594C179.602 521.594 184.219 516.977 184.219 511.281C184.219 505.586 179.602 500.969 173.906 500.969C168.211 500.969 163.594 505.586 163.594 511.281C163.594 516.977 168.211 521.594 173.906 521.594Z" fill="#FFE4A1" stroke="#FFEDC0" stroke-width="2" stroke-linecap="round" stroke-linejoin="round"/>
<path d="M173.906 515.031C175.977 515.031 177.656 513.352 177.656 511.281C177.656 509.21 175.977 507.531 173.906 507.531C171.835 507.531 170.156 509.21 170.156 511.281C170.156 513.352 171.835 515.031 173.906 515.031Z" fill="#FFF9EB" stroke="#FFEDC0" stroke-width="2" stroke-linecap="round" stroke-linejoin="round"/>
<path d="M64.05 88.6562L43.6375 147.897" stroke="#FFEDC0" stroke-width="2.84" stroke-linecap="round" stroke-linejoin="round"/>
<path d="M31.6562 138.578L90.8968 118.166" stroke="#FFEDC0" stroke-width="2.84" stroke-linecap="round" stroke-linejoin="round"/>
<path d="M73.1469 122.603C81.2344 122.603 87.7907 116.047 87.7907 107.959C87.7907 99.8719 81.2344 93.3157 73.1469 93.3157C65.0594 93.3157 58.5032 99.8719 58.5032 107.959C58.5032 116.047 65.0594 122.603 73.1469 122.603Z" fill="#FFE4A1" stroke="#FFEDC0" stroke-width="2.84" stroke-linecap="round" stroke-linejoin="round"/>
<path d="M73.1467 113.284C76.0876 113.284 78.4718 110.9 78.4718 107.959C78.4718 105.018 76.0876 102.634 73.1467 102.634C70.2058 102.634 67.8218 105.018 67.8218 107.959C67.8218 110.9 70.2058 113.284 73.1467 113.284Z" fill="#FFF9EB" stroke="#FFEDC0" stroke-width="2.84" stroke-linecap="round" stroke-linejoin="round"/>
<path d="M-17.75 332.925H39.725V360.7C39.725 365.295 37.8997 369.702 34.6506 372.951C31.4016 376.2 26.9949 378.025 22.4 378.025H-0.150005C-4.74488 378.025 -9.15156 376.2 -12.4006 372.951C-15.6497 369.702 -17.475 365.295 -17.475 360.7V332.925H-17.75Z" fill="#FFE4A1" stroke="#FFEDC0" stroke-width="3.52" stroke-linecap="round" stroke-linejoin="round"/>
<path d="M27.8999 320V309.275" stroke="#FFEDC0" stroke-width="3.52" stroke-linecap="round" stroke-linejoin="round"/>
<path d="M10.8501 315.875V306.25" stroke="#FFEDC0" stroke-width="3.52" stroke-linecap="round" stroke-linejoin="round"/>
<path d="M39.7251 338.975H54.5751V349.975C54.5751 352.747 53.4741 355.405 51.5144 357.364C49.5546 359.324 46.8966 360.425 44.1251 360.425H39.7251V338.975Z" stroke="#FFEDC0" stroke-width="3.52" stroke-linecap="round" stroke-linejoin="round"/>
<path d="M24.8751 345.575H7.55005V362.9H24.8751V345.575Z" fill="#FFF9EB" stroke="#FFEDC0" stroke-width="3.52" stroke-linecap="round" stroke-linejoin="round"/>
<path d="M16.075 332.925V345.575" stroke="#FFEDC0" stroke-width="3.52" stroke-linecap="round" stroke-linejoin="round"/>
<path d="M162.147 756.625L171.688 747.084C170.562 745.969 169.924 744.453 169.913 742.869C169.968 741.239 170.641 739.69 171.794 738.537C172.947 737.384 174.496 736.712 176.126 736.656C177.734 736.714 179.258 737.394 180.376 738.552C181.493 739.711 182.117 741.259 182.116 742.869C183.161 742.812 184.202 743.019 185.145 743.472C186.088 743.925 186.901 744.608 187.509 745.459C188.118 746.31 188.501 747.301 188.624 748.339C188.748 749.378 188.607 750.431 188.215 751.4C187.823 752.37 187.193 753.225 186.382 753.886C185.572 754.547 184.607 754.993 183.579 755.182C182.55 755.371 181.49 755.298 180.498 754.968C179.505 754.638 178.612 754.064 177.901 753.297L168.36 763.059" stroke="#FFEDC0" stroke-width="2.84" stroke-linecap="round" stroke-linejoin="round"/>
<path d="M165.254 776.15C165.405 780.019 164.203 783.82 161.854 786.897C159.505 789.975 156.157 792.138 152.385 793.013C149.763 793.63 147.031 793.611 144.418 792.956C141.805 792.3 139.387 791.029 137.367 789.247C135.346 787.466 133.782 785.226 132.805 782.716C131.828 780.205 131.466 777.498 131.751 774.819C132.135 770.718 134.026 766.905 137.059 764.118C140.092 761.331 144.051 759.768 148.169 759.731C151.398 759.569 154.43 758.133 156.601 755.738L159.041 753.519L170.801 765.278L169.247 767.053C167.992 768.213 166.989 769.62 166.302 771.185C165.615 772.75 165.258 774.441 165.254 776.15Z" fill="#FFE4A1" stroke="#FFEDC0" stroke-width="2.84" stroke-linecap="round" stroke-linejoin="round"/>
<path d="M381.938 570.156C381.979 572.74 383.034 575.204 384.875 577.016C386.717 578.828 389.197 579.844 391.781 579.844V590.625H350.688V549.688H361.469C361.77 552.065 362.928 554.251 364.726 555.835C366.524 557.419 368.838 558.294 371.234 558.294C373.631 558.294 375.945 557.419 377.743 555.835C379.54 554.251 380.699 552.065 381 549.688H391.781V560.312C389.171 560.312 386.667 561.35 384.821 563.196C382.975 565.042 381.938 567.546 381.938 570.156Z" fill="#FFE4A1" stroke="#FFEDC0" stroke-width="2" stroke-linecap="round" stroke-linejoin="round"/>
<path d="M381 549.688C380.699 552.065 379.54 554.251 377.743 555.835C375.945 557.419 373.631 558.294 371.234 558.294C368.838 558.294 366.524 557.419 364.726 555.835C362.928 554.251 361.77 552.065 361.469 549.688" stroke="#FFEDC0" stroke-width="2" stroke-linecap="round" stroke-linejoin="round"/>
<path d="M365.844 580.938C369.382 580.938 372.25 578.069 372.25 574.531C372.25 570.993 369.382 568.125 365.844 568.125C362.306 568.125 359.438 570.993 359.438 574.531C359.438 578.069 362.306 580.938 365.844 580.938Z" fill="#FFF9EB" stroke="#FFEDC0" stroke-width="2" stroke-linecap="round" stroke-linejoin="round"/>
<path d="M226.05 629.325C226.05 636.162 223.334 642.718 218.5 647.553C213.665 652.387 207.109 655.103 200.272 655.103C193.435 655.103 186.878 652.387 182.044 647.553C177.21 642.718 174.494 636.162 174.494 629.325" fill="#FFE4A1"/>
<path d="M226.05 629.325C226.05 636.162 223.334 642.718 218.5 647.553C213.665 652.387 207.109 655.103 200.272 655.103C193.435 655.103 186.878 652.387 182.044 647.553C177.21 642.718 174.494 636.162 174.494 629.325" stroke="#FFEDC0" stroke-width="2.92" stroke-linecap="round" stroke-linejoin="round"/>
<path d="M168.562 622.253H231.753" stroke="#FFEDC0" stroke-width="2.92" stroke-linecap="round" stroke-linejoin="round"/>
<path d="M191.375 632.062H209.169" stroke="#FFEDC0" stroke-width="2.92" stroke-linecap="round" stroke-linejoin="round"/>
<path d="M182.25 648.031L174.95 659.437" stroke="#FFEDC0" stroke-width="2.92" stroke-linecap="round" stroke-linejoin="round"/>
<path d="M218.066 648.031L225.366 659.437" stroke="#FFEDC0" stroke-width="2.92" stroke-linecap="round" stroke-linejoin="round"/>
<path d="M184.075 612.672V600.581" stroke="#FFEDC0" stroke-width="2.92" stroke-linecap="round" stroke-linejoin="round"/>
<path d="M214.188 612.672V600.581" stroke="#FFEDC0" stroke-width="2.92" stroke-linecap="round" stroke-linejoin="round"/>
<path d="M199.131 605.828V595.562" stroke="#FFEDC0" stroke-width="2.92" stroke-linecap="round" stroke-linejoin="round"/>
<path d="M305.25 272.5H283.375L282.594 256.25H306.031L305.25 272.5Z" fill="#FFE4A1"/>
<path d="M299.313 240.156C299.312 237.904 300.196 235.741 301.774 234.134C303.352 232.527 305.498 231.603 307.75 231.562C310.029 231.563 312.215 232.468 313.827 234.08C315.438 235.691 316.344 237.877 316.344 240.156C316.303 242.408 315.379 244.554 313.772 246.132C312.165 247.71 310.002 248.594 307.75 248.594H306.813" fill="#FFE4A1"/>
<path d="M299.313 240.156C299.312 237.904 300.196 235.741 301.774 234.134C303.352 232.527 305.498 231.603 307.75 231.562C310.029 231.563 312.215 232.468 313.827 234.08C315.438 235.691 316.344 237.877 316.344 240.156C316.303 242.408 315.379 244.554 313.772 246.132C312.165 247.71 310.002 248.594 307.75 248.594H306.813V240.156H299.313Z" stroke="#FFEDC0" stroke-width="2" stroke-linecap="round" stroke-linejoin="round"/>
<path d="M305.25 272.5H283.375L281.812 240.156H306.812L305.25 272.5Z" stroke="#FFEDC0" stroke-width="2" stroke-linecap="round" stroke-linejoin="round"/>
<path d="M295.875 264.219L290.25 228.125H281.812" stroke="#FFEDC0" stroke-width="2" stroke-linecap="round" stroke-linejoin="round"/>
<path d="M282.594 256.25H306.031" stroke="#FFEDC0" stroke-width="2" stroke-linecap="round" stroke-linejoin="round"/>
<path d="M154.375 305.344V329.25H114.688V305.344H117.031C119.224 305.332 121.341 304.539 123.002 303.107C124.663 301.676 125.759 299.699 126.094 297.531H142.969C143.332 299.685 144.437 301.645 146.092 303.071C147.746 304.498 149.847 305.301 152.031 305.344H154.375Z" fill="#FFE4A1" stroke="#FFEDC0" stroke-width="2" stroke-linecap="round" stroke-linejoin="round"/>
<path d="M134.531 286.125C136.769 286.125 138.915 287.014 140.497 288.596C142.08 290.179 142.969 292.325 142.969 294.562V297.531H126.094V294.562C126.094 292.325 126.983 290.179 128.565 288.596C130.147 287.014 132.293 286.125 134.531 286.125Z" stroke="#FFEDC0" stroke-width="2" stroke-linecap="round" stroke-linejoin="round"/>
<path d="M134.531 320.812C132.874 320.812 131.284 320.154 130.112 318.982C128.94 317.81 128.281 316.22 128.281 314.562V312.375H140.781V314.562C140.781 316.22 140.123 317.81 138.951 318.982C137.779 320.154 136.189 320.812 134.531 320.812Z" stroke="#FFEDC0" stroke-width="2" stroke-linecap="round" stroke-linejoin="round"/>
<path d="M115.797 224.312C114.367 224.312 112.996 223.745 111.985 222.734C110.974 221.723 110.406 220.352 110.406 218.922L112.75 189.625H119.078L121.422 218.922C121.423 219.65 121.276 220.371 120.99 221.04C120.705 221.71 120.287 222.315 119.761 222.819C119.235 223.323 118.613 223.715 117.932 223.971C117.25 224.228 116.524 224.344 115.797 224.312Z" fill="#FFE4A1" stroke="#FFEDC0" stroke-width="4" stroke-linecap="round" stroke-linejoin="round"/>
<path d="M115.797 189.625C122.657 189.625 128.219 182.699 128.219 174.156C128.219 165.613 122.657 158.688 115.797 158.688C108.936 158.688 103.375 165.613 103.375 174.156C103.375 182.699 108.936 189.625 115.797 189.625Z" stroke="#FFEDC0" stroke-width="4" stroke-linecap="round" stroke-linejoin="round"/>
<path d="M148.375 224.312C146.945 224.312 145.574 223.745 144.563 222.734C143.552 221.723 142.984 220.352 142.984 218.922L145.328 189.625H151.656L154 218.922C154.001 219.65 153.854 220.371 153.568 221.04C153.283 221.71 152.865 222.315 152.339 222.819C151.813 223.323 151.191 223.715 150.51 223.971C149.829 224.228 149.102 224.344 148.375 224.312Z" fill="#FFE4A1" stroke="#FFEDC0" stroke-width="4" stroke-linecap="round" stroke-linejoin="round"/>
<path d="M158.922 179.078C158.861 181.897 157.698 184.579 155.682 186.551C153.667 188.522 150.96 189.626 148.141 189.625C145.343 189.625 142.661 188.514 140.683 186.536C138.705 184.558 137.594 181.875 137.594 179.078H158.922Z" stroke="#FFEDC0" stroke-width="4" stroke-linecap="round" stroke-linejoin="round"/>
<path d="M137.594 159.625V179.078" stroke="#FFEDC0" stroke-width="4" stroke-linecap="round" stroke-linejoin="round"/>
<path d="M148.141 159.625V178.609" stroke="#FFEDC0" stroke-width="4" stroke-linecap="round" stroke-linejoin="round"/>
<path d="M158.922 159.625V179.078" stroke="#FFEDC0" stroke-width="4" stroke-linecap="round" stroke-linejoin="round"/>
<path d="M372 437.972C372.102 434.32 371.418 430.69 369.995 427.325C368.571 423.961 366.442 420.942 363.75 418.472" stroke="#FFEDC0" stroke-width="3.2" stroke-linecap="round" stroke-linejoin="round"/>
<path d="M315.5 437.972C315.5 422.222 328.25 410.722 343.75 410.722C347.508 410.711 351.236 411.389 354.75 412.722" stroke="#FFEDC0" stroke-width="3.2" stroke-linecap="round" stroke-linejoin="round"/>
<path d="M308 447.972H379.5" stroke="#FFEDC0" stroke-width="3.2" stroke-linecap="round" stroke-linejoin="round"/>
<path d="M364.75 414.972L363.75 418.472L363.25 420.722C361.988 425.934 359.305 430.693 355.5 434.472L354.5 435.222C353.867 435.92 353.095 436.477 352.234 436.859C351.373 437.24 350.442 437.437 349.5 437.437C348.558 437.437 347.627 437.24 346.765 436.859C345.904 436.477 345.133 435.92 344.5 435.222L342.5 433.222L340.5 431.222C339.835 430.57 339.306 429.792 338.945 428.934C338.585 428.075 338.399 427.153 338.399 426.222C338.399 425.291 338.585 424.369 338.945 423.51C339.306 422.652 339.835 421.874 340.5 421.222L341.5 420.472C345.091 416.683 349.687 413.995 354.75 412.722H355L360.75 411.222L364.75 414.972Z" fill="#FFE4A1" stroke="#FFEDC0" stroke-width="3.2" stroke-linecap="round" stroke-linejoin="round"/>
<path d="M375.75 412.972C374.804 413.701 373.687 414.175 372.505 414.35C371.324 414.525 370.117 414.395 369 413.972L364.5 414.972L361.25 411.472L362.25 406.972C361.733 405.932 361.528 404.765 361.661 403.611C361.794 402.457 362.259 401.367 363 400.472C365.5 397.972 370.5 398.722 374 402.222C377.5 405.722 378.25 410.472 375.75 412.972Z" stroke="#FFEDC0" stroke-width="3.2" stroke-linecap="round" stroke-linejoin="round"/>
<path d="M342.812 828.331C342.972 822.625 341.903 816.952 339.679 811.696C337.455 806.439 334.128 801.721 329.922 797.862" stroke="#FFEDC0" stroke-width="5" stroke-linecap="round" stroke-linejoin="round"/>
<path d="M254.531 828.331C254.531 803.722 274.453 785.753 298.672 785.753C304.544 785.736 310.369 786.795 315.859 788.878" stroke="#FFEDC0" stroke-width="5" stroke-linecap="round" stroke-linejoin="round"/>
<path d="M331.484 792.394L329.921 797.862L329.14 801.378C327.168 809.521 322.976 816.958 317.031 822.862L315.468 824.034C314.48 825.124 313.274 825.995 311.928 826.592C310.583 827.188 309.128 827.496 307.656 827.496C306.184 827.496 304.729 827.188 303.383 826.592C302.038 825.995 300.832 825.124 299.843 824.034L296.718 820.909L293.593 817.784C292.554 816.766 291.728 815.55 291.165 814.209C290.601 812.867 290.311 811.427 290.311 809.972C290.311 808.517 290.601 807.076 291.165 805.735C291.728 804.393 292.554 803.178 293.593 802.159L295.156 800.987C300.768 795.068 307.948 790.868 315.859 788.878H316.25L325.234 786.534L331.484 792.394Z" fill="#FFE4A1" stroke="#FFEDC0" stroke-width="5" stroke-linecap="round" stroke-linejoin="round"/>
<path d="M348.672 789.269C347.193 790.407 345.448 791.149 343.602 791.422C341.756 791.696 339.87 791.492 338.125 790.831L331.094 792.394L326.016 786.925L327.578 779.894C326.77 778.269 326.45 776.445 326.658 774.642C326.866 772.839 327.593 771.135 328.75 769.738C332.656 765.831 340.469 767.003 345.938 772.472C351.406 777.941 352.578 785.363 348.672 789.269Z" stroke="#FFEDC0" stroke-width="5" stroke-linecap="round" stroke-linejoin="round"/>
<path d="M50 53.9719C50.1018 50.3203 49.418 46.6895 47.9947 43.3252C46.5713 39.9609 44.4416 36.9417 41.75 34.4719" stroke="#FFEDC0" stroke-width="3.2" stroke-linecap="round" stroke-linejoin="round"/>
<path d="M-6.5 53.972C-6.5 38.222 6.24997 26.7221 21.75 26.7221C25.508 26.7109 29.2364 27.3888 32.75 28.722" stroke="#FFEDC0" stroke-width="3.2" stroke-linecap="round" stroke-linejoin="round"/>
<path d="M-14 63.9719H57.4999" stroke="#FFEDC0" stroke-width="3.2" stroke-linecap="round" stroke-linejoin="round"/>
<path d="M42.7499 30.9719L41.7499 34.472L41.2499 36.722C39.9875 41.9338 37.3048 46.6934 33.4999 50.472L32.4999 51.222C31.8672 51.9197 31.0954 52.4771 30.2343 52.8587C29.3732 53.2402 28.4418 53.4374 27.4999 53.4374C26.5581 53.4374 25.6266 53.2402 24.7655 52.8587C23.9044 52.4771 23.1327 51.9197 22.4999 51.222L20.4999 49.222L18.4999 47.2219C17.8347 46.5702 17.3063 45.7923 16.9455 44.9337C16.5847 44.0752 16.3989 43.1532 16.3989 42.2219C16.3989 41.2906 16.5847 40.3688 16.9455 39.5103C17.3063 38.6517 17.8347 37.8737 18.4999 37.2219L19.4999 36.472C23.0914 32.6833 27.6872 29.9953 32.7499 28.722H32.9999L38.7499 27.2219L42.7499 30.9719Z" fill="#FFE4A1" stroke="#FFEDC0" stroke-width="3.2" stroke-linecap="round" stroke-linejoin="round"/>
<path d="M53.75 28.9721C52.8036 29.7008 51.6867 30.1752 50.5052 30.3503C49.3237 30.5253 48.1171 30.3952 47.0001 29.9721L42.5 30.9721L39.25 27.4721L40.2501 22.9722C39.7325 21.9324 39.5279 20.7646 39.661 19.6108C39.7941 18.457 40.2593 17.3667 41 16.4721C43.5 13.9721 48.5001 14.7221 52.0001 18.2221C55.5001 21.7221 56.25 26.4721 53.75 28.9721Z" stroke="#FFEDC0" stroke-width="3.2" stroke-linecap="round" stroke-linejoin="round"/>
<path d="M52.6604 604.938H87.9729V607.281C87.9729 608.939 87.3144 610.529 86.1423 611.701C84.9702 612.873 83.3805 613.531 81.7229 613.531H58.9104C57.2528 613.531 55.6631 612.873 54.491 611.701C53.3189 610.529 52.6604 608.939 52.6604 607.281V604.938Z" fill="#FFE4A1" stroke="#FFEDC0" stroke-width="2" stroke-linecap="round" stroke-linejoin="round"/>
<path d="M83.754 595.406H87.8166C88.4451 595.385 89.0715 595.491 89.6584 595.717C90.2453 595.943 90.7807 596.285 91.2326 596.723C91.6846 597.16 92.0438 597.684 92.2891 598.263C92.5344 598.842 92.6606 599.465 92.6603 600.094C92.6603 601.378 92.15 602.611 91.2416 603.519C90.3332 604.427 89.1012 604.938 87.8166 604.938H52.8165C52.1876 604.938 51.565 604.812 50.9859 604.566C50.4067 604.321 49.8828 603.962 49.4455 603.51C49.0081 603.058 48.6661 602.523 48.44 601.936C48.2138 601.349 48.108 600.722 48.129 600.094C48.1072 599.472 48.2135 598.853 48.4414 598.275C48.6692 597.696 49.0137 597.17 49.4534 596.731C49.8931 596.291 50.4186 595.947 50.9972 595.719C51.5758 595.491 52.1951 595.385 52.8165 595.406H66.5665" fill="#FFE4A1"/>
<path d="M83.754 595.406H87.8166C88.4451 595.385 89.0715 595.491 89.6584 595.717C90.2453 595.943 90.7807 596.285 91.2326 596.723C91.6846 597.16 92.0438 597.684 92.2891 598.263C92.5344 598.842 92.6606 599.465 92.6603 600.094C92.6603 601.378 92.15 602.611 91.2416 603.519C90.3332 604.427 89.1012 604.938 87.8166 604.938H52.8165C52.1876 604.938 51.565 604.812 50.9859 604.566C50.4067 604.321 49.8828 603.962 49.4455 603.51C49.0081 603.058 48.6661 602.523 48.44 601.936C48.2138 601.349 48.108 600.722 48.129 600.094C48.1072 599.472 48.2135 598.853 48.4414 598.275C48.6692 597.696 49.0137 597.17 49.4534 596.731C49.8931 596.291 50.4186 595.947 50.9972 595.719C51.5758 595.491 52.1951 595.385 52.8165 595.406H66.5665" stroke="#FFEDC0" stroke-width="2" stroke-linecap="round" stroke-linejoin="round"/>
<path d="M92.6604 592.281C92.6486 593.106 92.3117 593.892 91.7229 594.469C91.449 594.775 91.1111 595.018 90.7332 595.18C90.3552 595.342 89.9463 595.419 89.5354 595.406H81.4104L76.0979 601.5L70.7854 595.406H51.0979C50.6945 595.407 50.2953 595.325 49.9245 595.166C49.5537 595.007 49.2192 594.775 48.9414 594.482C48.6636 594.19 48.4483 593.844 48.3086 593.465C48.169 593.087 48.1079 592.684 48.1291 592.281C48.1079 591.878 48.169 591.476 48.3086 591.097C48.4483 590.719 48.6636 590.373 48.9414 590.08C49.2192 589.788 49.5537 589.555 49.9245 589.396C50.2953 589.237 50.6945 589.156 51.0979 589.156H89.5354C90.3642 589.156 91.1591 589.485 91.7451 590.072C92.3312 590.658 92.6604 591.452 92.6604 592.281Z" fill="#FFF9EB" stroke="#FFEDC0" stroke-width="2" stroke-linecap="round" stroke-linejoin="round"/>
<path d="M66.0979 575.25H74.6916C78.2555 575.25 81.6733 576.666 84.1934 579.186C86.7134 581.706 88.1292 585.124 88.1292 588.688H52.6604C52.6604 585.124 54.0761 581.706 56.5961 579.186C59.1161 576.666 62.534 575.25 66.0979 575.25Z" fill="#FFE4A1" stroke="#FFEDC0" stroke-width="2" stroke-linecap="round" stroke-linejoin="round"/>
<path d="M61.5667 582.281L63.4417 584.313" stroke="#FFEDC0" stroke-width="2" stroke-linecap="round" stroke-linejoin="round"/>
<path d="M78.4417 581.5L80.4729 583.687" stroke="#FFEDC0" stroke-width="2" stroke-linecap="round" stroke-linejoin="round"/>
<path d="M69.0667 582.438L71.2541 580.406" stroke="#FFEDC0" stroke-width="2" stroke-linecap="round" stroke-linejoin="round"/>
<path d="M340.66 219.938H375.973V222.281C375.973 223.939 375.314 225.529 374.142 226.701C372.97 227.873 371.38 228.531 369.723 228.531H346.91C345.253 228.531 343.663 227.873 342.491 226.701C341.319 225.529 340.66 223.939 340.66 222.281V219.938Z" fill="#FFE4A1" stroke="#FFEDC0" stroke-width="2" stroke-linecap="round" stroke-linejoin="round"/>
<path d="M371.754 210.406H375.817C376.445 210.385 377.072 210.491 377.658 210.717C378.245 210.943 378.781 211.285 379.233 211.723C379.685 212.16 380.044 212.684 380.289 213.263C380.534 213.842 380.661 214.465 380.66 215.094C380.66 216.378 380.15 217.611 379.242 218.519C378.333 219.427 377.101 219.938 375.817 219.938H340.817C340.188 219.938 339.565 219.812 338.986 219.566C338.407 219.321 337.883 218.962 337.445 218.51C337.008 218.058 336.666 217.523 336.44 216.936C336.214 216.349 336.108 215.722 336.129 215.094C336.107 214.472 336.214 213.853 336.441 213.275C336.669 212.696 337.014 212.17 337.453 211.731C337.893 211.291 338.419 210.947 338.997 210.719C339.576 210.491 340.195 210.385 340.817 210.406H354.567" fill="#FFE4A1"/>
<path d="M371.754 210.406H375.817C376.445 210.385 377.072 210.491 377.658 210.717C378.245 210.943 378.781 211.285 379.233 211.723C379.685 212.16 380.044 212.684 380.289 213.263C380.534 213.842 380.661 214.465 380.66 215.094C380.66 216.378 380.15 217.611 379.242 218.519C378.333 219.427 377.101 219.938 375.817 219.938H340.817C340.188 219.938 339.565 219.812 338.986 219.566C338.407 219.321 337.883 218.962 337.445 218.51C337.008 218.058 336.666 217.523 336.44 216.936C336.214 216.349 336.108 215.722 336.129 215.094C336.107 214.472 336.214 213.853 336.441 213.275C336.669 212.696 337.014 212.17 337.453 211.731C337.893 211.291 338.419 210.947 338.997 210.719C339.576 210.491 340.195 210.385 340.817 210.406H354.567" stroke="#FFEDC0" stroke-width="2" stroke-linecap="round" stroke-linejoin="round"/>
<path d="M380.66 207.281C380.649 208.106 380.312 208.892 379.723 209.469C379.449 209.775 379.111 210.018 378.733 210.18C378.355 210.342 377.946 210.419 377.535 210.406H369.41L364.098 216.5L358.785 210.406H339.098C338.695 210.407 338.295 210.325 337.925 210.166C337.554 210.007 337.219 209.775 336.941 209.482C336.664 209.19 336.448 208.844 336.309 208.465C336.169 208.087 336.108 207.684 336.129 207.281C336.108 206.878 336.169 206.476 336.309 206.097C336.448 205.719 336.664 205.373 336.941 205.08C337.219 204.788 337.554 204.555 337.925 204.396C338.295 204.237 338.695 204.156 339.098 204.156H377.535C378.364 204.156 379.159 204.485 379.745 205.072C380.331 205.658 380.66 206.452 380.66 207.281Z" fill="#FFF9EB" stroke="#FFEDC0" stroke-width="2" stroke-linecap="round" stroke-linejoin="round"/>
<path d="M354.098 190.25H362.692C366.255 190.25 369.673 191.666 372.193 194.186C374.713 196.706 376.129 200.124 376.129 203.688H340.66C340.66 200.124 342.076 196.706 344.596 194.186C347.116 191.666 350.534 190.25 354.098 190.25Z" fill="#FFE4A1" stroke="#FFEDC0" stroke-width="2" stroke-linecap="round" stroke-linejoin="round"/>
<path d="M349.567 197.281L351.442 199.313" stroke="#FFEDC0" stroke-width="2" stroke-linecap="round" stroke-linejoin="round"/>
<path d="M366.442 196.5L368.473 198.687" stroke="#FFEDC0" stroke-width="2" stroke-linecap="round" stroke-linejoin="round"/>
<path d="M357.067 197.438L359.254 195.406" stroke="#FFEDC0" stroke-width="2" stroke-linecap="round" stroke-linejoin="round"/>
<path d="M108.687 658.125H126.812C128.926 658.125 130.953 658.965 132.447 660.459C133.942 661.953 134.781 663.98 134.781 666.094H109.312C104.754 666.094 100.382 667.905 97.1591 671.128C93.9358 674.351 92.125 678.723 92.125 683.281C92.125 687.84 93.9358 692.211 97.1591 695.435C100.382 698.658 104.754 700.469 109.312 700.469H132.438V690.625L118.844 695C117.185 695.563 115.439 695.827 113.688 695.781C111.684 695.782 109.76 694.997 108.328 693.594C106.897 692.192 106.072 690.285 106.031 688.281C106.031 686.251 106.838 684.303 108.274 682.868C109.71 681.432 111.657 680.625 113.688 680.625H120.25C124.104 680.625 127.8 679.094 130.525 676.369C133.25 673.644 134.781 669.948 134.781 666.094" fill="#FFE4A1"/>
<path d="M108.687 658.125H126.812C128.926 658.125 130.953 658.965 132.447 660.459C133.942 661.953 134.781 663.98 134.781 666.094M134.781 666.094H109.312C104.754 666.094 100.382 667.905 97.1591 671.128C93.9358 674.351 92.125 678.723 92.125 683.281C92.125 687.84 93.9358 692.211 97.1591 695.435C100.382 698.658 104.754 700.469 109.312 700.469H132.438V690.625L118.844 695C117.185 695.563 115.439 695.827 113.688 695.781C111.684 695.782 109.76 694.997 108.328 693.594C106.897 692.192 106.072 690.285 106.031 688.281C106.031 686.251 106.838 684.303 108.274 682.868C109.71 681.432 111.657 680.625 113.688 680.625H120.25C124.104 680.625 127.8 679.094 130.525 676.369C133.25 673.644 134.781 669.948 134.781 666.094Z" stroke="#FFEDC0" stroke-width="2" stroke-linecap="round" stroke-linejoin="round"/>
<path d="M111.969 666.094V680.781" stroke="#FFEDC0" stroke-width="2" stroke-linecap="round" stroke-linejoin="round"/>
<path d="M96.0312 672.344L107.438 683.75" stroke="#FFEDC0" stroke-width="2" stroke-linecap="round" stroke-linejoin="round"/>
<path d="M93.6875 690.469H106.344" stroke="#FFEDC0" stroke-width="2" stroke-linecap="round" stroke-linejoin="round"/>
<path d="M114.625 696.094V700.469" stroke="#FFEDC0" stroke-width="2" stroke-linecap="round" stroke-linejoin="round"/>
<path d="M120.563 673.281C121.598 673.281 122.438 672.442 122.438 671.406C122.438 670.371 121.598 669.531 120.563 669.531C119.527 669.531 118.688 670.371 118.688 671.406C118.688 672.442 119.527 673.281 120.563 673.281Z" fill="#FFEDC0"/>
<path d="M239.109 722.156L241.969 724.063L240.063 729.781L238.156 734.547L239.109 743.125L240.063 747.891L246.734 749.797L254.359 750.75L261.031 747.891L267.703 744.078L269.609 741.219V739.313H267.703L261.031 736.453L256.266 732.641L252.453 727.875L250.547 724.063V719.297L249.594 717.391H241.969L236.25 719.297L235.297 721.203L239.109 722.156Z" fill="#FFE4A1" stroke="#FFEDC0" stroke-width="1.90625"/>
<path d="M274.566 728.066C274.638 729.475 274.51 730.887 274.184 732.26C273.596 735.504 272.297 738.578 270.378 741.259C268.46 743.941 265.971 746.164 263.091 747.768C260.21 749.373 257.01 750.318 253.72 750.537C250.431 750.756 247.133 750.243 244.065 749.035C243.122 748.707 242.225 748.258 241.397 747.701L240.062 746.938C240.062 746.748 239.872 746.557 239.872 746.366C239.106 744.292 238.728 739.885 238.728 739.885C238.572 739.327 238.507 737.604 238.537 737.026C238.522 732.31 239.989 727.709 242.731 723.873C240.376 722.642 237.763 721.989 235.106 721.966H233.772C235.195 720.463 236.909 719.266 238.81 718.446C240.71 717.627 242.758 717.203 244.828 717.201C246.309 717.19 247.784 717.383 249.212 717.773C252.776 715.619 256.868 714.498 261.031 714.532C264.818 714.508 268.552 715.425 271.897 717.201C273.65 720.554 274.566 724.282 274.566 728.066Z" stroke="#FFEDC0" stroke-width="3.8125" stroke-linecap="round" stroke-linejoin="round"/>
<path d="M239.872 746.938L239.109 752.467L238.537 758.185L233.581 753.229L228.625 748.273L234.344 747.701L239.872 746.938Z" stroke="#FFEDC0" stroke-width="3.8125" stroke-linecap="round" stroke-linejoin="round"/>
<path d="M270.943 739.313C265.466 739.263 260.23 737.052 256.374 733.161C252.519 729.269 250.356 724.013 250.356 718.535" stroke="#FFEDC0" stroke-width="3.8125" stroke-linecap="round" stroke-linejoin="round"/>
<path d="M262.175 724.826C263.333 724.826 264.272 723.887 264.272 722.729C264.272 721.571 263.333 720.632 262.175 720.632C261.017 720.632 260.078 721.571 260.078 722.729C260.078 723.887 261.017 724.826 262.175 724.826Z" fill="#FFEDC0"/>
<path d="M29.7661 561.377C29.7661 563.465 28.9365 565.468 27.4596 566.945C25.9828 568.422 23.9797 569.252 21.8911 569.252C19.9726 569.263 18.1182 568.562 16.688 567.283C15.7989 568.948 14.462 570.331 12.8284 571.276C11.1949 572.222 9.32957 572.692 7.44305 572.633C5.55652 572.575 3.72392 571.99 2.15206 570.945C0.58019 569.9 -0.668334 568.437 -1.45262 566.72C-2.22613 567.288 -3.16532 567.584 -4.12453 567.564C-4.78934 567.564 -5.44764 567.433 -6.06185 567.179C-6.67607 566.924 -7.23413 566.551 -7.70422 566.081C-8.17432 565.611 -8.54724 565.053 -8.80166 564.439C-9.05607 563.825 -9.18699 563.166 -9.18699 562.502C-9.20129 561.506 -8.91323 560.529 -8.36087 559.701C-7.80851 558.872 -7.01785 558.231 -6.09327 557.861C-6.33256 557.088 -6.42787 556.278 -6.37449 555.47C-6.36209 553.695 -5.80831 551.967 -4.7871 550.515C-3.76589 549.063 -2.3259 547.958 -0.659628 547.346C1.00664 546.735 2.81981 546.646 4.53763 547.093C6.25546 547.54 7.7961 548.5 8.95362 549.845C10.5883 548.657 12.5575 548.017 14.5786 548.017C16.3484 548.016 18.0765 548.554 19.5334 549.559C20.9903 550.563 22.1069 551.988 22.7349 553.642C24.662 553.818 26.4531 554.71 27.7548 556.142C29.0565 557.574 29.7742 559.441 29.7661 561.377Z" fill="#FFE4A1" stroke="#FFEDC0" stroke-width="1.8" stroke-linecap="round" stroke-linejoin="round"/>
<path d="M21.8911 569.251C21.8911 569.251 15.0005 570.517 15.0005 586.126H7.82859C7.82859 586.126 8.25049 575.298 1.21924 570.095" stroke="#FFEDC0" stroke-width="1.8" stroke-linecap="round" stroke-linejoin="round"/>
<path d="M155.653 59.0816C154.946 65.3491 151.903 71.1201 147.131 75.244C142.359 79.368 136.208 81.542 129.904 81.3326C123.6 81.1233 117.607 78.546 113.118 74.1145C108.63 69.683 105.977 63.7228 105.688 57.4222C105.719 56.1245 105.842 54.8306 106.056 53.5503C106.172 55.3987 106.916 57.1519 108.166 58.5185C109.416 59.8852 111.096 60.7832 112.926 61.0632C114.757 61.3431 116.628 60.9883 118.23 60.0576C119.831 59.1269 121.065 57.6765 121.728 55.9472C121.933 55.5447 122.058 55.1065 122.097 54.6566C122.668 52.6192 123.936 50.8468 125.68 49.6485C127.424 48.4502 129.533 47.902 131.639 48.0995C133.746 48.297 135.717 49.2277 137.207 50.7292C138.698 52.2307 139.615 54.2079 139.797 56.3159V57.9753C140.027 59.9466 140.988 61.76 142.49 63.0572C143.992 64.3544 145.926 65.041 147.909 64.9815C149.672 64.9992 151.391 64.4286 152.793 63.3601C154.196 62.2915 155.202 60.786 155.653 59.0816Z" fill="#FFE4A1" stroke="#FFEDC0" stroke-width="3.6875" stroke-linecap="round" stroke-linejoin="round"/>
<path d="M139.797 57.4222V57.9753C139.702 60.3069 138.708 62.5112 137.024 64.1265C135.34 65.7418 133.096 66.6429 130.763 66.6409C128.318 66.6409 125.973 65.6697 124.244 63.9408C122.515 62.212 121.544 59.8672 121.544 57.4222C121.544 56.8691 121.728 56.5003 121.728 55.9472C121.933 55.5447 122.058 55.1065 122.097 54.6566C122.668 52.6192 123.936 50.8468 125.68 49.6485C127.424 48.4502 129.533 47.902 131.64 48.0995C133.746 48.297 135.717 49.2277 137.207 50.7292C138.698 52.2307 139.615 54.2079 139.797 56.3159V57.4222Z" stroke="#FFEDC0" stroke-width="3.6875" stroke-linecap="round" stroke-linejoin="round"/>
<path d="M155.653 57.4219V59.0813C155.202 60.7858 154.196 62.2913 152.793 63.3598C151.391 64.4283 149.672 64.9989 147.909 64.9812C145.926 65.0407 143.992 64.3541 142.49 63.0569C140.987 61.7597 140.027 59.9463 139.797 57.975V56.3156C139.614 54.2076 138.698 52.2305 137.207 50.7289C135.716 49.2274 133.746 48.2967 131.639 48.0992C129.533 47.9017 127.423 48.4499 125.68 49.6482C123.936 50.8465 122.668 52.6189 122.097 54.6563C121.912 55.025 121.912 55.5781 121.728 55.9469C121.065 57.6762 119.831 59.1267 118.23 60.0573C116.628 60.988 114.757 61.3429 112.926 61.0629C111.096 60.7829 109.416 59.885 108.166 58.5183C106.916 57.1516 106.172 55.3984 106.056 53.55C106.255 52.1756 106.564 50.8192 106.978 49.4937C108.697 44.5509 111.909 40.2639 116.169 37.2253C120.43 34.1867 125.529 32.5465 130.762 32.5313C136.795 32.5221 142.626 34.7044 147.171 38.6724C151.716 42.6404 154.664 48.1239 155.469 54.1031C155.622 55.2024 155.683 56.3125 155.653 57.4219Z" stroke="#FFEDC0" stroke-width="3.6875" stroke-linecap="round" stroke-linejoin="round"/>
<path d="M114.722 53.1813L116.935 50.6001" stroke="#FFEDC0" stroke-width="3.6875" stroke-linecap="round" stroke-linejoin="round"/>
<path d="M123.572 45.2532L120.991 43.2251" stroke="#FFEDC0" stroke-width="3.6875" stroke-linecap="round" stroke-linejoin="round"/>
<path d="M143.853 45.8065L141.272 43.7783" stroke="#FFEDC0" stroke-width="3.6875" stroke-linecap="round" stroke-linejoin="round"/>
<path d="M130.947 41.9343L132.975 39.353" stroke="#FFEDC0" stroke-width="3.6875" stroke-linecap="round" stroke-linejoin="round"/>
<path d="M146.803 55.0251L149.016 52.4438" stroke="#FFEDC0" stroke-width="3.6875" stroke-linecap="round" stroke-linejoin="round"/>
<path d="M66.0531 528.5L53.8843 508.956L41.5312 489.412C57.6897 485.353 74.6009 485.353 90.7593 489.412L78.4062 508.956L66.0531 528.5Z" fill="#FFE4A1" stroke="#FFEDC0" stroke-width="3.6875" stroke-linecap="round" stroke-linejoin="round"/>
<path d="M60.5218 500.659C62.6602 500.659 64.3937 498.926 64.3937 496.787C64.3937 494.649 62.6602 492.915 60.5218 492.915C58.3835 492.915 56.6499 494.649 56.6499 496.787C56.6499 498.926 58.3835 500.659 60.5218 500.659Z" fill="#FFF9EB" stroke="#FFEDC0" stroke-width="3.6875" stroke-linecap="round" stroke-linejoin="round"/>
<path d="M74.7189 501.396C76.4499 501.396 77.8532 499.993 77.8532 498.262C77.8532 496.531 76.4499 495.128 74.7189 495.128C72.9878 495.128 71.5845 496.531 71.5845 498.262C71.5845 499.993 72.9878 501.396 74.7189 501.396Z" fill="#FFEDC0"/>
<path d="M66.0533 512.828C67.7844 512.828 69.1877 511.424 69.1877 509.693C69.1877 507.962 67.7844 506.559 66.0533 506.559C64.3223 506.559 62.9189 507.962 62.9189 509.693C62.9189 511.424 64.3223 512.828 66.0533 512.828Z" fill="#FFEDC0"/>
<path d="M45.772 487.015C45.772 484.913 46.6072 482.896 48.094 481.409C49.5808 479.922 51.5974 479.087 53.7001 479.087C54.8111 479.069 55.9131 479.29 56.9311 479.735C57.9492 480.181 58.8594 480.84 59.6001 481.668V481.3C59.6001 479.588 60.2799 477.947 61.4901 476.737C62.7003 475.526 64.3417 474.847 66.0532 474.847C66.9076 474.821 67.7581 474.97 68.5526 475.286C69.3471 475.601 70.0687 476.075 70.6731 476.68C71.2775 477.284 71.7519 478.006 72.0671 478.8C72.3824 479.595 72.5319 480.445 72.5063 481.3V481.668C73.6082 480.5 75.0322 479.684 76.598 479.326C78.1637 478.967 79.8007 479.081 81.3014 479.654C82.8022 480.227 84.0991 481.232 85.028 482.542C85.9568 483.853 86.4756 485.41 86.5188 487.015" stroke="#FFEDC0" stroke-width="3.6875" stroke-linecap="round" stroke-linejoin="round"/>
<path d="M352.788 683.937V688.178H299.688V683.937C299.725 678.042 301.738 672.33 305.403 667.712C307.855 664.526 311.013 661.952 314.628 660.193C318.243 658.433 322.217 657.536 326.237 657.572C330.3 657.557 334.31 658.482 337.956 660.273C341.602 662.064 344.785 664.673 347.256 667.897C350.793 672.501 352.734 678.132 352.788 683.937Z" fill="#FFE4A1" stroke="#FFEDC0" stroke-width="3.6875" stroke-linecap="round" stroke-linejoin="round"/>
<path d="M350.207 660.891C350.208 662.196 349.947 663.489 349.441 664.692C348.934 665.896 348.191 666.985 347.257 667.897C344.785 664.673 341.602 662.064 337.956 660.273C334.31 658.482 330.3 657.557 326.238 657.572C322.217 657.536 318.243 658.433 314.628 660.193C311.013 661.952 307.855 664.526 305.403 667.713C303.675 665.856 302.69 663.427 302.638 660.891C302.613 659.616 302.843 658.35 303.314 657.165C303.785 655.98 304.487 654.902 305.38 653.992C306.273 653.082 307.338 652.359 308.513 651.866C309.689 651.372 310.951 651.119 312.225 651.119C313.846 651.152 315.432 651.596 316.835 652.409C316.976 649.964 318.048 647.665 319.831 645.985C321.614 644.305 323.972 643.371 326.422 643.375C328.859 643.414 331.193 644.362 332.967 646.034C334.741 647.705 335.826 649.979 336.01 652.409C337.412 651.596 338.998 651.152 340.619 651.119C341.894 651.119 343.156 651.372 344.331 651.866C345.506 652.359 346.572 653.082 347.464 653.992C348.357 654.902 349.059 655.98 349.53 657.165C350.001 658.35 350.231 659.616 350.207 660.891Z" stroke="#FFEDC0" stroke-width="3.6875" stroke-linecap="round" stroke-linejoin="round"/>
<path d="M314.253 672.322L316.65 669.925" stroke="#FFEDC0" stroke-width="3.6875" stroke-linecap="round" stroke-linejoin="round"/>
<path d="M326.053 676.378L328.45 678.96" stroke="#FFEDC0" stroke-width="3.6875" stroke-linecap="round" stroke-linejoin="round"/>
<path d="M334.719 671.216L336.009 669.925" stroke="#FFEDC0" stroke-width="3.6875" stroke-linecap="round" stroke-linejoin="round"/>
<path d="M218.213 -4.93745L218.213 -9.17805L271.313 -9.17804L271.313 -4.93744C271.275 0.9578 269.262 6.67031 265.597 11.2875C263.145 14.4738 259.987 17.0479 256.372 18.8075C252.757 20.567 248.783 21.4641 244.763 21.4282C240.7 21.4426 236.69 20.5184 233.044 18.7274C229.398 16.9363 226.215 14.3271 223.744 11.1032C220.207 6.49878 218.266 0.868192 218.213 -4.93745Z" fill="#FFE4A1" stroke="#FFEDC0" stroke-width="3.6875" stroke-linecap="round" stroke-linejoin="round"/>
<path d="M220.793 18.1094C220.792 16.8037 221.053 15.511 221.559 14.3076C222.066 13.1043 222.809 12.0146 223.743 11.1031C226.215 14.327 229.398 16.9363 233.044 18.7273C236.69 20.5183 240.7 21.4426 244.762 21.4281C248.783 21.464 252.757 20.567 256.372 18.8074C259.987 17.0478 263.145 14.4737 265.597 11.2875C267.325 13.1444 268.31 15.5728 268.362 18.1094C268.387 19.3838 268.157 20.6504 267.686 21.835C267.215 23.0196 266.513 24.0983 265.62 25.0082C264.727 25.9181 263.662 26.6409 262.487 27.1342C261.311 27.6275 260.049 27.8814 258.775 27.8812C257.154 27.8476 255.568 27.4036 254.165 26.5906C254.024 29.0363 252.952 31.3352 251.169 33.0152C249.386 34.6953 247.028 35.6291 244.578 35.625C242.141 35.5859 239.807 34.6377 238.033 32.9663C236.259 31.2948 235.174 29.0208 234.99 26.5906C233.588 27.4036 232.002 27.8476 230.381 27.8812C229.106 27.8814 227.844 27.6275 226.669 27.1342C225.494 26.6409 224.428 25.9181 223.536 25.0082C222.643 24.0983 221.941 23.0196 221.47 21.835C220.999 20.6504 220.769 19.3838 220.793 18.1094Z" stroke="#FFEDC0" stroke-width="3.6875" stroke-linecap="round" stroke-linejoin="round"/>
<path d="M256.747 6.67785L254.35 9.07471" stroke="#FFEDC0" stroke-width="3.6875" stroke-linecap="round" stroke-linejoin="round"/>
<path d="M244.947 2.62158L242.55 0.0403993" stroke="#FFEDC0" stroke-width="3.6875" stroke-linecap="round" stroke-linejoin="round"/>
<path d="M236.281 7.78417L234.991 9.07471" stroke="#FFEDC0" stroke-width="3.6875" stroke-linecap="round" stroke-linejoin="round"/>
<path d="M123.869 443.944H103.772L103.219 424.953H124.422L123.869 443.944Z" fill="#FFE4A1"/>
<path d="M123.869 443.944H103.772L101.928 405.962H125.713L123.869 443.944Z" stroke="#FFEDC0" stroke-width="3.6875" stroke-linecap="round" stroke-linejoin="round"/>
<path d="M99.5312 392.688H109.303L113.728 437.675" stroke="#FFEDC0" stroke-width="3.6875" stroke-linecap="round" stroke-linejoin="round"/>
<path d="M102.85 424.953H124.791" stroke="#FFEDC0" stroke-width="3.6875" stroke-linecap="round" stroke-linejoin="round"/>
<path d="M133.825 415.55C137.59 415.55 141.201 417.046 143.864 419.708C146.526 422.371 148.022 425.982 148.022 429.747C148.022 433.512 146.526 437.123 143.864 439.786C141.201 442.448 137.59 443.944 133.825 443.944" fill="#FFE4A1"/>
<path d="M133.825 415.55C137.59 415.55 141.201 417.046 143.864 419.708C146.526 422.371 148.022 425.982 148.022 429.747C148.022 433.512 146.526 437.123 143.864 439.786C141.201 442.448 137.59 443.944 133.825 443.944" stroke="#FFEDC0" stroke-width="3.6875" stroke-linecap="round" stroke-linejoin="round"/>
<path d="M144.703 397.113V397.85C144.703 400.735 143.557 403.502 141.517 405.542C139.477 407.582 136.71 408.728 133.825 408.728V407.991C133.825 405.106 134.971 402.339 137.011 400.299C139.051 398.259 141.818 397.113 144.703 397.113Z" stroke="#FFEDC0" stroke-width="3.6875" stroke-linejoin="round"/>
</g>
</g>
<defs>
<clipPath id="clip0_4094_1815">
<rect width="375" height="812" fill="white"/>
</clipPath>
<clipPath id="clip1_4094_1815">
<rect width="50" height="50" fill="white" transform="translate(340 304)"/>
</clipPath>
</defs>
</svg>
