<?xml version="1.0" encoding="UTF-8"?>
<svg version="1.1" xmlns="http://www.w3.org/2000/svg" width="524" height="134">
<path d="M0 0 C1.94099065 1.94099065 1.16383823 5.6057584 1.16796875 8.25390625 C1.17296135 9.35532204 1.17296135 9.35532204 1.17805481 10.47898865 C1.18313072 12.04010389 1.18546293 13.60123003 1.18530273 15.16235352 C1.18746873 17.52834616 1.20555939 19.89385687 1.22460938 22.25976562 C1.22754744 23.77864425 1.22952947 25.29752508 1.23046875 26.81640625 C1.23765427 27.51568741 1.24483978 28.21496857 1.25224304 28.93544006 C1.22956658 33.92437222 0.29371561 38.18314892 -1 43 C-1.23818461 46.58189548 -1.23818461 46.58189548 -1.125 50 C-1.10695313 51.134375 -1.08890625 52.26875 -1.0703125 53.4375 C-1.04710937 54.283125 -1.02390625 55.12875 -1 56 C10.29283791 54.28805383 20.43838917 51.33981083 31 47 C31.01417969 46.29875 31.02835937 45.5975 31.04296875 44.875 C31.4681958 36.41642952 33.61560974 30.84797434 39.9375 25.125 C45.18119793 21.48651572 50.04179006 20.73576304 56.33984375 20.40234375 C57.36761681 20.34355797 57.36761681 20.34355797 58.41615295 20.28358459 C60.58959005 20.16046414 62.76340643 20.04836645 64.9375 19.9375 C67.10787152 19.82123441 69.27807034 19.70255681 71.44813538 19.58070374 C73.41951068 19.47085255 75.39126776 19.36791638 77.36303711 19.26538086 C80.95787045 19.0030741 84.44080418 18.55265948 88 18 C86.13239259 23.69909065 84.14008247 29.35177629 82.125 35 C81.61646484 36.45792969 81.61646484 36.45792969 81.09765625 37.9453125 C78.1078012 46.2896228 74.64834999 53.06135115 67 58 C58.3848685 61.75243085 50.84763869 61.9154048 41.98046875 58.94921875 C39.84258449 57.92455233 38.56495684 56.76242773 37 55 C32.63524198 56.3543381 28.50378434 58.04299448 24.32348633 59.86914062 C16.30977698 63.36579953 8.61824587 66.34859959 0 68 C2.33150589 83.3159086 5.80299086 97.19023428 13 111 C13.18006592 109.98969727 13.18006592 109.98969727 13.36376953 108.95898438 C16.43937263 91.98096089 19.70542116 75.80552382 29 61 C31.875 60.875 31.875 60.875 35 61 C35.66 61.66 36.32 62.32 37 63 C36.90060814 67.57202539 35.62601936 71.07305542 33.8125 75.25 C28.26441464 88.15779042 24.03835493 100.84703099 24 115 C23.99742187 115.95132813 23.99484375 116.90265625 23.9921875 117.8828125 C23.99605469 118.93082031 23.99605469 118.93082031 24 120 C35.88429379 116.68533302 41.66253539 110.46086239 48.69750977 100.76025391 C49.6034637 99.53590005 50.5359054 98.3308876 51.48803711 97.14208984 C55.43182452 92.15698283 57.98978307 87.09588907 60.4375 81.25 C68.61019174 62.38980826 68.61019174 62.38980826 73 58 C74.66617115 57.95936168 76.33388095 57.957279 78 58 C80.02356328 63.00565653 80.24364981 65.93411521 78.26171875 71.14453125 C76.2414363 75.71674943 74.096562 80.23324647 71.86962891 84.70849609 C67.87816691 92.87878602 64.99363497 101.98090492 68 111 C73.00476205 110.523356 76.25024145 109.40887141 80 106 C80.79362836 103.79692235 81.19726654 101.68950727 81.5703125 99.37890625 C82.00096435 96.99466098 82.67870073 94.93908386 83.5625 92.6875 C84.58587144 90.06232978 85.37093588 87.71396236 86 85 C84.88625 85.04125 83.7725 85.0825 82.625 85.125 C79 85 79 85 77 83 C76.73008094 80.31160615 76.91262643 77.70858064 77 75 C77.67546875 74.93941406 78.3509375 74.87882812 79.046875 74.81640625 C79.93890625 74.73261719 80.8309375 74.64882812 81.75 74.5625 C82.63171875 74.48128906 83.5134375 74.40007812 84.421875 74.31640625 C85.27265625 74.21199219 86.1234375 74.10757813 87 74 C87.64396729 73.96704834 88.28793457 73.93409668 88.95141602 73.90014648 C92.24500405 72.45294602 93.0316528 69.42724589 94.35546875 66.28125 C94.65841354 65.59554428 94.96135834 64.90983856 95.27348328 64.20335388 C95.92108673 62.73484057 96.56237297 61.26352827 97.19793701 59.7897644 C98.84381431 55.98134462 100.5449458 52.19764926 102.23828125 48.41015625 C102.56755615 47.67036026 102.89683105 46.93056427 103.23608398 46.16835022 C115.58668215 18.45162206 115.58668215 18.45162206 128 13 C130.5 12.625 130.5 12.625 133 13 C135.77778916 15.15316747 136.89128892 16.28390315 137.42578125 19.8046875 C137.38839844 20.81789063 137.35101563 21.83109375 137.3125 22.875 C137.27640625 23.93589844 137.2403125 24.99679688 137.203125 26.08984375 C136.99151745 29.12152884 136.65187076 32.03036653 136 35 C135.896875 35.78375 135.79375 36.5675 135.6875 37.375 C134.67674964 41.23422865 133.37476328 44.76372953 131 48 C128 49.25 128 49.25 125 49 C122.625 47.0625 122.625 47.0625 121 45 C121.30744141 43.98679687 121.30744141 43.98679687 121.62109375 42.953125 C122.02521484 41.61507812 122.02521484 41.61507812 122.4375 40.25 C122.70433594 39.36828125 122.97117187 38.4865625 123.24609375 37.578125 C123.88468494 35.39434165 124.46775833 33.21164502 125 31 C120.70259197 35.77032854 118.03351891 41.33184848 115.125 47 C114.32980957 48.53636108 114.32980957 48.53636108 113.51855469 50.10375977 C109.80806222 57.31436182 106.25181343 64.56932107 103 72 C103.53496094 71.83886719 104.06992187 71.67773438 104.62109375 71.51171875 C107.4780822 70.8971613 110.14083825 70.83060199 113.0625 70.8125 C114.10535156 70.79832031 115.14820313 70.78414063 116.22265625 70.76953125 C119 71 119 71 122 73 C122.1875 75.625 122.1875 75.625 122 78 C121.32420898 78.09909668 120.64841797 78.19819336 119.95214844 78.30029297 C116.87540137 78.7785575 113.81483564 79.3257463 110.75 79.875 C109.68652344 80.0296875 108.62304688 80.184375 107.52734375 80.34375 C101.72063653 81.3392146 101.72063653 81.3392146 97.47192383 85.07739258 C96.39041411 87.69776687 95.6592684 90.24413044 95 93 C94.493769 94.67586568 93.9872658 96.35164916 93.48046875 98.02734375 C93.04283585 99.66229871 92.61180362 101.29903525 92.1875 102.9375 C91.95869141 103.77345703 91.72988281 104.60941406 91.49414062 105.47070312 C91.17799805 106.67436523 91.17799805 106.67436523 90.85546875 107.90234375 C90.66621826 108.61898193 90.47696777 109.33562012 90.28198242 110.07397461 C89.82105837 112.21370908 89.82105837 112.21370908 91 115 C91.53935652 120.71717911 90.52168246 123.48784435 87 128 C84.75 127.875 84.75 127.875 82 127 C78 121.91891892 78 121.91891892 78 119 C76.96875 119.495 75.9375 119.99 74.875 120.5 C70.77696638 122.24683857 67.25882407 122.81941986 62.96484375 121.26171875 C60.46154259 119.65423112 59.86739018 118.23139821 58.75 115.5 C58.41484375 114.7059375 58.0796875 113.911875 57.734375 113.09375 C57 111 57 111 57 109 C52.84036535 112.5401146 48.88415918 116.09923866 45.1875 120.125 C38.97390144 126.3872373 30.93776003 129.70614388 22.15234375 130.2890625 C18.71198233 129.82701759 17.20328381 127.51803864 15 125 C14.175 125.165 13.35 125.33 12.5 125.5 C11.675 125.665 10.85 125.83 10 126 C5.93794667 122.57099394 3.4016056 118.67375438 1 114 C0.6582373 113.34789551 0.31647461 112.69579102 -0.03564453 112.02392578 C-3.20031244 105.85737844 -5.65660207 99.52154927 -8 93 C-8.350625 92.23558594 -8.70125 91.47117187 -9.0625 90.68359375 C-10.38091449 86.90963227 -10.71976269 83.15018945 -11.125 79.1875 C-11.21136719 78.39923828 -11.29773438 77.61097656 -11.38671875 76.79882812 C-11.59751064 74.86656916 -11.79962896 72.93336737 -12 71 C-12.84594727 71.2266333 -13.69189453 71.4532666 -14.56347656 71.68676758 C-17.76150877 72.54302477 -20.95977863 73.39838362 -24.15820312 74.25317383 C-25.53134328 74.62033817 -26.9043932 74.98784018 -28.27734375 75.35571289 C-29.61086879 75.71297673 -30.94457311 76.06957206 -32.27845764 76.42549133 C-33.60422546 76.78011598 -34.92929266 77.13737024 -36.25364685 77.49723816 C-39.32063053 78.3236055 -42.3768364 79.07756147 -45.48852539 79.71801758 C-51.93612615 80.91032043 -51.93612615 80.91032043 -56.96484375 84.78515625 C-57.61582031 85.86667969 -58.26679688 86.94820313 -58.9375 88.0625 C-59.29320068 88.63379639 -59.64890137 89.20509277 -60.01538086 89.79370117 C-63.00040367 94.68205893 -65.65350706 99.77640014 -68 105 C-67.1028125 104.505 -67.1028125 104.505 -66.1875 104 C-64 103 -64 103 -61 103 C-66.33713355 118.49185668 -66.33713355 118.49185668 -72 124 C-74.88211302 124.96070434 -76.69850044 125.10581883 -79.6875 125.0625 C-80.49574219 125.05347656 -81.30398438 125.04445313 -82.13671875 125.03515625 C-82.75160156 125.02355469 -83.36648438 125.01195312 -84 125 C-85.00496594 109.92551092 -77.29609853 99.08202913 -69.30810547 87.00048828 C-67.80670534 84.70439409 -66.3831626 82.36908473 -65 80 C-65.969375 79.525625 -66.93875 79.05125 -67.9375 78.5625 C-71 77 -71 77 -72 76 C-72.375 73.6875 -72.375 73.6875 -72 71 C-68.94202511 67.8546544 -66.38077352 66.3205444 -62 66 C-59.99619076 66.30961206 -57.99545078 66.64043459 -56 67 C-55.03900391 65.7315625 -55.03900391 65.7315625 -54.05859375 64.4375 C-46.20540275 54.123612 -46.20540275 54.123612 -42.5625 50.1875 C-37.58304935 44.62360679 -33.57716381 38.30100249 -29.42724609 32.11230469 C-28.0289714 30.04287728 -26.60626754 27.99256824 -25.17578125 25.9453125 C-19.29237287 17.45764212 -19.29237287 17.45764212 -15.5703125 7.87109375 C-14.61559762 4.73884426 -13.03997931 2.54997414 -11 0 C-6.91733314 -1.36088895 -4.24071899 -0.68398693 0 0 Z M-14 29 C-21.69400858 38.30514712 -28.60406777 48.28547863 -35.62475586 58.09985352 C-37.06075378 60.08394224 -38.52523745 62.04460226 -40 64 C-39.67 64.66 -39.34 65.32 -39 66 C-34.85278685 65.02661553 -30.70748368 64.04533118 -26.5625 63.0625 C-24.78649414 62.64581055 -24.78649414 62.64581055 -22.97460938 62.22070312 C-21.84990234 61.95322266 -20.72519531 61.68574219 -19.56640625 61.41015625 C-18.52427979 61.16402588 -17.48215332 60.91789551 -16.40844727 60.66430664 C-14.06721987 60.23176541 -14.06721987 60.23176541 -13 59 C-12.91216458 56.78144736 -12.89305391 54.56011504 -12.90234375 52.33984375 C-12.9037587 51.67537735 -12.90517365 51.01091095 -12.90663147 50.3263092 C-12.91224482 48.19666101 -12.92479946 46.06711661 -12.9375 43.9375 C-12.94251329 42.49674631 -12.94707649 41.05599097 -12.95117188 39.61523438 C-12.96221855 36.07678898 -12.97949208 32.53840461 -13 29 C-13.33 29 -13.66 29 -14 29 Z M67 32 C64.47182222 32.95307652 64.47182222 32.95307652 61.6171875 34.421875 C60.53179687 34.95296875 59.44640625 35.4840625 58.328125 36.03125 C56.61882812 36.88203125 56.61882812 36.88203125 54.875 37.75 C48.00427954 41.14569094 41.2469502 44.48394394 34 47 C34.66 48.65 35.32 50.3 36 52 C48.13307111 48.35824864 58.80060987 40.31916368 69 33 C68.34 32.67 67.68 32.34 67 32 Z " fill="#000000" transform="translate(348,3)"/>
<path d="M0 0 C0.99 0.495 0.99 0.495 2 1 C2.04973511 5.42910272 2.08587704 9.85805397 2.10986328 14.28735352 C2.11987124 15.79161413 2.1334818 17.29585553 2.15087891 18.80004883 C2.17535809 20.97221643 2.18653523 23.14412504 2.1953125 25.31640625 C2.20578613 26.62037354 2.21625977 27.92434082 2.22705078 29.26782227 C1.99268311 33.1202723 1.12135439 36.3205559 0 40 C-0.26526348 42.20282135 -0.26526348 42.20282135 -0.1953125 44.18359375 C-0.18886719 44.88291016 -0.18242188 45.58222656 -0.17578125 46.30273438 C-0.15902344 47.00720703 -0.14226562 47.71167969 -0.125 48.4375 C-0.11597656 49.16904297 -0.10695313 49.90058594 -0.09765625 50.65429688 C-0.07436153 52.43634298 -0.0385019 54.21821759 0 56 C0.90492187 55.83886719 1.80984375 55.67773438 2.7421875 55.51171875 C7.98841505 54.68767102 13.35446953 53.90297969 18 57 C17.64054253 59.60606665 17.23212513 60.77647209 15.3125 62.625 C11.13021157 65.11176609 6.73119974 66.08738279 2 67 C0.20522207 82.75416185 6.17390808 99.26348137 14.10327148 112.63354492 C16.21094436 116.21048944 17.71709501 118.79660266 17 123 C15.25 124.875 15.25 124.875 13 126 C11.0625 126.0625 11.0625 126.0625 9 125 C4.48834986 120.22161379 1.72743305 115.0440155 -1.0625 109.125 C-1.50005615 108.19896973 -1.9376123 107.27293945 -2.38842773 106.31884766 C-7.67880602 94.77566182 -10.00907407 83.64760909 -11 71 C-11.8156543 71.2266333 -12.63130859 71.4532666 -13.47167969 71.68676758 C-16.55776864 72.54345644 -19.64423914 73.39875411 -22.73095703 74.25317383 C-24.0556508 74.62014764 -25.38020019 74.98764307 -26.70458984 75.35571289 C-28.63078438 75.89092919 -30.55757917 76.42398367 -32.484375 76.95703125 C-33.74548096 77.30757568 -35.00658691 77.65812012 -36.3059082 78.01928711 C-40.68697502 79.18237913 -45.09824974 80.16151737 -49.53881836 81.06982422 C-54.52861161 82.95566018 -56.62809896 87.48181778 -59 92 C-59.3187207 92.60537598 -59.63744141 93.21075195 -59.96582031 93.83447266 C-62.06338354 97.85024225 -64.05933573 101.90631914 -66 106 C-64.824375 105.01 -64.824375 105.01 -63.625 104 C-61 102 -61 102 -59 102 C-60.93381509 109.97274644 -63.76466983 118.03538165 -69.89453125 123.7734375 C-72.39867551 125.23225252 -73.87792842 125.31420904 -76.75 125.1875 C-77.54921875 125.16042969 -78.3484375 125.13335937 -79.171875 125.10546875 C-79.77515625 125.07066406 -80.3784375 125.03585938 -81 125 C-82.05929409 111.43515069 -75.75178533 101.24004109 -69 90 C-68.38898438 88.97261719 -67.77796875 87.94523437 -67.1484375 86.88671875 C-65.7748058 84.58539739 -64.39283276 82.28973264 -63 80 C-64.98 79.01 -66.96 78.02 -69 77 C-69 74.69 -69 72.38 -69 70 C-63.33615222 65.90274841 -63.33615222 65.90274841 -59.53125 66.1796875 C-57.31101082 66.69259086 -55.15978037 67.27517575 -53 68 C-52.77054688 67.30390625 -52.54109375 66.6078125 -52.3046875 65.890625 C-50.72931398 62.40027649 -48.538776 59.68050192 -46.125 56.75 C-40.23731653 49.42543556 -34.79169143 41.83874113 -29.45654297 34.10498047 C-28.03621305 32.05233471 -26.59893834 30.01239153 -25.16015625 27.97265625 C-20.72837492 21.60731165 -17.16110183 15.77658137 -14.79296875 8.31640625 C-13.6661691 5.02481909 -12.19640333 2.69236537 -10 0 C-6.27762318 -1.24079227 -3.82468076 -0.6953965 0 0 Z M-13 29 C-14.7738648 31.22432084 -16.49070707 33.46755023 -18.1875 35.75 C-18.97205566 36.79994141 -18.97205566 36.79994141 -19.77246094 37.87109375 C-26.37917772 46.77326592 -32.69241944 55.88467395 -39 65 C-36.34820091 66.32589954 -35.21158822 65.75877904 -32.3515625 65.07421875 C-31.42859375 64.85443359 -30.505625 64.63464844 -29.5546875 64.40820312 C-28.58789062 64.17037109 -27.62109375 63.93253906 -26.625 63.6875 C-25.6659375 63.46126953 -24.706875 63.23503906 -23.71875 63.00195312 C-19.45434842 61.9714884 -15.95904246 60.97952123 -12 59 C-12 49.1 -12 39.2 -12 29 C-12.33 29 -12.66 29 -13 29 Z " fill="#000000" transform="translate(83,3)"/>
<path d="M0 0 C1.73046875 1.26171875 1.73046875 1.26171875 3 3 C2.9609375 4.91015625 2.9609375 4.91015625 2.375 7.0625 C2.16230469 7.86042969 1.94960937 8.65835938 1.73046875 9.48046875 C1.48941406 10.31191406 1.24835938 11.14335938 1 12 C0.78988281 12.80050781 0.57976562 13.60101563 0.36328125 14.42578125 C-1.13807283 19.86710499 -3.19280423 24.87064649 -5.59375 29.97265625 C-7.23917976 33.51490087 -8.78204399 37.09445321 -10.3125 40.6875 C-11.08013672 42.48767578 -11.08013672 42.48767578 -11.86328125 44.32421875 C-12.23839844 45.20722656 -12.61351562 46.09023437 -13 47 C-12.67 47.33 -12.34 47.66 -12 48 C-11.59007812 47.566875 -11.18015625 47.13375 -10.7578125 46.6875 C-10.21898437 46.130625 -9.68015625 45.57375 -9.125 45 C-8.59132812 44.443125 -8.05765625 43.88625 -7.5078125 43.3125 C-6 42 -6 42 -4 42 C-3.814375 41.443125 -3.62875 40.88625 -3.4375 40.3125 C-0.44767561 35.50278251 4.0697849 32.99632107 9.5 31.6875 C16.11232369 30.51995897 21.17304025 30.24484816 27 34 C32.42874458 39.86891306 32.43059926 45.32554266 32.26953125 53.015625 C31.52484773 64.02399003 26.5226125 72.33921986 20 81 C19.08927734 82.22396484 19.08927734 82.22396484 18.16015625 83.47265625 C9.48529445 94.16492777 -6.33023583 102.63956634 -20 105 C-22.63938612 105.1456986 -25.2354028 105.23062681 -27.875 105.25 C-28.56980469 105.270625 -29.26460937 105.29125 -29.98046875 105.3125 C-34.76204006 105.34851937 -37.94341291 104.51207912 -42 102 C-45.10058108 98.81561943 -46.49430263 96.42485195 -47 92 C-43.19653643 92.38034636 -40.66591829 93.16103937 -37.5 95.1875 C-31.50035552 98.32471868 -25.28863305 96.5636232 -19 95 C-11.25018959 92.49736014 -4.49786828 88.87967328 2 84 C2.62648437 83.55011719 3.25296875 83.10023437 3.8984375 82.63671875 C12.6607783 75.84494804 17.56796874 64.29609378 21 54 C21.35029439 48.5704369 21.37497764 45.49997019 18 41 C8.62066759 41.39080552 3.48419524 47.25206291 -2.625 53.875 C-10.02706582 61.67085344 -10.02706582 61.67085344 -15 71 C-15.66 71 -16.32 71 -17 71 C-17.26039063 71.57621094 -17.52078125 72.15242188 -17.7890625 72.74609375 C-19.08719808 75.16230095 -20.5619243 77.00794479 -22.375 79.0625 C-22.96023437 79.73410156 -23.54546875 80.40570313 -24.1484375 81.09765625 C-26.01177735 83.01210036 -27.72748515 84.59130658 -30 86 C-33.6875 85.8125 -33.6875 85.8125 -37 85 C-38.52637419 81.94725161 -38.19448076 79.37781212 -38 76 C-36.98120117 72.98754883 -36.98120117 72.98754883 -35.54296875 69.95703125 C-35.0126001 68.81468018 -34.48223145 67.6723291 -33.93579102 66.49536133 C-33.65083771 65.89575592 -33.3658844 65.29615051 -33.07229614 64.67837524 C-31.54955107 61.46718093 -30.07599855 58.23359507 -28.6015625 55 C-28.29865799 54.33720535 -27.99575348 53.67441071 -27.68367004 52.99153137 C-20.77020822 37.76597321 -14.64523834 22.05360512 -9.74829102 6.06176758 C-9.21680596 4.35766387 -8.61571338 2.67551272 -8 1 C-5.20129973 -0.39935013 -3.09501208 -0.25265405 0 0 Z M-15 50 C-14 52 -14 52 -14 52 Z " fill="#000000" transform="translate(147,24)"/>
<path d="M0 0 C4.70588235 0.70588235 4.70588235 0.70588235 6 2 C7.18780485 12.01149804 2.52795802 20.52009021 -2.25 29.0625 C-6.14480248 36.64025378 -6.61416439 45.76776163 -5 54 C1.98525059 50.89385373 7.50643024 47.32477292 13 42 C14.32 42.66 15.64 43.32 17 44 C15.7279634 51.79813741 11.88051474 55.39496989 5.7890625 60.15234375 C1.24540138 63.16236015 -2.50855038 64.6864312 -8 64 C-11.91408436 61.59817551 -13.78171125 59.43014092 -15 55 C-15 53.68 -15 52.36 -15 51 C-18.79740139 54.1849173 -22.37887928 57.20369139 -25.4375 61.125 C-31.41321195 67.82945731 -40.5670242 71.17992818 -49.3125 72.5 C-52 72 -52 72 -54.25 69.875 C-60.04016569 60.36258493 -58.31010127 49.68850536 -56.3125 39.1875 C-56.13315918 38.23190186 -55.95381836 37.27630371 -55.76904297 36.29174805 C-53.39261569 24.22532143 -49.29741941 13.6039021 -43 3 C-40.69 3.33 -38.38 3.66 -36 4 C-35.5601767 9.27787956 -36.40610808 11.789009 -38.88623047 16.53808594 C-41.13722488 21.51376056 -42.32613447 26.85156228 -43.6875 32.125 C-43.99494141 33.27871094 -44.30238281 34.43242188 -44.61914062 35.62109375 C-46.49613745 42.74300293 -48.15280898 49.46966332 -48.0625 56.875 C-48.04896484 58.32519531 -48.04896484 58.32519531 -48.03515625 59.8046875 C-48.02355469 60.52914062 -48.01195312 61.25359375 -48 62 C-34.81578248 58.97585353 -29.6929902 51.73472214 -22 41 C-21.35546875 40.16082031 -20.7109375 39.32164063 -20.046875 38.45703125 C-16.04002454 33.11746748 -13.69368981 27.9391556 -11.4609375 21.66796875 C-9.67774185 17.190908 -7.51999204 12.99632001 -5.25 8.75 C-4.84861816 7.998396 -4.44723633 7.24679199 -4.03369141 6.47241211 C-1.15976985 1.15976985 -1.15976985 1.15976985 0 0 Z " fill="#000000" transform="translate(233,61)"/>
<path d="M0 0 C-1.86760741 5.69909065 -3.85991753 11.35177629 -5.875 17 C-6.21402344 17.97195312 -6.55304688 18.94390625 -6.90234375 19.9453125 C-9.8921988 28.2896228 -13.35165001 35.06135115 -21 40 C-29.6151315 43.75243085 -37.15236131 43.9154048 -46.01953125 40.94921875 C-48.2450476 39.88255115 -49.5598931 39.01423589 -51 37 C-50.79931641 35.04077148 -50.79931641 35.04077148 -50 33 C-48.42456055 31.75488281 -48.42456055 31.75488281 -46.38671875 30.703125 C-45.63825684 30.30528809 -44.88979492 29.90745117 -44.11865234 29.49755859 C-43.31637207 29.08586426 -42.5140918 28.67416992 -41.6875 28.25 C-34.12887376 24.22785455 -27.01485823 19.92415538 -20 15 C-22.18495692 15.9821871 -24.36980286 16.96461899 -26.55444336 17.94750977 C-28.39718265 18.77598395 -30.24044738 19.60329039 -32.08422852 20.42944336 C-37.69823917 22.94830166 -43.28101403 25.51805794 -48.80859375 28.22265625 C-51.32082333 29.11380364 -53.35368274 29.14468401 -56 29 C-56.55532189 22.28677532 -56.5387578 17.28672904 -52.48828125 11.71875 C-47.6775147 6.1630091 -42.86653672 3.43127474 -35.46069336 2.60522461 C-33.5446228 2.50479858 -33.5446228 2.50479858 -31.58984375 2.40234375 C-30.89991837 2.36315323 -30.20999298 2.32396271 -29.49916077 2.28358459 C-27.31228368 2.16044757 -25.12503446 2.04828874 -22.9375 1.9375 C-20.74653238 1.8215005 -18.55574809 1.70308607 -16.36512756 1.58070374 C-14.38032887 1.47055883 -12.39512609 1.36776832 -10.40991211 1.26538086 C-6.90982745 0.9929822 -3.4893482 0 0 0 Z " fill="#4AA948" transform="translate(436,21)"/>
<path d="M0 0 C4.09550274 2.08498321 6.3008496 3.75977783 8 8 C8.63529958 12.05254261 8.90563196 16.1662824 7.0546875 19.9140625 C4.53022204 23.13712218 1.99025491 25.16483037 -2 26 C-8.52995315 25.89634995 -11.40222493 24.59777507 -16 20 C-17.84467846 16.31064308 -17.35009552 12.03564658 -17 8 C-15.70483047 4.79615959 -14.48002642 3.4094343 -11.875 1.1875 C-7.83576852 -0.48087822 -4.30870276 -0.69030273 0 0 Z M-8 4 C-8 4.33 -8 4.66 -8 5 C-5.36 5.66 -2.72 6.32 0 7 C0 10 0 13 0 16 C0.33 16.66 0.66 17.32 1 18 C1.99 17.67 2.98 17.34 4 17 C5.16213014 12.93254452 5.26233416 11.47943829 3.1875 7.6875 C1.28130489 4.96924803 1.28130489 4.96924803 -1 4 C-3.3329866 3.95977609 -5.66706666 3.95679753 -8 4 Z M-12 7 C-13.83695434 11.33927969 -13.83695434 11.33927969 -13.125 15.875 C-12.75375 16.57625 -12.3825 17.2775 -12 18 C-11.67 18 -11.34 18 -11 18 C-11 14.37 -11 10.74 -11 7 C-11.33 7 -11.66 7 -12 7 Z M-7 9 C-7 9.66 -7 10.32 -7 11 C-5.68 11 -4.36 11 -3 11 C-3 10.34 -3 9.68 -3 9 C-4.32 9 -5.64 9 -7 9 Z M-7 15 C-7 16.65 -7 18.3 -7 20 C-7.99 20.495 -7.99 20.495 -9 21 C-5.59679066 21.67673447 -5.59679066 21.67673447 -2 22 C-1.34 21.34 -0.68 20.68 0 20 C-1.62339805 18.29115995 -3.29319053 16.62553283 -5 15 C-5.66 15 -6.32 15 -7 15 Z " fill="#000000" transform="translate(515,6)"/>
</svg>
