<svg width="18" height="32" viewBox="0 0 18 32" fill="none" xmlns="http://www.w3.org/2000/svg">
<path d="M17.9761 8.53714C17.9761 3.84076 13.948 0 8.99806 0C4.04813 0 0 3.82175 0 8.53714V23.4629C0 28.1592 4.02809 32 8.99806 32C13.948 32 17.9961 28.1783 17.9961 23.4629C18.0562 21.8467 17.415 20.3066 16.2326 19.1468L12.9059 15.9905L16.2526 12.8152C17.435 11.6173 18.0162 10.1153 17.9761 8.53714ZM1.60322 8.70826C1.60322 5.01961 4.52909 1.82531 8.41689 1.52109C10.3207 1.388 12.0642 1.93939 13.447 2.9281C12.966 2.81402 12.465 2.75698 11.944 2.75698C8.65738 2.75698 5.85175 5.09566 5.55114 8.09982C5.5311 8.25193 5.5311 8.40404 5.5311 8.57516C5.51106 9.90612 6.03211 11.2371 6.974 12.3209L5.73151 13.4997L1.82366 17.2074C1.7435 17.2834 1.68338 17.3595 1.62326 17.4355V8.70826H1.60322ZM15.0702 20.1925C16.0923 21.1812 16.5532 22.5502 16.3328 23.9382C16.0121 26.0677 13.968 27.6839 11.5833 27.6839C9.83975 27.6839 8.27661 26.7712 7.59525 25.3452C6.81368 23.71 6.99404 21.9418 8.05617 20.6298L9.59927 22.0939C10.2806 22.7594 10.7215 23.596 10.8618 24.5086C10.9219 24.8889 11.2426 25.1741 11.6434 25.1741C12.1243 25.1741 12.5051 24.7748 12.445 24.3375C12.2646 23.1016 11.6634 21.9608 10.7215 21.0481L9.1183 19.527C9.87983 18.8045 11.0422 17.7017 11.7235 17.0553L15.0702 20.1925ZM11.2025 15.4201C11.1824 15.4391 11.1824 15.4391 7.2746 19.1468C5.4309 20.9531 4.99002 23.5579 6.13231 25.9727C7.0742 27.9311 9.19846 29.205 11.5833 29.205C12.3247 29.205 13.0462 29.0719 13.7276 28.8627C12.3448 29.9465 10.5412 30.574 8.59726 30.4789C4.62929 30.2888 1.60322 27.0374 1.60322 23.2917V21.3333C1.60322 20.1735 2.10422 19.0897 2.94591 18.2721L4.08821 17.1884L10.7616 10.8568C11.7035 9.94415 12.2847 8.80333 12.465 7.56744C12.5251 7.11111 12.1444 6.73084 11.6634 6.73084C11.2626 6.73084 10.942 7.01604 10.8818 7.39632C10.7416 8.30897 10.3007 9.14557 9.61931 9.81105L8.11629 11.2371C7.475 10.4575 7.11428 9.50683 7.13432 8.59418C7.13432 8.48009 7.13432 8.36601 7.15436 8.23292C7.3748 6.00832 9.49907 4.25906 11.964 4.25906C13.6875 4.25906 15.2306 5.17172 15.9119 6.57873C16.7937 8.40404 16.4931 10.3815 15.1103 11.7314L11.2025 15.4201Z" fill="#AA0082"/>
</svg>
