<svg width="1120" height="554" viewBox="0 0 1120 554" fill="none" xmlns="http://www.w3.org/2000/svg">
<path d="M240.431 272.85C238.59 273.166 237.013 273.599 235.699 274.15C234.386 274.7 233.359 275.499 232.618 276.547C231.825 277.604 231.327 278.962 231.125 280.621C230.922 282.281 231.038 284.373 231.471 286.898L237.987 324.85C238.665 328.796 239.627 332.665 240.874 336.458C242.068 340.26 243.678 343.802 245.703 347.082C247.729 350.363 250.261 353.285 253.301 355.85C256.297 358.477 259.957 360.556 264.282 362.088C268.606 363.62 273.639 364.543 279.379 364.857C285.119 365.171 291.723 364.687 299.193 363.404C307.977 361.896 315.461 359.907 321.644 357.438C327.783 355.03 332.889 352.285 336.963 349.203C341.046 346.173 344.21 342.841 346.456 339.206C348.659 335.633 350.238 331.896 351.192 327.996C352.104 324.157 352.488 320.246 352.346 316.263C352.213 312.333 351.816 308.448 351.157 304.608L344.776 267.444C344.343 264.919 343.754 262.908 343.01 261.412C342.265 259.915 341.369 258.796 340.321 258.055C339.274 257.315 338.039 256.904 336.617 256.823C335.195 256.742 333.564 256.86 331.723 257.176L240.431 272.85ZM298.94 351.995C292.417 353.114 286.383 353.609 280.837 353.478C275.29 353.347 270.43 352.476 266.254 350.864C262.078 349.253 258.636 346.865 255.926 343.702C253.226 340.592 251.43 336.595 250.537 331.712L341.829 316.038C342.616 320.939 342.076 325.364 340.209 329.313C338.289 333.271 335.362 336.725 331.428 339.674C327.503 342.677 322.764 345.196 317.211 347.233C311.605 349.278 305.515 350.866 298.94 351.995Z" fill="#543A14"/>
<path d="M273.55 251.268C277.758 250.545 281.93 249.45 286.064 247.982C290.146 246.523 293.979 244.565 297.565 242.108C301.15 239.652 304.374 236.661 307.234 233.138C310.086 229.561 312.395 225.347 314.161 220.495C315.866 215.599 316.909 210.005 317.291 203.712C317.663 197.366 317.159 190.169 315.777 182.121C314.404 174.125 312.484 167.199 310.016 161.341C307.548 155.483 304.699 150.556 301.468 146.562C298.175 142.525 294.593 139.322 290.72 136.954C286.848 134.587 282.817 132.869 278.626 131.801C274.426 130.681 270.159 130.114 265.825 130.1C261.437 130.095 257.14 130.454 252.932 131.177C248.723 131.899 244.552 132.994 240.418 134.462C236.283 135.93 232.423 137.893 228.838 140.35C225.243 142.754 222.016 145.718 219.155 149.241C216.294 152.765 214.011 156.975 212.307 161.871C210.593 166.714 209.55 172.308 209.177 178.654C208.805 184.999 209.305 192.17 210.678 200.166C212.05 208.161 213.971 215.088 216.439 220.946C218.906 226.804 221.76 231.756 225 235.803C228.231 239.797 231.788 243.005 235.669 245.425C239.541 247.793 243.577 249.537 247.777 250.657C251.976 251.777 256.27 252.339 260.657 252.344C265.044 252.349 269.342 251.99 273.55 251.268ZM256.126 192.363C257.255 198.938 257.725 204.516 257.537 209.097C257.296 213.687 256.591 217.464 255.421 220.427C254.251 223.389 252.766 225.621 250.965 227.121C249.104 228.578 247.094 229.492 244.938 229.862C242.781 230.232 240.582 230.041 238.341 229.289C236.091 228.484 233.946 226.875 231.908 224.464C229.816 222.061 227.918 218.731 226.212 214.475C224.454 210.228 223.011 204.817 221.882 198.242C220.753 191.667 220.309 186.084 220.55 181.494C220.738 176.913 221.417 173.141 222.587 170.178C223.705 167.224 225.194 165.019 227.056 163.562C228.909 162.053 230.914 161.113 233.07 160.743C235.227 160.372 237.43 160.59 239.681 161.395C241.869 162.156 244.009 163.738 246.1 166.141C248.192 168.544 250.116 171.869 251.874 176.116C253.58 180.372 254.997 185.787 256.126 192.363Z" fill="#543A14"/>
<path d="M384.646 232.196C388.854 231.473 393.026 230.378 397.16 228.91C401.242 227.451 405.075 225.493 408.661 223.036C412.246 220.579 415.47 217.589 418.33 214.065C421.182 210.489 423.491 206.275 425.257 201.423C426.962 196.527 428.005 190.933 428.387 184.64C428.76 178.294 428.255 171.097 426.873 163.049C425.5 155.053 423.58 148.126 421.112 142.268C418.644 136.41 415.795 131.484 412.564 127.49C409.271 123.452 405.689 120.25 401.816 117.882C397.944 115.514 393.913 113.797 389.722 112.729C385.522 111.609 381.255 111.042 376.921 111.028C372.533 111.023 368.236 111.382 364.028 112.104C359.819 112.827 355.648 113.922 351.514 115.39C347.379 116.858 343.52 118.82 339.934 121.277C336.339 123.681 333.112 126.645 330.251 130.169C327.39 133.693 325.108 137.903 323.403 142.798C321.689 147.641 320.646 153.236 320.273 159.582C319.901 165.927 320.401 173.098 321.774 181.093C323.146 189.089 325.067 196.016 327.535 201.874C330.003 207.732 332.857 212.684 336.096 216.731C339.327 220.725 342.884 223.932 346.765 226.353C350.637 228.72 354.673 230.464 358.873 231.584C363.072 232.705 367.366 233.267 371.753 233.272C376.14 233.277 380.438 232.918 384.646 232.196ZM367.222 173.29C368.351 179.866 368.821 185.444 368.633 190.025C368.392 194.615 367.687 198.392 366.517 201.354C365.347 204.317 363.862 206.549 362.061 208.049C360.2 209.506 358.19 210.419 356.034 210.79C353.877 211.16 351.678 210.969 349.437 210.217C347.187 209.412 345.042 207.803 343.004 205.391C340.912 202.989 339.014 199.659 337.308 195.403C335.55 191.156 334.107 185.745 332.978 179.17C331.849 172.594 331.405 167.012 331.646 162.422C331.834 157.84 332.513 154.068 333.683 151.106C334.801 148.152 336.29 145.947 338.152 144.49C340.005 142.98 342.01 142.041 344.166 141.67C346.323 141.3 348.527 141.517 350.777 142.322C352.965 143.084 355.105 144.666 357.196 147.069C359.288 149.471 361.212 152.796 362.97 157.043C364.676 161.299 366.093 166.715 367.222 173.29Z" fill="#543A14"/>
<path d="M145.596 220.098C144.641 218.554 143.663 217.277 142.661 216.265C141.631 215.208 140.491 214.532 139.242 214.237C137.993 213.942 136.562 214.012 134.947 214.445C133.333 214.879 131.436 215.769 129.257 217.117L99.4322 235.557C97.344 236.849 95.7907 238.091 94.7722 239.286C93.6803 240.463 93.0097 241.662 92.7606 242.883C92.5114 244.104 92.6382 245.374 93.141 246.695C93.6438 248.016 94.4004 249.493 95.4109 251.127L171.813 374.694C172.767 376.237 173.722 377.529 174.679 378.569C175.608 379.563 176.688 380.245 177.92 380.613C179.123 380.935 180.509 380.894 182.078 380.488C183.574 380.066 185.366 379.209 187.454 377.918L217.279 359.477C219.458 358.129 221.102 356.83 222.211 355.58C223.321 354.329 224.022 353.08 224.317 351.831C224.612 350.582 224.53 349.283 224.073 347.934C223.615 346.586 222.895 345.117 221.913 343.528L145.596 220.098Z" fill="#543A14"/>
<rect width="10.2474" height="151.97" rx="5.12371" transform="matrix(-0.847868 0.530208 0.530208 0.847868 110.035 239.484)" fill="#FFD15C"/>
<circle cx="27.3265" cy="27.3265" r="27.3265" transform="matrix(-0.985579 0.169216 0.169216 0.985579 117.339 164.016)" fill="#543A14"/>
<path d="M77.1986 210.572C81.5337 216.023 87.1725 218.752 89.7933 216.668C92.4141 214.584 91.0243 208.475 86.6893 203.024C82.3542 197.573 76.7154 194.844 74.0946 196.928C71.4738 199.012 72.8635 205.121 77.1986 210.572Z" fill="#FFD15C"/>
<ellipse cx="20.9035" cy="35.8345" rx="20.9035" ry="35.8345" transform="matrix(-0.985579 0.169216 0.169216 0.985579 251.944 157.055)" fill="#FFD15C"/>
<ellipse cx="20.9035" cy="35.8345" rx="20.9035" ry="35.8345" transform="matrix(-0.985579 0.169216 0.169216 0.985579 365.745 137.518)" fill="#FFD15C"/>
<path d="M249.645 331.735C249.683 332.063 249.729 332.392 249.785 332.72C252.483 348.433 275.314 357.627 300.779 353.254C326.245 348.882 344.701 332.6 342.003 316.887C341.947 316.559 341.881 316.234 341.807 315.911L249.645 331.735Z" fill="#FFD15C"/>
<path d="M249.549 331.184C249.587 331.513 249.634 331.841 249.69 332.169C252.388 347.882 275.218 357.075 300.684 352.703C326.149 348.331 344.606 332.049 341.909 316.336C341.852 316.008 341.787 315.683 341.713 315.36L249.549 331.184Z" fill="#FFD15C"/>
<mask id="path-12-outside-1_9652_131546" maskUnits="userSpaceOnUse" x="373" y="251" width="396" height="126" fill="black">
<rect fill="white" x="373" y="251" width="396" height="126"/>
<path d="M448.791 318.874C448.791 320.633 448.456 322.298 447.786 323.869C447.115 325.419 446.194 326.77 445.021 327.922C443.869 329.074 442.507 329.985 440.937 330.656C439.387 331.326 437.721 331.661 435.941 331.661C434.349 331.661 432.82 331.389 431.354 330.844C429.888 330.278 428.558 329.462 427.364 328.393C426.191 329.462 424.872 330.278 423.405 330.844C421.96 331.389 420.431 331.661 418.818 331.661C417.038 331.661 415.373 331.326 413.823 330.656C412.273 329.985 410.912 329.074 409.739 327.922C408.587 326.77 407.675 325.419 407.005 323.869C406.335 322.298 406 320.633 406 318.874V297.447H414.577V318.874C414.577 319.46 414.682 320.015 414.891 320.539C415.122 321.042 415.425 321.492 415.802 321.89C416.2 322.267 416.651 322.571 417.153 322.801C417.677 323.01 418.232 323.115 418.818 323.115C419.405 323.115 419.96 323.01 420.484 322.801C421.007 322.571 421.468 322.267 421.866 321.89C422.264 321.492 422.568 321.042 422.777 320.539C423.007 320.015 423.123 319.46 423.123 318.874V297.447H431.668V318.874C431.668 319.46 431.783 320.015 432.014 320.539C432.244 321.042 432.548 321.492 432.925 321.89C433.323 322.267 433.773 322.571 434.276 322.801C434.8 323.01 435.355 323.115 435.941 323.115C436.528 323.115 437.083 323.01 437.606 322.801C438.13 322.571 438.58 322.267 438.957 321.89C439.355 321.492 439.669 321.042 439.9 320.539C440.13 320.015 440.245 319.46 440.245 318.874V297.447H448.791V318.874Z"/>
<path d="M468.396 322.801C468.731 322.906 469.066 322.979 469.401 323.021C469.736 323.042 470.071 323.052 470.406 323.052C471.244 323.052 472.051 322.937 472.826 322.707C473.601 322.476 474.323 322.152 474.993 321.733C475.685 321.293 476.292 320.769 476.816 320.162C477.36 319.534 477.8 318.842 478.135 318.088L484.419 324.403C483.623 325.534 482.701 326.55 481.654 327.451C480.628 328.352 479.507 329.116 478.292 329.744C477.098 330.373 475.831 330.844 474.491 331.158C473.171 331.493 471.81 331.661 470.406 331.661C468.04 331.661 465.809 331.221 463.714 330.341C461.641 329.462 459.819 328.236 458.248 326.665C456.698 325.095 455.473 323.23 454.572 321.073C453.671 318.895 453.221 316.507 453.221 313.91C453.221 311.25 453.671 308.82 454.572 306.621C455.473 304.422 456.698 302.547 458.248 300.997C459.819 299.447 461.641 298.243 463.714 297.384C465.809 296.525 468.04 296.096 470.406 296.096C471.81 296.096 473.182 296.263 474.522 296.599C475.863 296.934 477.13 297.415 478.324 298.044C479.539 298.672 480.67 299.447 481.717 300.369C482.764 301.269 483.686 302.285 484.482 303.416L468.396 322.801ZM472.794 305.113C472.396 304.966 471.998 304.872 471.6 304.83C471.223 304.788 470.825 304.767 470.406 304.767C469.234 304.767 468.123 304.987 467.076 305.427C466.05 305.846 465.149 306.453 464.374 307.249C463.62 308.045 463.023 309.009 462.583 310.14C462.144 311.25 461.924 312.506 461.924 313.91C461.924 314.224 461.934 314.58 461.955 314.978C461.997 315.376 462.049 315.784 462.112 316.203C462.196 316.601 462.29 316.989 462.395 317.366C462.5 317.743 462.636 318.078 462.803 318.371L472.794 305.113Z"/>
<path d="M497.457 331.033H488.817V284H497.457V331.033Z"/>
<path d="M533.431 304.076L527.147 310.391C526.833 309.511 526.404 308.726 525.859 308.035C525.314 307.323 524.697 306.726 524.005 306.244C523.335 305.762 522.602 305.396 521.806 305.144C521.01 304.893 520.193 304.767 519.355 304.767C518.183 304.767 517.072 305.008 516.025 305.49C514.999 305.972 514.098 306.652 513.323 307.532C512.569 308.391 511.972 309.417 511.532 310.611C511.093 311.805 510.873 313.124 510.873 314.57C510.873 315.743 511.093 316.842 511.532 317.868C511.972 318.895 512.569 319.795 513.323 320.57C514.098 321.345 514.999 321.953 516.025 322.393C517.072 322.832 518.183 323.052 519.355 323.052C520.193 323.052 521 322.937 521.775 322.707C522.55 322.476 523.272 322.152 523.942 321.733C524.634 321.293 525.241 320.769 525.765 320.162C526.309 319.534 526.749 318.842 527.084 318.088L533.368 324.403C532.572 325.534 531.65 326.55 530.603 327.451C529.577 328.352 528.456 329.116 527.241 329.744C526.047 330.373 524.78 330.844 523.44 331.158C522.12 331.493 520.759 331.661 519.355 331.661C516.989 331.661 514.758 331.221 512.663 330.341C510.59 329.441 508.768 328.215 507.197 326.665C505.647 325.115 504.422 323.304 503.521 321.23C502.62 319.157 502.17 316.936 502.17 314.57C502.17 311.993 502.62 309.585 503.521 307.343C504.422 305.102 505.647 303.154 507.197 301.5C508.768 299.824 510.59 298.505 512.663 297.541C514.758 296.578 516.989 296.096 519.355 296.096C520.759 296.096 522.131 296.274 523.471 296.63C524.833 296.986 526.121 297.51 527.336 298.201C528.571 298.871 529.702 299.698 530.729 300.683C531.776 301.667 532.677 302.798 533.431 304.076Z"/>
<path d="M569.655 313.91C569.655 316.423 569.205 318.769 568.304 320.947C567.404 323.105 566.179 324.979 564.629 326.571C563.079 328.142 561.256 329.388 559.162 330.31C557.088 331.211 554.858 331.661 552.47 331.661C550.103 331.661 547.872 331.211 545.778 330.31C543.704 329.388 541.882 328.142 540.311 326.571C538.761 324.979 537.536 323.105 536.635 320.947C535.735 318.769 535.284 316.423 535.284 313.91C535.284 311.354 535.735 308.988 536.635 306.809C537.536 304.631 538.761 302.756 540.311 301.186C541.882 299.594 543.704 298.347 545.778 297.447C547.872 296.546 550.103 296.096 552.47 296.096C554.858 296.096 557.088 296.525 559.162 297.384C561.256 298.222 563.079 299.426 564.629 300.997C566.179 302.547 567.404 304.422 568.304 306.621C569.205 308.799 569.655 311.229 569.655 313.91ZM561.016 313.91C561.016 312.527 560.785 311.281 560.324 310.171C559.885 309.04 559.277 308.077 558.502 307.281C557.727 306.464 556.816 305.846 555.769 305.427C554.742 304.987 553.643 304.767 552.47 304.767C551.297 304.767 550.187 304.987 549.14 305.427C548.113 305.846 547.213 306.464 546.438 307.281C545.684 308.077 545.087 309.04 544.647 310.171C544.207 311.281 543.987 312.527 543.987 313.91C543.987 315.208 544.207 316.413 544.647 317.523C545.087 318.633 545.684 319.596 546.438 320.413C547.213 321.23 548.113 321.879 549.14 322.361C550.187 322.822 551.297 323.052 552.47 323.052C553.643 323.052 554.742 322.832 555.769 322.393C556.816 321.953 557.727 321.335 558.502 320.539C559.277 319.743 559.885 318.78 560.324 317.649C560.785 316.517 561.016 315.271 561.016 313.91Z"/>
<path d="M617.191 331.033H608.645V309.668C608.645 309.082 608.53 308.527 608.299 308.003C608.09 307.48 607.786 307.019 607.388 306.621C606.99 306.223 606.53 305.919 606.006 305.71C605.482 305.479 604.927 305.364 604.341 305.364C603.754 305.364 603.199 305.479 602.676 305.71C602.173 305.919 601.723 306.223 601.325 306.621C600.948 307.019 600.644 307.48 600.414 308.003C600.204 308.527 600.099 309.082 600.099 309.668V331.033H591.522V309.668C591.522 309.082 591.407 308.527 591.177 308.003C590.967 307.48 590.664 307.019 590.266 306.621C589.868 306.223 589.407 305.919 588.883 305.71C588.36 305.479 587.805 305.364 587.218 305.364C586.632 305.364 586.077 305.479 585.553 305.71C585.05 305.919 584.6 306.223 584.202 306.621C583.825 307.019 583.521 307.48 583.291 308.003C583.081 308.527 582.977 309.082 582.977 309.668V331.033H574.4V297.384H576.473L578.798 299.96C579.992 298.955 581.301 298.18 582.725 297.635C584.171 297.07 585.668 296.787 587.218 296.787C588.789 296.787 590.318 297.08 591.805 297.667C593.313 298.253 594.633 299.269 595.764 300.714C596.287 300.002 596.884 299.395 597.555 298.892C598.225 298.389 598.926 297.981 599.66 297.667C600.414 297.353 601.189 297.133 601.984 297.007C602.78 296.86 603.566 296.787 604.341 296.787C606.121 296.787 607.786 297.122 609.336 297.792C610.907 298.463 612.269 299.384 613.421 300.557C614.593 301.709 615.515 303.071 616.185 304.642C616.856 306.212 617.191 307.888 617.191 309.668V331.033Z"/>
<path d="M636.858 322.801C637.193 322.906 637.528 322.979 637.864 323.021C638.199 323.042 638.534 323.052 638.869 323.052C639.707 323.052 640.513 322.937 641.288 322.707C642.063 322.476 642.786 322.152 643.456 321.733C644.147 321.293 644.755 320.769 645.278 320.162C645.823 319.534 646.263 318.842 646.598 318.088L652.881 324.403C652.085 325.534 651.164 326.55 650.117 327.451C649.09 328.352 647.97 329.116 646.755 329.744C645.561 330.373 644.294 330.844 642.953 331.158C641.634 331.493 640.272 331.661 638.869 331.661C636.502 331.661 634.271 331.221 632.177 330.341C630.103 329.462 628.281 328.236 626.71 326.665C625.16 325.095 623.935 323.23 623.034 321.073C622.134 318.895 621.683 316.507 621.683 313.91C621.683 311.25 622.134 308.82 623.034 306.621C623.935 304.422 625.16 302.547 626.71 300.997C628.281 299.447 630.103 298.243 632.177 297.384C634.271 296.525 636.502 296.096 638.869 296.096C640.272 296.096 641.644 296.263 642.985 296.599C644.325 296.934 645.592 297.415 646.786 298.044C648.001 298.672 649.132 299.447 650.179 300.369C651.227 301.269 652.148 302.285 652.944 303.416L636.858 322.801ZM641.257 305.113C640.859 304.966 640.461 304.872 640.063 304.83C639.686 304.788 639.288 304.767 638.869 304.767C637.696 304.767 636.586 304.987 635.539 305.427C634.512 305.846 633.612 306.453 632.837 307.249C632.083 308.045 631.486 309.009 631.046 310.14C630.606 311.25 630.386 312.506 630.386 313.91C630.386 314.224 630.397 314.58 630.418 314.978C630.459 315.376 630.512 315.784 630.575 316.203C630.658 316.601 630.753 316.989 630.857 317.366C630.962 317.743 631.098 318.078 631.266 318.371L641.257 305.113Z"/>
<path d="M692.185 331.033C690.112 331.033 688.164 330.645 686.341 329.87C684.519 329.074 682.917 327.995 681.534 326.634C680.173 325.252 679.094 323.649 678.298 321.827C677.523 320.005 677.136 318.057 677.136 315.983V305.992H672.957V297.447H677.136V284H685.682V297.447H698.689V305.992H685.682V315.983C685.682 316.884 685.849 317.732 686.184 318.528C686.519 319.303 686.98 319.984 687.567 320.57C688.153 321.157 688.844 321.628 689.64 321.984C690.436 322.319 691.284 322.487 692.185 322.487H698.689V331.033H692.185Z"/>
<path d="M736.044 313.91C736.044 316.423 735.594 318.769 734.693 320.947C733.793 323.105 732.567 324.979 731.018 326.571C729.468 328.142 727.645 329.388 725.551 330.31C723.477 331.211 721.247 331.661 718.859 331.661C716.492 331.661 714.261 331.211 712.167 330.31C710.093 329.388 708.271 328.142 706.7 326.571C705.15 324.979 703.925 323.105 703.024 320.947C702.124 318.769 701.673 316.423 701.673 313.91C701.673 311.354 702.124 308.988 703.024 306.809C703.925 304.631 705.15 302.756 706.7 301.186C708.271 299.594 710.093 298.347 712.167 297.447C714.261 296.546 716.492 296.096 718.859 296.096C721.247 296.096 723.477 296.525 725.551 297.384C727.645 298.222 729.468 299.426 731.018 300.997C732.567 302.547 733.793 304.422 734.693 306.621C735.594 308.799 736.044 311.229 736.044 313.91ZM727.404 313.91C727.404 312.527 727.174 311.281 726.713 310.171C726.273 309.04 725.666 308.077 724.891 307.281C724.116 306.464 723.205 305.846 722.158 305.427C721.131 304.987 720.032 304.767 718.859 304.767C717.686 304.767 716.576 304.987 715.529 305.427C714.502 305.846 713.602 306.464 712.827 307.281C712.073 308.077 711.476 309.04 711.036 310.171C710.596 311.281 710.376 312.527 710.376 313.91C710.376 315.208 710.596 316.413 711.036 317.523C711.476 318.633 712.073 319.596 712.827 320.413C713.602 321.23 714.502 321.879 715.529 322.361C716.576 322.822 717.686 323.052 718.859 323.052C720.032 323.052 721.131 322.832 722.158 322.393C723.205 321.953 724.116 321.335 724.891 320.539C725.666 319.743 726.273 318.78 726.713 317.649C727.174 316.517 727.404 315.271 727.404 313.91Z"/>
</mask>
<path d="M448.791 318.874C448.791 320.633 448.456 322.298 447.786 323.869C447.115 325.419 446.194 326.77 445.021 327.922C443.869 329.074 442.507 329.985 440.937 330.656C439.387 331.326 437.721 331.661 435.941 331.661C434.349 331.661 432.82 331.389 431.354 330.844C429.888 330.278 428.558 329.462 427.364 328.393C426.191 329.462 424.872 330.278 423.405 330.844C421.96 331.389 420.431 331.661 418.818 331.661C417.038 331.661 415.373 331.326 413.823 330.656C412.273 329.985 410.912 329.074 409.739 327.922C408.587 326.77 407.675 325.419 407.005 323.869C406.335 322.298 406 320.633 406 318.874V297.447H414.577V318.874C414.577 319.46 414.682 320.015 414.891 320.539C415.122 321.042 415.425 321.492 415.802 321.89C416.2 322.267 416.651 322.571 417.153 322.801C417.677 323.01 418.232 323.115 418.818 323.115C419.405 323.115 419.96 323.01 420.484 322.801C421.007 322.571 421.468 322.267 421.866 321.89C422.264 321.492 422.568 321.042 422.777 320.539C423.007 320.015 423.123 319.46 423.123 318.874V297.447H431.668V318.874C431.668 319.46 431.783 320.015 432.014 320.539C432.244 321.042 432.548 321.492 432.925 321.89C433.323 322.267 433.773 322.571 434.276 322.801C434.8 323.01 435.355 323.115 435.941 323.115C436.528 323.115 437.083 323.01 437.606 322.801C438.13 322.571 438.58 322.267 438.957 321.89C439.355 321.492 439.669 321.042 439.9 320.539C440.13 320.015 440.245 319.46 440.245 318.874V297.447H448.791V318.874Z" fill="#8BC34A"/>
<path d="M468.396 322.801C468.731 322.906 469.066 322.979 469.401 323.021C469.736 323.042 470.071 323.052 470.406 323.052C471.244 323.052 472.051 322.937 472.826 322.707C473.601 322.476 474.323 322.152 474.993 321.733C475.685 321.293 476.292 320.769 476.816 320.162C477.36 319.534 477.8 318.842 478.135 318.088L484.419 324.403C483.623 325.534 482.701 326.55 481.654 327.451C480.628 328.352 479.507 329.116 478.292 329.744C477.098 330.373 475.831 330.844 474.491 331.158C473.171 331.493 471.81 331.661 470.406 331.661C468.04 331.661 465.809 331.221 463.714 330.341C461.641 329.462 459.819 328.236 458.248 326.665C456.698 325.095 455.473 323.23 454.572 321.073C453.671 318.895 453.221 316.507 453.221 313.91C453.221 311.25 453.671 308.82 454.572 306.621C455.473 304.422 456.698 302.547 458.248 300.997C459.819 299.447 461.641 298.243 463.714 297.384C465.809 296.525 468.04 296.096 470.406 296.096C471.81 296.096 473.182 296.263 474.522 296.599C475.863 296.934 477.13 297.415 478.324 298.044C479.539 298.672 480.67 299.447 481.717 300.369C482.764 301.269 483.686 302.285 484.482 303.416L468.396 322.801ZM472.794 305.113C472.396 304.966 471.998 304.872 471.6 304.83C471.223 304.788 470.825 304.767 470.406 304.767C469.234 304.767 468.123 304.987 467.076 305.427C466.05 305.846 465.149 306.453 464.374 307.249C463.62 308.045 463.023 309.009 462.583 310.14C462.144 311.25 461.924 312.506 461.924 313.91C461.924 314.224 461.934 314.58 461.955 314.978C461.997 315.376 462.049 315.784 462.112 316.203C462.196 316.601 462.29 316.989 462.395 317.366C462.5 317.743 462.636 318.078 462.803 318.371L472.794 305.113Z" fill="#8BC34A"/>
<path d="M497.457 331.033H488.817V284H497.457V331.033Z" fill="#8BC34A"/>
<path d="M533.431 304.076L527.147 310.391C526.833 309.511 526.404 308.726 525.859 308.035C525.314 307.323 524.697 306.726 524.005 306.244C523.335 305.762 522.602 305.396 521.806 305.144C521.01 304.893 520.193 304.767 519.355 304.767C518.183 304.767 517.072 305.008 516.025 305.49C514.999 305.972 514.098 306.652 513.323 307.532C512.569 308.391 511.972 309.417 511.532 310.611C511.093 311.805 510.873 313.124 510.873 314.57C510.873 315.743 511.093 316.842 511.532 317.868C511.972 318.895 512.569 319.795 513.323 320.57C514.098 321.345 514.999 321.953 516.025 322.393C517.072 322.832 518.183 323.052 519.355 323.052C520.193 323.052 521 322.937 521.775 322.707C522.55 322.476 523.272 322.152 523.942 321.733C524.634 321.293 525.241 320.769 525.765 320.162C526.309 319.534 526.749 318.842 527.084 318.088L533.368 324.403C532.572 325.534 531.65 326.55 530.603 327.451C529.577 328.352 528.456 329.116 527.241 329.744C526.047 330.373 524.78 330.844 523.44 331.158C522.12 331.493 520.759 331.661 519.355 331.661C516.989 331.661 514.758 331.221 512.663 330.341C510.59 329.441 508.768 328.215 507.197 326.665C505.647 325.115 504.422 323.304 503.521 321.23C502.62 319.157 502.17 316.936 502.17 314.57C502.17 311.993 502.62 309.585 503.521 307.343C504.422 305.102 505.647 303.154 507.197 301.5C508.768 299.824 510.59 298.505 512.663 297.541C514.758 296.578 516.989 296.096 519.355 296.096C520.759 296.096 522.131 296.274 523.471 296.63C524.833 296.986 526.121 297.51 527.336 298.201C528.571 298.871 529.702 299.698 530.729 300.683C531.776 301.667 532.677 302.798 533.431 304.076Z" fill="#8BC34A"/>
<path d="M569.655 313.91C569.655 316.423 569.205 318.769 568.304 320.947C567.404 323.105 566.179 324.979 564.629 326.571C563.079 328.142 561.256 329.388 559.162 330.31C557.088 331.211 554.858 331.661 552.47 331.661C550.103 331.661 547.872 331.211 545.778 330.31C543.704 329.388 541.882 328.142 540.311 326.571C538.761 324.979 537.536 323.105 536.635 320.947C535.735 318.769 535.284 316.423 535.284 313.91C535.284 311.354 535.735 308.988 536.635 306.809C537.536 304.631 538.761 302.756 540.311 301.186C541.882 299.594 543.704 298.347 545.778 297.447C547.872 296.546 550.103 296.096 552.47 296.096C554.858 296.096 557.088 296.525 559.162 297.384C561.256 298.222 563.079 299.426 564.629 300.997C566.179 302.547 567.404 304.422 568.304 306.621C569.205 308.799 569.655 311.229 569.655 313.91ZM561.016 313.91C561.016 312.527 560.785 311.281 560.324 310.171C559.885 309.04 559.277 308.077 558.502 307.281C557.727 306.464 556.816 305.846 555.769 305.427C554.742 304.987 553.643 304.767 552.47 304.767C551.297 304.767 550.187 304.987 549.14 305.427C548.113 305.846 547.213 306.464 546.438 307.281C545.684 308.077 545.087 309.04 544.647 310.171C544.207 311.281 543.987 312.527 543.987 313.91C543.987 315.208 544.207 316.413 544.647 317.523C545.087 318.633 545.684 319.596 546.438 320.413C547.213 321.23 548.113 321.879 549.14 322.361C550.187 322.822 551.297 323.052 552.47 323.052C553.643 323.052 554.742 322.832 555.769 322.393C556.816 321.953 557.727 321.335 558.502 320.539C559.277 319.743 559.885 318.78 560.324 317.649C560.785 316.517 561.016 315.271 561.016 313.91Z" fill="#8BC34A"/>
<path d="M617.191 331.033H608.645V309.668C608.645 309.082 608.53 308.527 608.299 308.003C608.09 307.48 607.786 307.019 607.388 306.621C606.99 306.223 606.53 305.919 606.006 305.71C605.482 305.479 604.927 305.364 604.341 305.364C603.754 305.364 603.199 305.479 602.676 305.71C602.173 305.919 601.723 306.223 601.325 306.621C600.948 307.019 600.644 307.48 600.414 308.003C600.204 308.527 600.099 309.082 600.099 309.668V331.033H591.522V309.668C591.522 309.082 591.407 308.527 591.177 308.003C590.967 307.48 590.664 307.019 590.266 306.621C589.868 306.223 589.407 305.919 588.883 305.71C588.36 305.479 587.805 305.364 587.218 305.364C586.632 305.364 586.077 305.479 585.553 305.71C585.05 305.919 584.6 306.223 584.202 306.621C583.825 307.019 583.521 307.48 583.291 308.003C583.081 308.527 582.977 309.082 582.977 309.668V331.033H574.4V297.384H576.473L578.798 299.96C579.992 298.955 581.301 298.18 582.725 297.635C584.171 297.07 585.668 296.787 587.218 296.787C588.789 296.787 590.318 297.08 591.805 297.667C593.313 298.253 594.633 299.269 595.764 300.714C596.287 300.002 596.884 299.395 597.555 298.892C598.225 298.389 598.926 297.981 599.66 297.667C600.414 297.353 601.189 297.133 601.984 297.007C602.78 296.86 603.566 296.787 604.341 296.787C606.121 296.787 607.786 297.122 609.336 297.792C610.907 298.463 612.269 299.384 613.421 300.557C614.593 301.709 615.515 303.071 616.185 304.642C616.856 306.212 617.191 307.888 617.191 309.668V331.033Z" fill="#8BC34A"/>
<path d="M636.858 322.801C637.193 322.906 637.528 322.979 637.864 323.021C638.199 323.042 638.534 323.052 638.869 323.052C639.707 323.052 640.513 322.937 641.288 322.707C642.063 322.476 642.786 322.152 643.456 321.733C644.147 321.293 644.755 320.769 645.278 320.162C645.823 319.534 646.263 318.842 646.598 318.088L652.881 324.403C652.085 325.534 651.164 326.55 650.117 327.451C649.09 328.352 647.97 329.116 646.755 329.744C645.561 330.373 644.294 330.844 642.953 331.158C641.634 331.493 640.272 331.661 638.869 331.661C636.502 331.661 634.271 331.221 632.177 330.341C630.103 329.462 628.281 328.236 626.71 326.665C625.16 325.095 623.935 323.23 623.034 321.073C622.134 318.895 621.683 316.507 621.683 313.91C621.683 311.25 622.134 308.82 623.034 306.621C623.935 304.422 625.16 302.547 626.71 300.997C628.281 299.447 630.103 298.243 632.177 297.384C634.271 296.525 636.502 296.096 638.869 296.096C640.272 296.096 641.644 296.263 642.985 296.599C644.325 296.934 645.592 297.415 646.786 298.044C648.001 298.672 649.132 299.447 650.179 300.369C651.227 301.269 652.148 302.285 652.944 303.416L636.858 322.801ZM641.257 305.113C640.859 304.966 640.461 304.872 640.063 304.83C639.686 304.788 639.288 304.767 638.869 304.767C637.696 304.767 636.586 304.987 635.539 305.427C634.512 305.846 633.612 306.453 632.837 307.249C632.083 308.045 631.486 309.009 631.046 310.14C630.606 311.25 630.386 312.506 630.386 313.91C630.386 314.224 630.397 314.58 630.418 314.978C630.459 315.376 630.512 315.784 630.575 316.203C630.658 316.601 630.753 316.989 630.857 317.366C630.962 317.743 631.098 318.078 631.266 318.371L641.257 305.113Z" fill="#8BC34A"/>
<path d="M692.185 331.033C690.112 331.033 688.164 330.645 686.341 329.87C684.519 329.074 682.917 327.995 681.534 326.634C680.173 325.252 679.094 323.649 678.298 321.827C677.523 320.005 677.136 318.057 677.136 315.983V305.992H672.957V297.447H677.136V284H685.682V297.447H698.689V305.992H685.682V315.983C685.682 316.884 685.849 317.732 686.184 318.528C686.519 319.303 686.98 319.984 687.567 320.57C688.153 321.157 688.844 321.628 689.64 321.984C690.436 322.319 691.284 322.487 692.185 322.487H698.689V331.033H692.185Z" fill="#8BC34A"/>
<path d="M736.044 313.91C736.044 316.423 735.594 318.769 734.693 320.947C733.793 323.105 732.567 324.979 731.018 326.571C729.468 328.142 727.645 329.388 725.551 330.31C723.477 331.211 721.247 331.661 718.859 331.661C716.492 331.661 714.261 331.211 712.167 330.31C710.093 329.388 708.271 328.142 706.7 326.571C705.15 324.979 703.925 323.105 703.024 320.947C702.124 318.769 701.673 316.423 701.673 313.91C701.673 311.354 702.124 308.988 703.024 306.809C703.925 304.631 705.15 302.756 706.7 301.186C708.271 299.594 710.093 298.347 712.167 297.447C714.261 296.546 716.492 296.096 718.859 296.096C721.247 296.096 723.477 296.525 725.551 297.384C727.645 298.222 729.468 299.426 731.018 300.997C732.567 302.547 733.793 304.422 734.693 306.621C735.594 308.799 736.044 311.229 736.044 313.91ZM727.404 313.91C727.404 312.527 727.174 311.281 726.713 310.171C726.273 309.04 725.666 308.077 724.891 307.281C724.116 306.464 723.205 305.846 722.158 305.427C721.131 304.987 720.032 304.767 718.859 304.767C717.686 304.767 716.576 304.987 715.529 305.427C714.502 305.846 713.602 306.464 712.827 307.281C712.073 308.077 711.476 309.04 711.036 310.171C710.596 311.281 710.376 312.527 710.376 313.91C710.376 315.208 710.596 316.413 711.036 317.523C711.476 318.633 712.073 319.596 712.827 320.413C713.602 321.23 714.502 321.879 715.529 322.361C716.576 322.822 717.686 323.052 718.859 323.052C720.032 323.052 721.131 322.832 722.158 322.393C723.205 321.953 724.116 321.335 724.891 320.539C725.666 319.743 726.273 318.78 726.713 317.649C727.174 316.517 727.404 315.271 727.404 313.91Z" fill="#8BC34A"/>
<path d="M448.791 318.874C448.791 320.633 448.456 322.298 447.786 323.869C447.115 325.419 446.194 326.77 445.021 327.922C443.869 329.074 442.507 329.985 440.937 330.656C439.387 331.326 437.721 331.661 435.941 331.661C434.349 331.661 432.82 331.389 431.354 330.844C429.888 330.278 428.558 329.462 427.364 328.393C426.191 329.462 424.872 330.278 423.405 330.844C421.96 331.389 420.431 331.661 418.818 331.661C417.038 331.661 415.373 331.326 413.823 330.656C412.273 329.985 410.912 329.074 409.739 327.922C408.587 326.77 407.675 325.419 407.005 323.869C406.335 322.298 406 320.633 406 318.874V297.447H414.577V318.874C414.577 319.46 414.682 320.015 414.891 320.539C415.122 321.042 415.425 321.492 415.802 321.89C416.2 322.267 416.651 322.571 417.153 322.801C417.677 323.01 418.232 323.115 418.818 323.115C419.405 323.115 419.96 323.01 420.484 322.801C421.007 322.571 421.468 322.267 421.866 321.89C422.264 321.492 422.568 321.042 422.777 320.539C423.007 320.015 423.123 319.46 423.123 318.874V297.447H431.668V318.874C431.668 319.46 431.783 320.015 432.014 320.539C432.244 321.042 432.548 321.492 432.925 321.89C433.323 322.267 433.773 322.571 434.276 322.801C434.8 323.01 435.355 323.115 435.941 323.115C436.528 323.115 437.083 323.01 437.606 322.801C438.13 322.571 438.58 322.267 438.957 321.89C439.355 321.492 439.669 321.042 439.9 320.539C440.13 320.015 440.245 319.46 440.245 318.874V297.447H448.791V318.874Z" stroke="#543A14" stroke-width="64.3438" mask="url(#path-12-outside-1_9652_131546)"/>
<path d="M468.396 322.801C468.731 322.906 469.066 322.979 469.401 323.021C469.736 323.042 470.071 323.052 470.406 323.052C471.244 323.052 472.051 322.937 472.826 322.707C473.601 322.476 474.323 322.152 474.993 321.733C475.685 321.293 476.292 320.769 476.816 320.162C477.36 319.534 477.8 318.842 478.135 318.088L484.419 324.403C483.623 325.534 482.701 326.55 481.654 327.451C480.628 328.352 479.507 329.116 478.292 329.744C477.098 330.373 475.831 330.844 474.491 331.158C473.171 331.493 471.81 331.661 470.406 331.661C468.04 331.661 465.809 331.221 463.714 330.341C461.641 329.462 459.819 328.236 458.248 326.665C456.698 325.095 455.473 323.23 454.572 321.073C453.671 318.895 453.221 316.507 453.221 313.91C453.221 311.25 453.671 308.82 454.572 306.621C455.473 304.422 456.698 302.547 458.248 300.997C459.819 299.447 461.641 298.243 463.714 297.384C465.809 296.525 468.04 296.096 470.406 296.096C471.81 296.096 473.182 296.263 474.522 296.599C475.863 296.934 477.13 297.415 478.324 298.044C479.539 298.672 480.67 299.447 481.717 300.369C482.764 301.269 483.686 302.285 484.482 303.416L468.396 322.801ZM472.794 305.113C472.396 304.966 471.998 304.872 471.6 304.83C471.223 304.788 470.825 304.767 470.406 304.767C469.234 304.767 468.123 304.987 467.076 305.427C466.05 305.846 465.149 306.453 464.374 307.249C463.62 308.045 463.023 309.009 462.583 310.14C462.144 311.25 461.924 312.506 461.924 313.91C461.924 314.224 461.934 314.58 461.955 314.978C461.997 315.376 462.049 315.784 462.112 316.203C462.196 316.601 462.29 316.989 462.395 317.366C462.5 317.743 462.636 318.078 462.803 318.371L472.794 305.113Z" stroke="#543A14" stroke-width="64.3438" mask="url(#path-12-outside-1_9652_131546)"/>
<path d="M497.457 331.033H488.817V284H497.457V331.033Z" stroke="#543A14" stroke-width="64.3438" mask="url(#path-12-outside-1_9652_131546)"/>
<path d="M533.431 304.076L527.147 310.391C526.833 309.511 526.404 308.726 525.859 308.035C525.314 307.323 524.697 306.726 524.005 306.244C523.335 305.762 522.602 305.396 521.806 305.144C521.01 304.893 520.193 304.767 519.355 304.767C518.183 304.767 517.072 305.008 516.025 305.49C514.999 305.972 514.098 306.652 513.323 307.532C512.569 308.391 511.972 309.417 511.532 310.611C511.093 311.805 510.873 313.124 510.873 314.57C510.873 315.743 511.093 316.842 511.532 317.868C511.972 318.895 512.569 319.795 513.323 320.57C514.098 321.345 514.999 321.953 516.025 322.393C517.072 322.832 518.183 323.052 519.355 323.052C520.193 323.052 521 322.937 521.775 322.707C522.55 322.476 523.272 322.152 523.942 321.733C524.634 321.293 525.241 320.769 525.765 320.162C526.309 319.534 526.749 318.842 527.084 318.088L533.368 324.403C532.572 325.534 531.65 326.55 530.603 327.451C529.577 328.352 528.456 329.116 527.241 329.744C526.047 330.373 524.78 330.844 523.44 331.158C522.12 331.493 520.759 331.661 519.355 331.661C516.989 331.661 514.758 331.221 512.663 330.341C510.59 329.441 508.768 328.215 507.197 326.665C505.647 325.115 504.422 323.304 503.521 321.23C502.62 319.157 502.17 316.936 502.17 314.57C502.17 311.993 502.62 309.585 503.521 307.343C504.422 305.102 505.647 303.154 507.197 301.5C508.768 299.824 510.59 298.505 512.663 297.541C514.758 296.578 516.989 296.096 519.355 296.096C520.759 296.096 522.131 296.274 523.471 296.63C524.833 296.986 526.121 297.51 527.336 298.201C528.571 298.871 529.702 299.698 530.729 300.683C531.776 301.667 532.677 302.798 533.431 304.076Z" stroke="#543A14" stroke-width="64.3438" mask="url(#path-12-outside-1_9652_131546)"/>
<path d="M569.655 313.91C569.655 316.423 569.205 318.769 568.304 320.947C567.404 323.105 566.179 324.979 564.629 326.571C563.079 328.142 561.256 329.388 559.162 330.31C557.088 331.211 554.858 331.661 552.47 331.661C550.103 331.661 547.872 331.211 545.778 330.31C543.704 329.388 541.882 328.142 540.311 326.571C538.761 324.979 537.536 323.105 536.635 320.947C535.735 318.769 535.284 316.423 535.284 313.91C535.284 311.354 535.735 308.988 536.635 306.809C537.536 304.631 538.761 302.756 540.311 301.186C541.882 299.594 543.704 298.347 545.778 297.447C547.872 296.546 550.103 296.096 552.47 296.096C554.858 296.096 557.088 296.525 559.162 297.384C561.256 298.222 563.079 299.426 564.629 300.997C566.179 302.547 567.404 304.422 568.304 306.621C569.205 308.799 569.655 311.229 569.655 313.91ZM561.016 313.91C561.016 312.527 560.785 311.281 560.324 310.171C559.885 309.04 559.277 308.077 558.502 307.281C557.727 306.464 556.816 305.846 555.769 305.427C554.742 304.987 553.643 304.767 552.47 304.767C551.297 304.767 550.187 304.987 549.14 305.427C548.113 305.846 547.213 306.464 546.438 307.281C545.684 308.077 545.087 309.04 544.647 310.171C544.207 311.281 543.987 312.527 543.987 313.91C543.987 315.208 544.207 316.413 544.647 317.523C545.087 318.633 545.684 319.596 546.438 320.413C547.213 321.23 548.113 321.879 549.14 322.361C550.187 322.822 551.297 323.052 552.47 323.052C553.643 323.052 554.742 322.832 555.769 322.393C556.816 321.953 557.727 321.335 558.502 320.539C559.277 319.743 559.885 318.78 560.324 317.649C560.785 316.517 561.016 315.271 561.016 313.91Z" stroke="#543A14" stroke-width="64.3438" mask="url(#path-12-outside-1_9652_131546)"/>
<path d="M617.191 331.033H608.645V309.668C608.645 309.082 608.53 308.527 608.299 308.003C608.09 307.48 607.786 307.019 607.388 306.621C606.99 306.223 606.53 305.919 606.006 305.71C605.482 305.479 604.927 305.364 604.341 305.364C603.754 305.364 603.199 305.479 602.676 305.71C602.173 305.919 601.723 306.223 601.325 306.621C600.948 307.019 600.644 307.48 600.414 308.003C600.204 308.527 600.099 309.082 600.099 309.668V331.033H591.522V309.668C591.522 309.082 591.407 308.527 591.177 308.003C590.967 307.48 590.664 307.019 590.266 306.621C589.868 306.223 589.407 305.919 588.883 305.71C588.36 305.479 587.805 305.364 587.218 305.364C586.632 305.364 586.077 305.479 585.553 305.71C585.05 305.919 584.6 306.223 584.202 306.621C583.825 307.019 583.521 307.48 583.291 308.003C583.081 308.527 582.977 309.082 582.977 309.668V331.033H574.4V297.384H576.473L578.798 299.96C579.992 298.955 581.301 298.18 582.725 297.635C584.171 297.07 585.668 296.787 587.218 296.787C588.789 296.787 590.318 297.08 591.805 297.667C593.313 298.253 594.633 299.269 595.764 300.714C596.287 300.002 596.884 299.395 597.555 298.892C598.225 298.389 598.926 297.981 599.66 297.667C600.414 297.353 601.189 297.133 601.984 297.007C602.78 296.86 603.566 296.787 604.341 296.787C606.121 296.787 607.786 297.122 609.336 297.792C610.907 298.463 612.269 299.384 613.421 300.557C614.593 301.709 615.515 303.071 616.185 304.642C616.856 306.212 617.191 307.888 617.191 309.668V331.033Z" stroke="#543A14" stroke-width="64.3438" mask="url(#path-12-outside-1_9652_131546)"/>
<path d="M636.858 322.801C637.193 322.906 637.528 322.979 637.864 323.021C638.199 323.042 638.534 323.052 638.869 323.052C639.707 323.052 640.513 322.937 641.288 322.707C642.063 322.476 642.786 322.152 643.456 321.733C644.147 321.293 644.755 320.769 645.278 320.162C645.823 319.534 646.263 318.842 646.598 318.088L652.881 324.403C652.085 325.534 651.164 326.55 650.117 327.451C649.09 328.352 647.97 329.116 646.755 329.744C645.561 330.373 644.294 330.844 642.953 331.158C641.634 331.493 640.272 331.661 638.869 331.661C636.502 331.661 634.271 331.221 632.177 330.341C630.103 329.462 628.281 328.236 626.71 326.665C625.16 325.095 623.935 323.23 623.034 321.073C622.134 318.895 621.683 316.507 621.683 313.91C621.683 311.25 622.134 308.82 623.034 306.621C623.935 304.422 625.16 302.547 626.71 300.997C628.281 299.447 630.103 298.243 632.177 297.384C634.271 296.525 636.502 296.096 638.869 296.096C640.272 296.096 641.644 296.263 642.985 296.599C644.325 296.934 645.592 297.415 646.786 298.044C648.001 298.672 649.132 299.447 650.179 300.369C651.227 301.269 652.148 302.285 652.944 303.416L636.858 322.801ZM641.257 305.113C640.859 304.966 640.461 304.872 640.063 304.83C639.686 304.788 639.288 304.767 638.869 304.767C637.696 304.767 636.586 304.987 635.539 305.427C634.512 305.846 633.612 306.453 632.837 307.249C632.083 308.045 631.486 309.009 631.046 310.14C630.606 311.25 630.386 312.506 630.386 313.91C630.386 314.224 630.397 314.58 630.418 314.978C630.459 315.376 630.512 315.784 630.575 316.203C630.658 316.601 630.753 316.989 630.857 317.366C630.962 317.743 631.098 318.078 631.266 318.371L641.257 305.113Z" stroke="#543A14" stroke-width="64.3438" mask="url(#path-12-outside-1_9652_131546)"/>
<path d="M692.185 331.033C690.112 331.033 688.164 330.645 686.341 329.87C684.519 329.074 682.917 327.995 681.534 326.634C680.173 325.252 679.094 323.649 678.298 321.827C677.523 320.005 677.136 318.057 677.136 315.983V305.992H672.957V297.447H677.136V284H685.682V297.447H698.689V305.992H685.682V315.983C685.682 316.884 685.849 317.732 686.184 318.528C686.519 319.303 686.98 319.984 687.567 320.57C688.153 321.157 688.844 321.628 689.64 321.984C690.436 322.319 691.284 322.487 692.185 322.487H698.689V331.033H692.185Z" stroke="#543A14" stroke-width="64.3438" mask="url(#path-12-outside-1_9652_131546)"/>
<path d="M736.044 313.91C736.044 316.423 735.594 318.769 734.693 320.947C733.793 323.105 732.567 324.979 731.018 326.571C729.468 328.142 727.645 329.388 725.551 330.31C723.477 331.211 721.247 331.661 718.859 331.661C716.492 331.661 714.261 331.211 712.167 330.31C710.093 329.388 708.271 328.142 706.7 326.571C705.15 324.979 703.925 323.105 703.024 320.947C702.124 318.769 701.673 316.423 701.673 313.91C701.673 311.354 702.124 308.988 703.024 306.809C703.925 304.631 705.15 302.756 706.7 301.186C708.271 299.594 710.093 298.347 712.167 297.447C714.261 296.546 716.492 296.096 718.859 296.096C721.247 296.096 723.477 296.525 725.551 297.384C727.645 298.222 729.468 299.426 731.018 300.997C732.567 302.547 733.793 304.422 734.693 306.621C735.594 308.799 736.044 311.229 736.044 313.91ZM727.404 313.91C727.404 312.527 727.174 311.281 726.713 310.171C726.273 309.04 725.666 308.077 724.891 307.281C724.116 306.464 723.205 305.846 722.158 305.427C721.131 304.987 720.032 304.767 718.859 304.767C717.686 304.767 716.576 304.987 715.529 305.427C714.502 305.846 713.602 306.464 712.827 307.281C712.073 308.077 711.476 309.04 711.036 310.171C710.596 311.281 710.376 312.527 710.376 313.91C710.376 315.208 710.596 316.413 711.036 317.523C711.476 318.633 712.073 319.596 712.827 320.413C713.602 321.23 714.502 321.879 715.529 322.361C716.576 322.822 717.686 323.052 718.859 323.052C720.032 323.052 721.131 322.832 722.158 322.393C723.205 321.953 724.116 321.335 724.891 320.539C725.666 319.743 726.273 318.78 726.713 317.649C727.174 316.517 727.404 315.271 727.404 313.91Z" stroke="#543A14" stroke-width="64.3438" mask="url(#path-12-outside-1_9652_131546)"/>
<mask id="path-13-outside-2_9652_131546" maskUnits="userSpaceOnUse" x="352" y="305.121" width="768" height="249" fill="black">
<rect fill="white" x="352" y="305.121" width="768" height="249"/>
<path d="M463.861 486.354C463.861 487.547 463.706 488.817 463.395 490.165C463.135 491.513 462.565 492.783 461.684 493.976C460.854 495.116 459.662 496.075 458.106 496.853C456.551 497.631 454.529 498.02 452.04 498.02H417.821C415.384 498.02 413.388 497.786 411.833 497.32C410.329 496.853 409.137 496.179 408.255 495.298C407.374 494.416 406.778 493.302 406.467 491.954C406.155 490.605 406 489.024 406 487.21V399.873C406 396.918 406.337 394.559 407.011 392.796C407.685 390.981 408.644 389.607 409.888 388.674C411.133 387.689 412.61 387.067 414.321 386.807C416.084 386.496 418.028 386.341 420.154 386.341H492.403C494.892 386.341 496.136 387.637 496.136 390.229V397.384C496.136 398.421 495.825 399.095 495.203 399.406C494.581 399.717 493.829 399.873 492.948 399.873C492.429 399.873 491.625 399.795 490.537 399.64C489.448 399.484 488.178 399.303 486.726 399.095C485.274 398.836 483.693 398.551 481.982 398.24C480.323 397.877 478.638 397.54 476.927 397.229C472.935 396.451 468.579 395.544 463.861 394.507V414.261H492.792C493.881 414.261 494.425 414.805 494.425 415.894V423.671C494.425 424.811 493.881 425.382 492.792 425.382H463.861V486.354Z"/>
<path d="M543.654 500.742C539.766 500.742 535.877 500.431 531.988 499.808C528.1 499.186 524.367 498.201 520.789 496.853C517.264 495.505 513.972 493.742 510.913 491.565C507.854 489.387 505.184 486.717 502.902 483.554C500.673 480.392 498.91 476.736 497.614 472.589C496.318 468.389 495.67 463.593 495.67 458.201C495.67 452.913 496.318 448.195 497.614 444.047C498.91 439.847 500.673 436.166 502.902 433.003C505.184 429.841 507.854 427.17 510.913 424.993C513.972 422.763 517.264 420.975 520.789 419.627C524.367 418.227 528.1 417.216 531.988 416.594C535.877 415.972 539.766 415.66 543.654 415.66C547.232 415.66 550.887 415.894 554.62 416.36C558.405 416.775 562.06 417.579 565.585 418.771C569.163 419.912 572.507 421.493 575.618 423.515C578.781 425.485 581.528 428.026 583.862 431.137C586.247 434.248 588.113 437.981 589.461 442.336C590.861 446.639 591.561 451.72 591.561 457.579C591.561 463.593 590.887 468.856 589.539 473.366C588.191 477.825 586.324 481.662 583.939 484.876C581.606 488.039 578.884 490.657 575.773 492.731C572.663 494.805 569.318 496.438 565.741 497.631C562.215 498.771 558.56 499.575 554.775 500.042C550.99 500.508 547.283 500.742 543.654 500.742ZM567.53 482.077C569.137 482.077 570.718 481.74 572.274 481.066C573.881 480.34 575.281 479.07 576.473 477.255C577.718 475.44 578.703 472.952 579.429 469.789C580.206 466.574 580.595 462.504 580.595 457.579C580.595 452.913 580.206 449.076 579.429 446.069C578.703 443.062 577.718 440.703 576.473 438.992C575.229 437.229 573.829 436.01 572.274 435.336C570.718 434.662 569.137 434.325 567.53 434.325C566.285 434.325 564.885 434.585 563.33 435.103C561.827 435.622 560.401 436.736 559.053 438.447C557.757 440.106 556.668 442.517 555.786 445.68C554.905 448.791 554.464 452.964 554.464 458.201C554.464 463.438 554.827 467.637 555.553 470.8C556.279 473.963 557.238 476.373 558.431 478.033C559.623 479.692 560.997 480.78 562.552 481.299C564.16 481.817 565.819 482.077 567.53 482.077Z"/>
<path d="M647.867 500.742C643.978 500.742 640.09 500.431 636.201 499.808C632.313 499.186 628.58 498.201 625.002 496.853C621.477 495.505 618.184 493.742 615.125 491.565C612.066 489.387 609.396 486.717 607.115 483.554C604.886 480.392 603.123 476.736 601.827 472.589C600.53 468.389 599.882 463.593 599.882 458.201C599.882 452.913 600.53 448.195 601.827 444.047C603.123 439.847 604.886 436.166 607.115 433.003C609.396 429.841 612.066 427.17 615.125 424.993C618.184 422.763 621.477 420.975 625.002 419.627C628.58 418.227 632.313 417.216 636.201 416.594C640.09 415.972 643.978 415.66 647.867 415.66C651.444 415.66 655.1 415.894 658.833 416.36C662.617 416.775 666.273 417.579 669.798 418.771C673.376 419.912 676.72 421.493 679.831 423.515C682.993 425.485 685.741 428.026 688.074 431.137C690.459 434.248 692.326 437.981 693.674 442.336C695.074 446.639 695.774 451.72 695.774 457.579C695.774 463.593 695.1 468.856 693.752 473.366C692.404 477.825 690.537 481.662 688.152 484.876C685.819 488.039 683.097 490.657 679.986 492.731C676.875 494.805 673.531 496.438 669.954 497.631C666.428 498.771 662.773 499.575 658.988 500.042C655.203 500.508 651.496 500.742 647.867 500.742ZM671.742 482.077C673.35 482.077 674.931 481.74 676.487 481.066C678.094 480.34 679.494 479.07 680.686 477.255C681.93 475.44 682.916 472.952 683.641 469.789C684.419 466.574 684.808 462.504 684.808 457.579C684.808 452.913 684.419 449.076 683.641 446.069C682.916 443.062 681.93 440.703 680.686 438.992C679.442 437.229 678.042 436.01 676.487 435.336C674.931 434.662 673.35 434.325 671.742 434.325C670.498 434.325 669.098 434.585 667.543 435.103C666.039 435.622 664.614 436.736 663.266 438.447C661.969 440.106 660.881 442.517 659.999 445.68C659.118 448.791 658.677 452.964 658.677 458.201C658.677 463.438 659.04 467.637 659.766 470.8C660.492 473.963 661.451 476.373 662.643 478.033C663.836 479.692 665.21 480.78 666.765 481.299C668.372 481.817 670.032 482.077 671.742 482.077Z"/>
<path d="M795.398 487.21C795.398 489.024 795.242 490.605 794.931 491.954C794.62 493.302 794.024 494.416 793.143 495.298C792.261 496.179 791.043 496.853 789.487 497.32C787.932 497.786 785.91 498.02 783.421 498.02H749.435C745.651 497.916 741.892 497.579 738.159 497.009C734.478 496.386 730.952 495.453 727.582 494.209C724.264 492.913 721.153 491.254 718.249 489.232C715.398 487.158 712.909 484.669 710.783 481.766C708.71 478.81 707.076 475.362 705.884 471.422C704.691 467.43 704.095 462.867 704.095 457.734C704.095 451.357 705.002 445.887 706.817 441.325C708.632 436.71 711.094 432.848 714.205 429.737C717.316 426.626 720.92 424.163 725.015 422.349C729.163 420.534 733.518 419.212 738.081 418.382V381.519C738.081 379.704 738.211 378.123 738.47 376.775C738.729 375.375 739.273 374.235 740.103 373.353C740.933 372.42 742.073 371.746 743.525 371.331C744.977 370.864 746.921 370.631 749.358 370.631H783.421C785.91 370.631 787.932 370.864 789.487 371.331C791.043 371.798 792.261 372.472 793.143 373.353C794.024 374.235 794.62 375.375 794.931 376.775C795.242 378.123 795.398 379.678 795.398 381.441V487.21ZM715.139 457.812C715.139 461.649 715.579 465.252 716.461 468.622C717.342 471.941 718.69 474.896 720.505 477.488C722.371 480.029 724.756 482.128 727.66 483.788C730.563 485.447 734.037 486.51 738.081 486.976V428.337C734.037 428.804 730.563 429.892 727.66 431.603C724.756 433.263 722.371 435.388 720.505 437.981C718.69 440.573 717.342 443.554 716.461 446.924C715.579 450.294 715.139 453.924 715.139 457.812Z"/>
<path d="M809.786 429.193C809.786 427.43 809.941 425.874 810.252 424.526C810.563 423.126 811.16 421.986 812.041 421.104C812.922 420.223 814.141 419.549 815.696 419.082C817.252 418.616 819.274 418.382 821.762 418.382H855.826C858.211 418.382 860.129 418.616 861.581 419.082C863.084 419.497 864.251 420.145 865.081 421.027C865.91 421.908 866.455 423.023 866.714 424.371C866.973 425.719 867.103 427.326 867.103 429.193V487.365C867.103 489.128 866.973 490.683 866.714 492.031C866.455 493.327 865.91 494.442 865.081 495.375C864.251 496.257 863.084 496.931 861.581 497.397C860.129 497.812 858.211 498.02 855.826 498.02H821.762C819.274 498.02 817.252 497.786 815.696 497.32C814.141 496.853 812.922 496.179 812.041 495.298C811.16 494.416 810.563 493.302 810.252 491.954C809.941 490.605 809.786 489.024 809.786 487.21V429.193ZM812.663 385.097C812.663 381.519 813.337 378.149 814.685 374.986C816.085 371.824 817.952 369.076 820.285 366.743C822.618 364.41 825.366 362.569 828.528 361.221C831.691 359.821 835.061 359.121 838.639 359.121C842.164 359.121 845.482 359.821 848.593 361.221C851.756 362.569 854.504 364.41 856.837 366.743C859.17 369.076 861.011 371.824 862.359 374.986C863.758 378.149 864.458 381.519 864.458 385.097C864.458 388.622 863.758 391.966 862.359 395.129C861.011 398.24 859.17 400.962 856.837 403.295C854.504 405.628 851.756 407.494 848.593 408.894C845.482 410.242 842.164 410.916 838.639 410.916C835.061 410.916 831.691 410.242 828.528 408.894C825.366 407.494 822.618 405.628 820.285 403.295C817.952 400.962 816.085 398.24 814.685 395.129C813.337 391.966 812.663 388.622 812.663 385.097Z"/>
<path d="M969.76 487.21C969.76 489.024 969.604 490.605 969.293 491.954C968.982 493.302 968.386 494.416 967.505 495.298C966.623 496.179 965.405 496.853 963.849 497.32C962.294 497.786 960.272 498.02 957.783 498.02H923.797C920.013 497.916 916.254 497.579 912.521 497.009C908.84 496.386 905.314 495.453 901.944 494.209C898.626 492.913 895.515 491.254 892.611 489.232C889.76 487.158 887.271 484.669 885.145 481.766C883.072 478.81 881.438 475.362 880.246 471.422C879.053 467.43 878.457 462.867 878.457 457.734C878.457 451.357 879.364 445.887 881.179 441.325C882.994 436.71 885.456 432.848 888.567 429.737C891.678 426.626 895.282 424.163 899.377 422.349C903.525 420.534 907.88 419.212 912.443 418.382V381.519C912.443 379.704 912.573 378.123 912.832 376.775C913.091 375.375 913.635 374.235 914.465 373.353C915.295 372.42 916.435 371.746 917.887 371.331C919.339 370.864 921.283 370.631 923.72 370.631H957.783C960.272 370.631 962.294 370.864 963.849 371.331C965.405 371.798 966.623 372.472 967.505 373.353C968.386 374.235 968.982 375.375 969.293 376.775C969.604 378.123 969.76 379.678 969.76 381.441V487.21ZM889.501 457.812C889.501 461.649 889.941 465.252 890.823 468.622C891.704 471.941 893.052 474.896 894.867 477.488C896.733 480.029 899.118 482.128 902.022 483.788C904.925 485.447 908.399 486.51 912.443 486.976V428.337C908.399 428.804 904.925 429.892 902.022 431.603C899.118 433.263 896.733 435.388 894.867 437.981C893.052 440.573 891.704 443.554 890.823 446.924C889.941 450.294 889.501 453.924 889.501 457.812Z"/>
<path d="M1041.46 479.044C1041.46 481.999 1041.93 484.176 1042.86 485.576C1043.85 486.976 1045.51 487.676 1047.84 487.676C1049.03 487.676 1050.28 487.417 1051.57 486.898C1052.92 486.38 1053.96 485.887 1054.69 485.421V422.038C1054.69 421.156 1054.87 420.327 1055.23 419.549C1055.64 418.771 1056.53 418.382 1057.87 418.382H1062.85C1063.32 418.382 1063.78 418.408 1064.25 418.46C1064.72 418.512 1065.11 418.668 1065.42 418.927C1065.78 419.134 1066.07 419.497 1066.27 420.016C1066.53 420.482 1066.66 421.156 1066.66 422.038V494.364C1066.66 495.246 1066.53 495.946 1066.27 496.464C1066.07 496.931 1065.78 497.294 1065.42 497.553C1065.11 497.76 1064.72 497.89 1064.25 497.942C1063.78 497.994 1063.32 498.02 1062.85 498.02H1057.87C1056.53 498.02 1055.64 497.631 1055.23 496.853C1054.87 496.075 1054.69 494.831 1054.69 493.12C1053.55 493.535 1051.94 494.105 1049.86 494.831C1047.84 495.557 1045.28 496.283 1042.16 497.009C1039.05 497.683 1035.37 498.279 1031.12 498.797C1026.92 499.316 1022.1 499.575 1016.66 499.575C1011.06 499.575 1006.21 499.108 1002.11 498.175C998.069 497.242 994.698 495.738 992.002 493.664C989.358 491.539 987.388 488.791 986.092 485.421C984.796 482.051 984.148 477.903 984.148 472.977V429.193C984.148 427.43 984.303 425.874 984.614 424.526C984.925 423.126 985.522 421.986 986.403 421.104C987.284 420.223 988.503 419.549 990.058 419.082C991.614 418.616 993.636 418.382 996.124 418.382H1030.19C1033.2 418.382 1035.48 418.823 1037.03 419.705C1038.59 420.586 1039.7 421.675 1040.38 422.971C1041.05 424.267 1041.39 425.667 1041.39 427.17C1041.44 428.674 1041.46 430.048 1041.46 431.292V479.044Z"/>
</mask>
<path d="M463.861 486.354C463.861 487.547 463.706 488.817 463.395 490.165C463.135 491.513 462.565 492.783 461.684 493.976C460.854 495.116 459.662 496.075 458.106 496.853C456.551 497.631 454.529 498.02 452.04 498.02H417.821C415.384 498.02 413.388 497.786 411.833 497.32C410.329 496.853 409.137 496.179 408.255 495.298C407.374 494.416 406.778 493.302 406.467 491.954C406.155 490.605 406 489.024 406 487.21V399.873C406 396.918 406.337 394.559 407.011 392.796C407.685 390.981 408.644 389.607 409.888 388.674C411.133 387.689 412.61 387.067 414.321 386.807C416.084 386.496 418.028 386.341 420.154 386.341H492.403C494.892 386.341 496.136 387.637 496.136 390.229V397.384C496.136 398.421 495.825 399.095 495.203 399.406C494.581 399.717 493.829 399.873 492.948 399.873C492.429 399.873 491.625 399.795 490.537 399.64C489.448 399.484 488.178 399.303 486.726 399.095C485.274 398.836 483.693 398.551 481.982 398.24C480.323 397.877 478.638 397.54 476.927 397.229C472.935 396.451 468.579 395.544 463.861 394.507V414.261H492.792C493.881 414.261 494.425 414.805 494.425 415.894V423.671C494.425 424.811 493.881 425.382 492.792 425.382H463.861V486.354Z" fill="#FFD15C"/>
<path d="M543.654 500.742C539.766 500.742 535.877 500.431 531.988 499.808C528.1 499.186 524.367 498.201 520.789 496.853C517.264 495.505 513.972 493.742 510.913 491.565C507.854 489.387 505.184 486.717 502.902 483.554C500.673 480.392 498.91 476.736 497.614 472.589C496.318 468.389 495.67 463.593 495.67 458.201C495.67 452.913 496.318 448.195 497.614 444.047C498.91 439.847 500.673 436.166 502.902 433.003C505.184 429.841 507.854 427.17 510.913 424.993C513.972 422.763 517.264 420.975 520.789 419.627C524.367 418.227 528.1 417.216 531.988 416.594C535.877 415.972 539.766 415.66 543.654 415.66C547.232 415.66 550.887 415.894 554.62 416.36C558.405 416.775 562.06 417.579 565.585 418.771C569.163 419.912 572.507 421.493 575.618 423.515C578.781 425.485 581.528 428.026 583.862 431.137C586.247 434.248 588.113 437.981 589.461 442.336C590.861 446.639 591.561 451.72 591.561 457.579C591.561 463.593 590.887 468.856 589.539 473.366C588.191 477.825 586.324 481.662 583.939 484.876C581.606 488.039 578.884 490.657 575.773 492.731C572.663 494.805 569.318 496.438 565.741 497.631C562.215 498.771 558.56 499.575 554.775 500.042C550.99 500.508 547.283 500.742 543.654 500.742ZM567.53 482.077C569.137 482.077 570.718 481.74 572.274 481.066C573.881 480.34 575.281 479.07 576.473 477.255C577.718 475.44 578.703 472.952 579.429 469.789C580.206 466.574 580.595 462.504 580.595 457.579C580.595 452.913 580.206 449.076 579.429 446.069C578.703 443.062 577.718 440.703 576.473 438.992C575.229 437.229 573.829 436.01 572.274 435.336C570.718 434.662 569.137 434.325 567.53 434.325C566.285 434.325 564.885 434.585 563.33 435.103C561.827 435.622 560.401 436.736 559.053 438.447C557.757 440.106 556.668 442.517 555.786 445.68C554.905 448.791 554.464 452.964 554.464 458.201C554.464 463.438 554.827 467.637 555.553 470.8C556.279 473.963 557.238 476.373 558.431 478.033C559.623 479.692 560.997 480.78 562.552 481.299C564.16 481.817 565.819 482.077 567.53 482.077Z" fill="#FFD15C"/>
<path d="M647.867 500.742C643.978 500.742 640.09 500.431 636.201 499.808C632.313 499.186 628.58 498.201 625.002 496.853C621.477 495.505 618.184 493.742 615.125 491.565C612.066 489.387 609.396 486.717 607.115 483.554C604.886 480.392 603.123 476.736 601.827 472.589C600.53 468.389 599.882 463.593 599.882 458.201C599.882 452.913 600.53 448.195 601.827 444.047C603.123 439.847 604.886 436.166 607.115 433.003C609.396 429.841 612.066 427.17 615.125 424.993C618.184 422.763 621.477 420.975 625.002 419.627C628.58 418.227 632.313 417.216 636.201 416.594C640.09 415.972 643.978 415.66 647.867 415.66C651.444 415.66 655.1 415.894 658.833 416.36C662.617 416.775 666.273 417.579 669.798 418.771C673.376 419.912 676.72 421.493 679.831 423.515C682.993 425.485 685.741 428.026 688.074 431.137C690.459 434.248 692.326 437.981 693.674 442.336C695.074 446.639 695.774 451.72 695.774 457.579C695.774 463.593 695.1 468.856 693.752 473.366C692.404 477.825 690.537 481.662 688.152 484.876C685.819 488.039 683.097 490.657 679.986 492.731C676.875 494.805 673.531 496.438 669.954 497.631C666.428 498.771 662.773 499.575 658.988 500.042C655.203 500.508 651.496 500.742 647.867 500.742ZM671.742 482.077C673.35 482.077 674.931 481.74 676.487 481.066C678.094 480.34 679.494 479.07 680.686 477.255C681.93 475.44 682.916 472.952 683.641 469.789C684.419 466.574 684.808 462.504 684.808 457.579C684.808 452.913 684.419 449.076 683.641 446.069C682.916 443.062 681.93 440.703 680.686 438.992C679.442 437.229 678.042 436.01 676.487 435.336C674.931 434.662 673.35 434.325 671.742 434.325C670.498 434.325 669.098 434.585 667.543 435.103C666.039 435.622 664.614 436.736 663.266 438.447C661.969 440.106 660.881 442.517 659.999 445.68C659.118 448.791 658.677 452.964 658.677 458.201C658.677 463.438 659.04 467.637 659.766 470.8C660.492 473.963 661.451 476.373 662.643 478.033C663.836 479.692 665.21 480.78 666.765 481.299C668.372 481.817 670.032 482.077 671.742 482.077Z" fill="#FFD15C"/>
<path d="M795.398 487.21C795.398 489.024 795.242 490.605 794.931 491.954C794.62 493.302 794.024 494.416 793.143 495.298C792.261 496.179 791.043 496.853 789.487 497.32C787.932 497.786 785.91 498.02 783.421 498.02H749.435C745.651 497.916 741.892 497.579 738.159 497.009C734.478 496.386 730.952 495.453 727.582 494.209C724.264 492.913 721.153 491.254 718.249 489.232C715.398 487.158 712.909 484.669 710.783 481.766C708.71 478.81 707.076 475.362 705.884 471.422C704.691 467.43 704.095 462.867 704.095 457.734C704.095 451.357 705.002 445.887 706.817 441.325C708.632 436.71 711.094 432.848 714.205 429.737C717.316 426.626 720.92 424.163 725.015 422.349C729.163 420.534 733.518 419.212 738.081 418.382V381.519C738.081 379.704 738.211 378.123 738.47 376.775C738.729 375.375 739.273 374.235 740.103 373.353C740.933 372.42 742.073 371.746 743.525 371.331C744.977 370.864 746.921 370.631 749.358 370.631H783.421C785.91 370.631 787.932 370.864 789.487 371.331C791.043 371.798 792.261 372.472 793.143 373.353C794.024 374.235 794.62 375.375 794.931 376.775C795.242 378.123 795.398 379.678 795.398 381.441V487.21ZM715.139 457.812C715.139 461.649 715.579 465.252 716.461 468.622C717.342 471.941 718.69 474.896 720.505 477.488C722.371 480.029 724.756 482.128 727.66 483.788C730.563 485.447 734.037 486.51 738.081 486.976V428.337C734.037 428.804 730.563 429.892 727.66 431.603C724.756 433.263 722.371 435.388 720.505 437.981C718.69 440.573 717.342 443.554 716.461 446.924C715.579 450.294 715.139 453.924 715.139 457.812Z" fill="#FFD15C"/>
<path d="M809.786 429.193C809.786 427.43 809.941 425.874 810.252 424.526C810.563 423.126 811.16 421.986 812.041 421.104C812.922 420.223 814.141 419.549 815.696 419.082C817.252 418.616 819.274 418.382 821.762 418.382H855.826C858.211 418.382 860.129 418.616 861.581 419.082C863.084 419.497 864.251 420.145 865.081 421.027C865.91 421.908 866.455 423.023 866.714 424.371C866.973 425.719 867.103 427.326 867.103 429.193V487.365C867.103 489.128 866.973 490.683 866.714 492.031C866.455 493.327 865.91 494.442 865.081 495.375C864.251 496.257 863.084 496.931 861.581 497.397C860.129 497.812 858.211 498.02 855.826 498.02H821.762C819.274 498.02 817.252 497.786 815.696 497.32C814.141 496.853 812.922 496.179 812.041 495.298C811.16 494.416 810.563 493.302 810.252 491.954C809.941 490.605 809.786 489.024 809.786 487.21V429.193ZM812.663 385.097C812.663 381.519 813.337 378.149 814.685 374.986C816.085 371.824 817.952 369.076 820.285 366.743C822.618 364.41 825.366 362.569 828.528 361.221C831.691 359.821 835.061 359.121 838.639 359.121C842.164 359.121 845.482 359.821 848.593 361.221C851.756 362.569 854.504 364.41 856.837 366.743C859.17 369.076 861.011 371.824 862.359 374.986C863.758 378.149 864.458 381.519 864.458 385.097C864.458 388.622 863.758 391.966 862.359 395.129C861.011 398.24 859.17 400.962 856.837 403.295C854.504 405.628 851.756 407.494 848.593 408.894C845.482 410.242 842.164 410.916 838.639 410.916C835.061 410.916 831.691 410.242 828.528 408.894C825.366 407.494 822.618 405.628 820.285 403.295C817.952 400.962 816.085 398.24 814.685 395.129C813.337 391.966 812.663 388.622 812.663 385.097Z" fill="#FFD15C"/>
<path d="M969.76 487.21C969.76 489.024 969.604 490.605 969.293 491.954C968.982 493.302 968.386 494.416 967.505 495.298C966.623 496.179 965.405 496.853 963.849 497.32C962.294 497.786 960.272 498.02 957.783 498.02H923.797C920.013 497.916 916.254 497.579 912.521 497.009C908.84 496.386 905.314 495.453 901.944 494.209C898.626 492.913 895.515 491.254 892.611 489.232C889.76 487.158 887.271 484.669 885.145 481.766C883.072 478.81 881.438 475.362 880.246 471.422C879.053 467.43 878.457 462.867 878.457 457.734C878.457 451.357 879.364 445.887 881.179 441.325C882.994 436.71 885.456 432.848 888.567 429.737C891.678 426.626 895.282 424.163 899.377 422.349C903.525 420.534 907.88 419.212 912.443 418.382V381.519C912.443 379.704 912.573 378.123 912.832 376.775C913.091 375.375 913.635 374.235 914.465 373.353C915.295 372.42 916.435 371.746 917.887 371.331C919.339 370.864 921.283 370.631 923.72 370.631H957.783C960.272 370.631 962.294 370.864 963.849 371.331C965.405 371.798 966.623 372.472 967.505 373.353C968.386 374.235 968.982 375.375 969.293 376.775C969.604 378.123 969.76 379.678 969.76 381.441V487.21ZM889.501 457.812C889.501 461.649 889.941 465.252 890.823 468.622C891.704 471.941 893.052 474.896 894.867 477.488C896.733 480.029 899.118 482.128 902.022 483.788C904.925 485.447 908.399 486.51 912.443 486.976V428.337C908.399 428.804 904.925 429.892 902.022 431.603C899.118 433.263 896.733 435.388 894.867 437.981C893.052 440.573 891.704 443.554 890.823 446.924C889.941 450.294 889.501 453.924 889.501 457.812Z" fill="#FFD15C"/>
<path d="M1041.46 479.044C1041.46 481.999 1041.93 484.176 1042.86 485.576C1043.85 486.976 1045.51 487.676 1047.84 487.676C1049.03 487.676 1050.28 487.417 1051.57 486.898C1052.92 486.38 1053.96 485.887 1054.69 485.421V422.038C1054.69 421.156 1054.87 420.327 1055.23 419.549C1055.64 418.771 1056.53 418.382 1057.87 418.382H1062.85C1063.32 418.382 1063.78 418.408 1064.25 418.46C1064.72 418.512 1065.11 418.668 1065.42 418.927C1065.78 419.134 1066.07 419.497 1066.27 420.016C1066.53 420.482 1066.66 421.156 1066.66 422.038V494.364C1066.66 495.246 1066.53 495.946 1066.27 496.464C1066.07 496.931 1065.78 497.294 1065.42 497.553C1065.11 497.76 1064.72 497.89 1064.25 497.942C1063.78 497.994 1063.32 498.02 1062.85 498.02H1057.87C1056.53 498.02 1055.64 497.631 1055.23 496.853C1054.87 496.075 1054.69 494.831 1054.69 493.12C1053.55 493.535 1051.94 494.105 1049.86 494.831C1047.84 495.557 1045.28 496.283 1042.16 497.009C1039.05 497.683 1035.37 498.279 1031.12 498.797C1026.92 499.316 1022.1 499.575 1016.66 499.575C1011.06 499.575 1006.21 499.108 1002.11 498.175C998.069 497.242 994.698 495.738 992.002 493.664C989.358 491.539 987.388 488.791 986.092 485.421C984.796 482.051 984.148 477.903 984.148 472.977V429.193C984.148 427.43 984.303 425.874 984.614 424.526C984.925 423.126 985.522 421.986 986.403 421.104C987.284 420.223 988.503 419.549 990.058 419.082C991.614 418.616 993.636 418.382 996.124 418.382H1030.19C1033.2 418.382 1035.48 418.823 1037.03 419.705C1038.59 420.586 1039.7 421.675 1040.38 422.971C1041.05 424.267 1041.39 425.667 1041.39 427.17C1041.44 428.674 1041.46 430.048 1041.46 431.292V479.044Z" fill="#FFD15C"/>
<path d="M463.861 486.354C463.861 487.547 463.706 488.817 463.395 490.165C463.135 491.513 462.565 492.783 461.684 493.976C460.854 495.116 459.662 496.075 458.106 496.853C456.551 497.631 454.529 498.02 452.04 498.02H417.821C415.384 498.02 413.388 497.786 411.833 497.32C410.329 496.853 409.137 496.179 408.255 495.298C407.374 494.416 406.778 493.302 406.467 491.954C406.155 490.605 406 489.024 406 487.21V399.873C406 396.918 406.337 394.559 407.011 392.796C407.685 390.981 408.644 389.607 409.888 388.674C411.133 387.689 412.61 387.067 414.321 386.807C416.084 386.496 418.028 386.341 420.154 386.341H492.403C494.892 386.341 496.136 387.637 496.136 390.229V397.384C496.136 398.421 495.825 399.095 495.203 399.406C494.581 399.717 493.829 399.873 492.948 399.873C492.429 399.873 491.625 399.795 490.537 399.64C489.448 399.484 488.178 399.303 486.726 399.095C485.274 398.836 483.693 398.551 481.982 398.24C480.323 397.877 478.638 397.54 476.927 397.229C472.935 396.451 468.579 395.544 463.861 394.507V414.261H492.792C493.881 414.261 494.425 414.805 494.425 415.894V423.671C494.425 424.811 493.881 425.382 492.792 425.382H463.861V486.354Z" stroke="#543A14" stroke-width="106.183" mask="url(#path-13-outside-2_9652_131546)"/>
<path d="M543.654 500.742C539.766 500.742 535.877 500.431 531.988 499.808C528.1 499.186 524.367 498.201 520.789 496.853C517.264 495.505 513.972 493.742 510.913 491.565C507.854 489.387 505.184 486.717 502.902 483.554C500.673 480.392 498.91 476.736 497.614 472.589C496.318 468.389 495.67 463.593 495.67 458.201C495.67 452.913 496.318 448.195 497.614 444.047C498.91 439.847 500.673 436.166 502.902 433.003C505.184 429.841 507.854 427.17 510.913 424.993C513.972 422.763 517.264 420.975 520.789 419.627C524.367 418.227 528.1 417.216 531.988 416.594C535.877 415.972 539.766 415.66 543.654 415.66C547.232 415.66 550.887 415.894 554.62 416.36C558.405 416.775 562.06 417.579 565.585 418.771C569.163 419.912 572.507 421.493 575.618 423.515C578.781 425.485 581.528 428.026 583.862 431.137C586.247 434.248 588.113 437.981 589.461 442.336C590.861 446.639 591.561 451.72 591.561 457.579C591.561 463.593 590.887 468.856 589.539 473.366C588.191 477.825 586.324 481.662 583.939 484.876C581.606 488.039 578.884 490.657 575.773 492.731C572.663 494.805 569.318 496.438 565.741 497.631C562.215 498.771 558.56 499.575 554.775 500.042C550.99 500.508 547.283 500.742 543.654 500.742ZM567.53 482.077C569.137 482.077 570.718 481.74 572.274 481.066C573.881 480.34 575.281 479.07 576.473 477.255C577.718 475.44 578.703 472.952 579.429 469.789C580.206 466.574 580.595 462.504 580.595 457.579C580.595 452.913 580.206 449.076 579.429 446.069C578.703 443.062 577.718 440.703 576.473 438.992C575.229 437.229 573.829 436.01 572.274 435.336C570.718 434.662 569.137 434.325 567.53 434.325C566.285 434.325 564.885 434.585 563.33 435.103C561.827 435.622 560.401 436.736 559.053 438.447C557.757 440.106 556.668 442.517 555.786 445.68C554.905 448.791 554.464 452.964 554.464 458.201C554.464 463.438 554.827 467.637 555.553 470.8C556.279 473.963 557.238 476.373 558.431 478.033C559.623 479.692 560.997 480.78 562.552 481.299C564.16 481.817 565.819 482.077 567.53 482.077Z" stroke="#543A14" stroke-width="106.183" mask="url(#path-13-outside-2_9652_131546)"/>
<path d="M647.867 500.742C643.978 500.742 640.09 500.431 636.201 499.808C632.313 499.186 628.58 498.201 625.002 496.853C621.477 495.505 618.184 493.742 615.125 491.565C612.066 489.387 609.396 486.717 607.115 483.554C604.886 480.392 603.123 476.736 601.827 472.589C600.53 468.389 599.882 463.593 599.882 458.201C599.882 452.913 600.53 448.195 601.827 444.047C603.123 439.847 604.886 436.166 607.115 433.003C609.396 429.841 612.066 427.17 615.125 424.993C618.184 422.763 621.477 420.975 625.002 419.627C628.58 418.227 632.313 417.216 636.201 416.594C640.09 415.972 643.978 415.66 647.867 415.66C651.444 415.66 655.1 415.894 658.833 416.36C662.617 416.775 666.273 417.579 669.798 418.771C673.376 419.912 676.72 421.493 679.831 423.515C682.993 425.485 685.741 428.026 688.074 431.137C690.459 434.248 692.326 437.981 693.674 442.336C695.074 446.639 695.774 451.72 695.774 457.579C695.774 463.593 695.1 468.856 693.752 473.366C692.404 477.825 690.537 481.662 688.152 484.876C685.819 488.039 683.097 490.657 679.986 492.731C676.875 494.805 673.531 496.438 669.954 497.631C666.428 498.771 662.773 499.575 658.988 500.042C655.203 500.508 651.496 500.742 647.867 500.742ZM671.742 482.077C673.35 482.077 674.931 481.74 676.487 481.066C678.094 480.34 679.494 479.07 680.686 477.255C681.93 475.44 682.916 472.952 683.641 469.789C684.419 466.574 684.808 462.504 684.808 457.579C684.808 452.913 684.419 449.076 683.641 446.069C682.916 443.062 681.93 440.703 680.686 438.992C679.442 437.229 678.042 436.01 676.487 435.336C674.931 434.662 673.35 434.325 671.742 434.325C670.498 434.325 669.098 434.585 667.543 435.103C666.039 435.622 664.614 436.736 663.266 438.447C661.969 440.106 660.881 442.517 659.999 445.68C659.118 448.791 658.677 452.964 658.677 458.201C658.677 463.438 659.04 467.637 659.766 470.8C660.492 473.963 661.451 476.373 662.643 478.033C663.836 479.692 665.21 480.78 666.765 481.299C668.372 481.817 670.032 482.077 671.742 482.077Z" stroke="#543A14" stroke-width="106.183" mask="url(#path-13-outside-2_9652_131546)"/>
<path d="M795.398 487.21C795.398 489.024 795.242 490.605 794.931 491.954C794.62 493.302 794.024 494.416 793.143 495.298C792.261 496.179 791.043 496.853 789.487 497.32C787.932 497.786 785.91 498.02 783.421 498.02H749.435C745.651 497.916 741.892 497.579 738.159 497.009C734.478 496.386 730.952 495.453 727.582 494.209C724.264 492.913 721.153 491.254 718.249 489.232C715.398 487.158 712.909 484.669 710.783 481.766C708.71 478.81 707.076 475.362 705.884 471.422C704.691 467.43 704.095 462.867 704.095 457.734C704.095 451.357 705.002 445.887 706.817 441.325C708.632 436.71 711.094 432.848 714.205 429.737C717.316 426.626 720.92 424.163 725.015 422.349C729.163 420.534 733.518 419.212 738.081 418.382V381.519C738.081 379.704 738.211 378.123 738.47 376.775C738.729 375.375 739.273 374.235 740.103 373.353C740.933 372.42 742.073 371.746 743.525 371.331C744.977 370.864 746.921 370.631 749.358 370.631H783.421C785.91 370.631 787.932 370.864 789.487 371.331C791.043 371.798 792.261 372.472 793.143 373.353C794.024 374.235 794.62 375.375 794.931 376.775C795.242 378.123 795.398 379.678 795.398 381.441V487.21ZM715.139 457.812C715.139 461.649 715.579 465.252 716.461 468.622C717.342 471.941 718.69 474.896 720.505 477.488C722.371 480.029 724.756 482.128 727.66 483.788C730.563 485.447 734.037 486.51 738.081 486.976V428.337C734.037 428.804 730.563 429.892 727.66 431.603C724.756 433.263 722.371 435.388 720.505 437.981C718.69 440.573 717.342 443.554 716.461 446.924C715.579 450.294 715.139 453.924 715.139 457.812Z" stroke="#543A14" stroke-width="106.183" mask="url(#path-13-outside-2_9652_131546)"/>
<path d="M809.786 429.193C809.786 427.43 809.941 425.874 810.252 424.526C810.563 423.126 811.16 421.986 812.041 421.104C812.922 420.223 814.141 419.549 815.696 419.082C817.252 418.616 819.274 418.382 821.762 418.382H855.826C858.211 418.382 860.129 418.616 861.581 419.082C863.084 419.497 864.251 420.145 865.081 421.027C865.91 421.908 866.455 423.023 866.714 424.371C866.973 425.719 867.103 427.326 867.103 429.193V487.365C867.103 489.128 866.973 490.683 866.714 492.031C866.455 493.327 865.91 494.442 865.081 495.375C864.251 496.257 863.084 496.931 861.581 497.397C860.129 497.812 858.211 498.02 855.826 498.02H821.762C819.274 498.02 817.252 497.786 815.696 497.32C814.141 496.853 812.922 496.179 812.041 495.298C811.16 494.416 810.563 493.302 810.252 491.954C809.941 490.605 809.786 489.024 809.786 487.21V429.193ZM812.663 385.097C812.663 381.519 813.337 378.149 814.685 374.986C816.085 371.824 817.952 369.076 820.285 366.743C822.618 364.41 825.366 362.569 828.528 361.221C831.691 359.821 835.061 359.121 838.639 359.121C842.164 359.121 845.482 359.821 848.593 361.221C851.756 362.569 854.504 364.41 856.837 366.743C859.17 369.076 861.011 371.824 862.359 374.986C863.758 378.149 864.458 381.519 864.458 385.097C864.458 388.622 863.758 391.966 862.359 395.129C861.011 398.24 859.17 400.962 856.837 403.295C854.504 405.628 851.756 407.494 848.593 408.894C845.482 410.242 842.164 410.916 838.639 410.916C835.061 410.916 831.691 410.242 828.528 408.894C825.366 407.494 822.618 405.628 820.285 403.295C817.952 400.962 816.085 398.24 814.685 395.129C813.337 391.966 812.663 388.622 812.663 385.097Z" stroke="#543A14" stroke-width="106.183" mask="url(#path-13-outside-2_9652_131546)"/>
<path d="M969.76 487.21C969.76 489.024 969.604 490.605 969.293 491.954C968.982 493.302 968.386 494.416 967.505 495.298C966.623 496.179 965.405 496.853 963.849 497.32C962.294 497.786 960.272 498.02 957.783 498.02H923.797C920.013 497.916 916.254 497.579 912.521 497.009C908.84 496.386 905.314 495.453 901.944 494.209C898.626 492.913 895.515 491.254 892.611 489.232C889.76 487.158 887.271 484.669 885.145 481.766C883.072 478.81 881.438 475.362 880.246 471.422C879.053 467.43 878.457 462.867 878.457 457.734C878.457 451.357 879.364 445.887 881.179 441.325C882.994 436.71 885.456 432.848 888.567 429.737C891.678 426.626 895.282 424.163 899.377 422.349C903.525 420.534 907.88 419.212 912.443 418.382V381.519C912.443 379.704 912.573 378.123 912.832 376.775C913.091 375.375 913.635 374.235 914.465 373.353C915.295 372.42 916.435 371.746 917.887 371.331C919.339 370.864 921.283 370.631 923.72 370.631H957.783C960.272 370.631 962.294 370.864 963.849 371.331C965.405 371.798 966.623 372.472 967.505 373.353C968.386 374.235 968.982 375.375 969.293 376.775C969.604 378.123 969.76 379.678 969.76 381.441V487.21ZM889.501 457.812C889.501 461.649 889.941 465.252 890.823 468.622C891.704 471.941 893.052 474.896 894.867 477.488C896.733 480.029 899.118 482.128 902.022 483.788C904.925 485.447 908.399 486.51 912.443 486.976V428.337C908.399 428.804 904.925 429.892 902.022 431.603C899.118 433.263 896.733 435.388 894.867 437.981C893.052 440.573 891.704 443.554 890.823 446.924C889.941 450.294 889.501 453.924 889.501 457.812Z" stroke="#543A14" stroke-width="106.183" mask="url(#path-13-outside-2_9652_131546)"/>
<path d="M1041.46 479.044C1041.46 481.999 1041.93 484.176 1042.86 485.576C1043.85 486.976 1045.51 487.676 1047.84 487.676C1049.03 487.676 1050.28 487.417 1051.57 486.898C1052.92 486.38 1053.96 485.887 1054.69 485.421V422.038C1054.69 421.156 1054.87 420.327 1055.23 419.549C1055.64 418.771 1056.53 418.382 1057.87 418.382H1062.85C1063.32 418.382 1063.78 418.408 1064.25 418.46C1064.72 418.512 1065.11 418.668 1065.42 418.927C1065.78 419.134 1066.07 419.497 1066.27 420.016C1066.53 420.482 1066.66 421.156 1066.66 422.038V494.364C1066.66 495.246 1066.53 495.946 1066.27 496.464C1066.07 496.931 1065.78 497.294 1065.42 497.553C1065.11 497.76 1064.72 497.89 1064.25 497.942C1063.78 497.994 1063.32 498.02 1062.85 498.02H1057.87C1056.53 498.02 1055.64 497.631 1055.23 496.853C1054.87 496.075 1054.69 494.831 1054.69 493.12C1053.55 493.535 1051.94 494.105 1049.86 494.831C1047.84 495.557 1045.28 496.283 1042.16 497.009C1039.05 497.683 1035.37 498.279 1031.12 498.797C1026.92 499.316 1022.1 499.575 1016.66 499.575C1011.06 499.575 1006.21 499.108 1002.11 498.175C998.069 497.242 994.698 495.738 992.002 493.664C989.358 491.539 987.388 488.791 986.092 485.421C984.796 482.051 984.148 477.903 984.148 472.977V429.193C984.148 427.43 984.303 425.874 984.614 424.526C984.925 423.126 985.522 421.986 986.403 421.104C987.284 420.223 988.503 419.549 990.058 419.082C991.614 418.616 993.636 418.382 996.124 418.382H1030.19C1033.2 418.382 1035.48 418.823 1037.03 419.705C1038.59 420.586 1039.7 421.675 1040.38 422.971C1041.05 424.267 1041.39 425.667 1041.39 427.17C1041.44 428.674 1041.46 430.048 1041.46 431.292V479.044Z" stroke="#543A14" stroke-width="106.183" mask="url(#path-13-outside-2_9652_131546)"/>
<path d="M498 344H702V355.333V396.133H532L498 344Z" fill="#543A14"/>
</svg>
