<svg width="592" height="592" viewBox="0 0 592 592" fill="none" xmlns="http://www.w3.org/2000/svg">
<g filter="url(#filter0_d_6038_14627)">
<rect x="90" y="90" width="412" height="412" rx="103" fill="#FFC533" shape-rendering="crispEdges"/>
<path d="M311.96 309.7C313.247 309.7 314.369 309.81 315.325 310.031C316.282 310.251 317.072 310.674 317.698 311.3C318.36 311.925 318.856 312.789 319.187 313.892C319.518 314.996 319.684 316.43 319.684 318.196V344.731C319.684 347.49 319.481 350.23 319.077 352.951C318.709 355.673 318.029 358.266 317.036 360.73C316.043 363.194 314.663 365.474 312.898 367.571C311.169 369.704 308.926 371.543 306.168 373.087C303.409 374.632 300.099 375.846 296.237 376.728C292.376 377.611 287.833 378.052 282.611 378.052C276.469 378.052 271.154 377.574 266.668 376.618C262.217 375.699 258.429 374.43 255.303 372.811C252.177 371.23 249.639 369.336 247.69 367.129C245.777 364.959 244.269 362.605 243.166 360.068C242.1 357.567 241.382 354.956 241.015 352.234C240.647 349.549 240.463 346.864 240.463 344.179L240.463 318.196C240.463 316.43 240.628 314.996 240.959 313.892C241.29 312.789 241.769 311.925 242.394 311.3C243.019 310.674 243.81 310.251 244.766 310.031C245.722 309.81 246.844 309.7 248.131 309.7L311.96 309.7ZM281.452 370.274C286.013 370.274 290.169 369.906 293.92 369.17C297.672 368.435 300.871 367.276 303.519 365.695C306.168 364.113 308.227 362.091 309.698 359.626C311.169 357.199 311.923 354.275 311.96 350.855L248.131 350.855C248.168 354.275 249.051 357.217 250.779 359.682C252.545 362.146 254.935 364.15 257.951 365.695C260.967 367.276 264.479 368.435 268.488 369.17C272.534 369.906 276.855 370.274 281.452 370.274Z" fill="#543A14"/>
<path d="M286.951 298.906C284.008 298.906 281.048 298.648 278.069 298.133C275.126 297.618 272.294 296.736 269.573 295.485C266.851 294.235 264.314 292.58 261.96 290.52C259.606 288.424 257.546 285.831 255.781 282.741C254.052 279.615 252.692 275.937 251.699 271.708C250.705 267.442 250.209 262.495 250.209 256.868C250.209 251.278 250.705 246.349 251.699 242.083C252.692 237.817 254.052 234.139 255.781 231.049C257.546 227.923 259.606 225.33 261.96 223.271C264.314 221.211 266.851 219.575 269.573 218.361C272.294 217.11 275.126 216.228 278.069 215.713C281.048 215.198 284.008 214.94 286.951 214.94C289.893 214.94 292.854 215.198 295.833 215.713C298.812 216.228 301.662 217.11 304.384 218.361C307.105 219.575 309.643 221.211 311.997 223.271C314.351 225.33 316.392 227.923 318.12 231.049C319.849 234.139 321.21 237.817 322.203 242.083C323.196 246.349 323.692 251.278 323.692 256.868C323.692 262.458 323.196 267.386 322.203 271.653C321.21 275.919 319.849 279.615 318.12 282.741C316.392 285.831 314.351 288.424 311.997 290.52C309.643 292.58 307.105 294.235 304.384 295.485C301.662 296.736 298.812 297.618 295.833 298.133C292.854 298.648 289.893 298.906 286.951 298.906ZM291.916 256.868C291.916 261.465 292.247 265.308 292.909 268.398C293.608 271.487 294.527 273.97 295.667 275.845C296.807 277.721 298.076 279.064 299.474 279.873C300.908 280.645 302.379 281.031 303.887 281.031C305.395 281.031 306.866 280.645 308.3 279.873C309.735 279.064 311.004 277.721 312.107 275.845C313.247 273.97 314.148 271.487 314.81 268.398C315.509 265.308 315.858 261.465 315.858 256.868C315.858 252.271 315.509 248.427 314.81 245.338C314.148 242.248 313.247 239.766 312.107 237.89C311.004 236.014 309.735 234.69 308.3 233.918C306.866 233.109 305.395 232.704 303.887 232.704C302.379 232.704 300.908 233.109 299.474 233.918C298.076 234.69 296.807 236.014 295.667 237.89C294.527 239.766 293.608 242.248 292.909 245.338C292.247 248.427 291.916 252.271 291.916 256.868Z" fill="#543A14"/>
<path d="M209.275 298.906C206.333 298.906 203.372 298.648 200.393 298.133C197.451 297.618 194.619 296.736 191.897 295.485C189.175 294.235 186.638 292.58 184.284 290.52C181.93 288.424 179.87 285.831 178.105 282.741C176.377 279.615 175.016 275.937 174.023 271.708C173.03 267.442 172.533 262.495 172.533 256.868C172.533 251.278 173.03 246.349 174.023 242.083C175.016 237.817 176.377 234.139 178.105 231.049C179.87 227.923 181.93 225.33 184.284 223.271C186.638 221.211 189.175 219.575 191.897 218.361C194.619 217.11 197.451 216.228 200.393 215.713C203.372 215.198 206.333 214.94 209.275 214.94C212.217 214.94 215.178 215.198 218.157 215.713C221.136 216.228 223.986 217.11 226.708 218.361C229.429 219.575 231.967 221.211 234.321 223.271C236.675 225.33 238.716 227.923 240.445 231.049C242.173 234.139 243.534 237.817 244.527 242.083C245.52 246.349 246.016 251.278 246.016 256.868C246.016 262.458 245.52 267.386 244.527 271.653C243.534 275.919 242.173 279.615 240.445 282.741C238.716 285.831 236.675 288.424 234.321 290.52C231.967 292.58 229.429 294.235 226.708 295.485C223.986 296.736 221.136 297.618 218.157 298.133C215.178 298.648 212.217 298.906 209.275 298.906ZM214.24 256.868C214.24 261.465 214.571 265.308 215.233 268.398C215.932 271.487 216.851 273.97 217.991 275.845C219.131 277.721 220.4 279.064 221.798 279.873C223.232 280.645 224.703 281.031 226.211 281.031C227.719 281.031 229.19 280.645 230.625 279.873C232.059 279.064 233.328 277.721 234.431 275.845C235.571 273.97 236.472 271.487 237.134 268.398C237.833 265.308 238.183 261.465 238.183 256.868C238.183 252.271 237.833 248.427 237.134 245.338C236.472 242.248 235.571 239.766 234.431 237.89C233.328 236.014 232.059 234.69 230.625 233.918C229.19 233.109 227.719 232.704 226.211 232.704C224.703 232.704 223.232 233.109 221.798 233.918C220.4 234.69 219.131 236.014 217.991 237.89C216.851 239.766 215.932 242.248 215.233 245.338C214.571 248.427 214.24 252.271 214.24 256.868Z" fill="#543A14"/>
<path d="M370.217 262.815C370.686 261.656 371.201 260.674 371.764 259.87C372.34 259.032 373.035 258.44 373.849 258.094C374.663 257.748 375.643 257.629 376.79 257.735C377.937 257.841 379.329 258.224 380.966 258.885L403.372 267.932C404.941 268.565 406.141 269.228 406.972 269.921C407.851 270.593 408.446 271.329 408.758 272.129C409.069 272.929 409.131 273.807 408.944 274.762C408.756 275.718 408.415 276.81 407.919 278.037L370.439 370.867C369.971 372.027 369.472 373.015 368.944 373.833C368.429 374.617 367.775 375.206 366.981 375.599C366.202 375.959 365.255 376.092 364.142 376C363.077 375.887 361.76 375.514 360.192 374.881L337.786 365.834C336.149 365.173 334.88 364.483 333.981 363.763C333.082 363.043 332.46 362.276 332.114 361.462C331.768 360.648 331.672 359.757 331.826 358.787C331.979 357.818 332.297 356.737 332.778 355.543L370.217 262.815Z" fill="#543A14"/>
<rect x="396.629" y="271.833" width="7.06146" height="104.722" rx="3.53073" transform="rotate(22.2773 396.629 271.833)" fill="#FFD15C"/>
<circle cx="401.7" cy="240.262" r="18.8305" fill="#543A14"/>
<path d="M415.559 248.369C413.251 252.577 409.739 255.088 407.716 253.978C405.693 252.868 405.925 248.558 408.234 244.35C410.542 240.142 414.054 237.631 416.076 238.741C418.099 239.851 417.868 244.162 415.559 248.369Z" fill="#FFD15C"/>
<ellipse cx="305.044" cy="257.095" rx="14.4045" ry="24.6934" fill="#FFD15C"/>
<ellipse cx="225.476" cy="257.095" rx="14.4045" ry="24.6934" fill="#FFD15C"/>
<path d="M312.568 350.767C312.58 350.995 312.589 351.223 312.589 351.453C312.589 362.439 298.155 371.345 280.35 371.345C262.545 371.345 248.112 362.439 248.112 351.453C248.112 351.223 248.121 350.995 248.133 350.767H312.568Z" fill="#FFD15C"/>
<path d="M312.568 350.381C312.58 350.609 312.589 350.837 312.589 351.067C312.589 362.053 298.155 370.958 280.35 370.958C262.545 370.958 248.112 362.053 248.112 351.067C248.112 350.837 248.121 350.609 248.133 350.381H312.568Z" fill="#FFD15C"/>
</g>
<defs>
<filter id="filter0_d_6038_14627" x="0" y="0" width="592" height="592" filterUnits="userSpaceOnUse" color-interpolation-filters="sRGB">
<feFlood flood-opacity="0" result="BackgroundImageFix"/>
<feColorMatrix in="SourceAlpha" type="matrix" values="0 0 0 0 0 0 0 0 0 0 0 0 0 0 0 0 0 0 127 0" result="hardAlpha"/>
<feOffset/>
<feGaussianBlur stdDeviation="45"/>
<feComposite in2="hardAlpha" operator="out"/>
<feColorMatrix type="matrix" values="0 0 0 0 0.313726 0 0 0 0 0.333333 0 0 0 0 0.360784 0 0 0 0.3 0"/>
<feBlend mode="normal" in2="BackgroundImageFix" result="effect1_dropShadow_6038_14627"/>
<feBlend mode="normal" in="SourceGraphic" in2="effect1_dropShadow_6038_14627" result="shape"/>
</filter>
</defs>
</svg>
