<?xml version="1.0" encoding="UTF-8"?>
<svg version="1.1" xmlns="http://www.w3.org/2000/svg" width="767" height="304">
<path d="M0 0 C24.42 0 48.84 0 74 0 C74 4.62 74 9.24 74 14 C80.09740678 14.11555843 85.89439122 13.58135807 91.91210938 12.62304688 C95.43073843 12.12235874 98.55538746 11.98408593 102.08276367 12.47705078 C107.32889327 13.10490981 112.49649949 13.09105754 117.7734375 13.02734375 C119.83593583 13.01469781 121.89843591 13.00233682 123.9609375 12.99023438 C127.16867759 12.9654727 130.37632253 12.93748622 133.58398438 12.90405273 C136.70964104 12.87359245 139.83517854 12.85600074 142.9609375 12.83984375 C143.9039975 12.82638412 144.8470575 12.8129245 145.81869507 12.79905701 C151.60130842 12.77761246 156.92953975 13.38622861 162.58473206 14.60971069 C166.26816635 15.20492624 168.94905165 14.60398355 172.5625 13.6875 C173.73941406 13.40261719 174.91632813 13.11773437 176.12890625 12.82421875 C178.91292547 12.11980915 178.91292547 12.11980915 181 11 C183.72493566 11.47604298 186.32838788 12.26746119 189 13 C189 8.71 189 4.42 189 0 C213.09 0 237.18 0 262 0 C262 3.96 262 7.92 262 12 C262.94359375 12.08636719 263.8871875 12.17273437 264.859375 12.26171875 C279.46381077 13.85999536 291.36893795 18.1807103 301.2578125 29.609375 C309.7283981 40.6742728 313.17515316 52.19209236 313 66 C333.31841265 67.45071005 333.31841265 67.45071005 351.96875 60.82421875 C366.17732755 52.27343819 387.35331031 52.76844275 403.0625 56.5 C412.91436629 59.64634914 422.72957093 64.1639194 430.6875 70.8125 C432.66221585 72.37009821 432.66221585 72.37009821 435 73 C438.41815247 72.2408981 441.26499285 71.05457719 444.3984375 69.5 C452.80790257 65.99757637 461.69882305 65.69110733 470.703125 65.69921875 C471.78398376 65.69493362 472.86484253 65.6906485 473.97845459 65.68623352 C476.25076604 65.68052785 478.52309574 65.67996193 480.79541016 65.68432617 C484.22721344 65.68747907 487.65814704 65.66400259 491.08984375 65.63867188 C505.62170457 65.59490181 520.16880633 65.55647984 533.3125 72.625 C533.97564209 72.96982422 534.63878418 73.31464844 535.32202148 73.66992188 C541.35796935 76.9431583 546.25772219 81.03776496 551 86 C551.64324219 86.62390625 552.28648437 87.2478125 552.94921875 87.890625 C559.95756968 95.12701338 563.71859195 104.11119106 565 114 C565.61228455 113.99333817 566.22456909 113.98667633 566.85540771 113.97981262 C573.2803416 113.91297456 579.70517526 113.86800008 586.13037109 113.83520508 C588.52201353 113.82020287 590.91362885 113.79979453 593.30517578 113.77368164 C596.76081064 113.73691957 600.21607892 113.72018736 603.671875 113.70703125 C604.72550232 113.69154739 605.77912964 113.67606354 606.86468506 113.66011047 C623.02318934 113.6565214 637.05767108 119.35618603 648.78125 130.546875 C659.18456451 142.04913119 664.30799521 155.80144137 664.29052734 171.15307617 C664.30060318 172.45267776 664.30060318 172.45267776 664.31088257 173.77853394 C664.32973637 176.61673873 664.3337806 179.45470539 664.3359375 182.29296875 C664.34237507 184.28681023 664.34910412 186.28065079 664.35610962 188.27449036 C664.36805155 192.44611803 664.37179371 196.61766309 664.37060547 200.78930664 C664.37040267 206.10032262 664.39767906 211.41080122 664.43214989 216.72169018 C664.45453403 220.83901844 664.45843947 224.95621983 664.45738602 229.07360268 C664.45972567 231.02976644 664.46845543 232.98593459 664.48405075 234.94203758 C664.62334521 254.2205383 661.58162428 269.99263761 648.0625 284.75 C632.87245441 299.26773375 614.29763604 301.20116929 594.23828125 300.9609375 C588.88469209 300.92181261 583.72982146 301.07978915 578.42236328 301.75537109 C573.02856775 302.30007812 567.60421788 302.28020905 562.1875 302.3125 C560.90157959 302.32047607 559.61565918 302.32845215 558.29077148 302.33666992 C550.73985839 302.28996908 543.87461156 301.65455081 536.5625 299.8125 C528.68082173 297.88600888 522.55641979 298.30348142 514.62207031 299.71875 C504.69848649 301.34031742 494.84038019 301.32595277 484.8125 301.3125 C483.97408569 301.31536011 483.13567139 301.31822021 482.27185059 301.32116699 C466.61547155 301.3586939 450.94302586 300.6802286 435.76171875 296.5859375 C431.20648177 295.61947987 427.37547155 295.59336349 423.0625 297.375 C411.19367111 301.58226309 398.14620594 301.32191133 385.71240234 301.26074219 C383.13485037 301.2500409 380.55799951 301.26069443 377.98046875 301.2734375 C369.93796528 301.27766261 362.14538955 300.99967098 354.1796875 299.859375 C347.47928202 298.91884484 341.68071125 299.36447844 334.97021484 300.46679688 C327.16956717 301.64673092 319.18067511 301.29991303 311.3125 301.25 C310.42914978 301.24656586 309.54579956 301.24313171 308.63568115 301.23959351 C268.58376946 301.05680127 268.58376946 301.05680127 250.30859375 292.78125 C245.24401432 291.06734833 240.72320948 293.87542133 236.0625 295.875 C228.86977688 298.86158243 221.6904274 300.70270703 214 302 C212.49566406 302.27650391 212.49566406 302.27650391 210.9609375 302.55859375 C189.04655269 305.00072934 168.13585481 303.13072007 147.609375 295.3046875 C142.10722958 293.1177351 142.10722958 293.1177351 136.484375 293.85546875 C135.13085938 294.51482422 135.13085938 294.51482422 133.75 295.1875 C128.62676296 297.46661041 123.63050197 299.00071839 118.1875 300.25 C117.48270508 300.41266357 116.77791016 300.57532715 116.05175781 300.74291992 C91.06703623 306.29409863 60.24558839 305.21613395 37.375 292.5625 C34.21817281 290.63977388 34.21817281 290.63977388 31.65234375 291.74609375 C30.77707031 292.15988281 29.90179688 292.57367188 29 293 C13.04810167 299.86481694 -0.81874678 301.18688448 -18.02026367 301.18530273 C-20.66406573 301.18748069 -23.30744373 301.20566409 -25.95117188 301.22460938 C-48.21572397 301.29932395 -69.03337117 298.82264643 -85.875 282.6875 C-90.47193751 277.85244774 -94.00923065 272.9525021 -97 267 C-97.38800781 266.23816406 -97.77601562 265.47632813 -98.17578125 264.69140625 C-102.35115716 255.93070844 -103.29924775 247.47132184 -103.29052734 237.84326172 C-103.29724457 236.7638884 -103.30396179 235.68451508 -103.31088257 234.57243347 C-103.32978805 231.02480386 -103.33378334 227.47736427 -103.3359375 223.9296875 C-103.34237167 221.44499638 -103.34910049 218.96030602 -103.35610962 216.47561646 C-103.36806459 211.27246344 -103.37179238 206.06937671 -103.37060547 200.86621094 C-103.37040264 194.23255423 -103.39767634 187.59932763 -103.43214989 180.96577263 C-103.45450325 175.83358854 -103.45844039 170.70150648 -103.45738602 165.56927872 C-103.45973037 163.12550503 -103.46848736 160.68172803 -103.48405075 158.23800278 C-103.61733258 135.14466886 -101.07725717 116.78737963 -84.37890625 99.32421875 C-81.69174594 96.69883224 -78.98538341 94.27831892 -76 92 C-76.33773437 91.40574219 -76.67546875 90.81148438 -77.0234375 90.19921875 C-77.46945313 89.37035156 -77.91546875 88.54148437 -78.375 87.6875 C-78.81585938 86.88699219 -79.25671875 86.08648437 -79.7109375 85.26171875 C-83.24697443 76.3144738 -83.27803494 66.95219925 -83.1953125 57.45703125 C-83.19329834 56.34759155 -83.19128418 55.23815186 -83.18920898 54.09509277 C-83.17884488 50.00085236 -83.15092337 45.90667146 -83.125 41.8125 C-83.063125 28.0453125 -83.063125 28.0453125 -83 14 C-55.61 14 -28.22 14 0 14 C0 9.38 0 4.76 0 0 Z " fill="#533914" transform="translate(103,1)"/>
<path d="M0 0 C1.02806763 0.00091644 2.05613525 0.00183289 3.11535645 0.0027771 C5.28740052 0.00881491 7.4594362 0.02456619 9.63134766 0.04931641 C12.95636674 0.08580162 16.28027047 0.09033586 19.60546875 0.08984375 C21.71615546 0.09967589 23.82683463 0.11133332 25.9375 0.125 C26.93237427 0.12722565 27.92724854 0.12945129 28.95227051 0.13174438 C30.34391418 0.15088394 30.34391418 0.15088394 31.76367188 0.17041016 C32.9846759 0.18184555 32.9846759 0.18184555 34.23034668 0.19351196 C36.75581782 0.49523394 38.32857929 1.09409769 40.46875 2.4609375 C42.60334991 5.66283737 42.7204479 6.47716195 42.72944641 10.15390015 C42.73653122 11.11842606 42.74361603 12.08295197 42.75091553 13.07670593 C42.74843811 14.13339981 42.74596069 15.19009369 42.7434082 16.27880859 C42.74851913 17.39287582 42.75363007 18.50694305 42.75889587 19.6547699 C42.77282832 23.34802582 42.77183222 27.04109588 42.76953125 30.734375 C42.7734164 33.29643829 42.77775069 35.85850094 42.78251648 38.42056274 C42.78998673 43.79569862 42.78981961 49.17076215 42.78442383 54.54589844 C42.77838641 60.755165 42.79068829 66.96420483 42.8119939 73.17343271 C42.83174514 79.14979418 42.83478222 85.12603705 42.83125877 91.10243607 C42.83177276 93.64378008 42.83702487 96.18512766 42.84707069 98.72645187 C42.85938965 102.27923856 42.85266997 105.83149925 42.84106445 109.38427734 C42.84870819 110.43692276 42.85635193 111.48956818 42.86422729 112.57411194 C42.79901754 121.59342169 42.79901754 121.59342169 39.46875 125.4609375 C36.28496208 127.58346278 35.47217637 127.71526708 31.82055664 127.7355957 C30.87849869 127.74512772 29.93644073 127.75465973 28.96583557 127.76448059 C27.9471489 127.76356918 26.92846222 127.76265778 25.87890625 127.76171875 C24.29655434 127.76814644 24.29655434 127.76814644 22.68223572 127.77470398 C20.44368202 127.78045336 18.20510963 127.78094309 15.96655273 127.77661133 C12.57567396 127.77347854 9.18569099 127.79680829 5.79492188 127.82226562 C3.61458442 127.82454156 1.43424465 127.82524075 -0.74609375 127.82421875 C-1.74656235 127.8334285 -2.74703094 127.84263824 -3.77781677 127.85212708 C-16.72654246 127.76901432 -30.12071676 124.28546048 -39.9296875 115.40625 C-49.44913957 103.84359846 -49.44081061 90.63938229 -48.53125 76.4609375 C-47.09852407 67.67097028 -42.25355893 61.16441209 -35.53125 55.4609375 C-30.39580504 52.20151579 -25.24416646 49.82796646 -19.33813477 48.38867188 C-18.08186279 48.08251953 -16.82559082 47.77636719 -15.53125 47.4609375 C-15.5219043 46.17928711 -15.51255859 44.89763672 -15.50292969 43.57714844 C-15.46304939 38.82077308 -15.39729585 34.06504588 -15.32373047 29.30908203 C-15.29550951 27.25089852 -15.27430059 25.1926064 -15.26025391 23.13427734 C-15.2388401 20.17488965 -15.19219779 17.2168093 -15.140625 14.2578125 C-15.13939636 13.33788513 -15.13816772 12.41795776 -15.13690186 11.47015381 C-15.05221734 7.77422411 -14.90774605 5.1658351 -13.15136719 1.87744141 C-8.91580733 -0.41241307 -4.73613696 -0.06841385 0 0 Z " fill="#FDCF5B" transform="translate(574.53125,120.5390625)"/>
<path d="M0 0 C1.02428101 -0.00241196 2.04856201 -0.00482391 3.10388184 -0.00730896 C5.26574583 -0.00633109 7.42763505 0.00704816 9.58935547 0.03198242 C12.89507259 0.06629025 16.19811592 0.05263737 19.50390625 0.03320312 C21.60678219 0.04010177 23.70965125 0.04977432 25.8125 0.0625 C26.79907593 0.05754013 27.78565186 0.05258026 28.80212402 0.04747009 C29.72658325 0.06330643 30.65104248 0.07914276 31.60351562 0.09545898 C32.81666443 0.10475685 32.81666443 0.10475685 34.05432129 0.11424255 C37.63171621 0.8970704 39.02511028 1.79179773 41.40625 4.62890625 C42.16250178 8.36232357 42.07836648 12.0536775 42.03735352 15.8515625 C42.04450882 16.99664276 42.05166412 18.14172302 42.05903625 19.32150269 C42.07596421 23.11187463 42.05649485 26.90107073 42.03515625 30.69140625 C42.03598456 33.32169696 42.0384425 35.95198762 42.04246521 38.58227539 C42.04698538 44.09698055 42.03112163 49.61134643 42.00317383 55.12597656 C41.97112179 61.49954765 41.9711376 67.87250688 41.9883886 74.24612141 C42.0042586 80.38006096 41.99742006 86.51374043 41.98045158 92.64767456 C41.97526134 95.25682065 41.97576172 97.86598437 41.98199654 100.47512817 C41.98743523 104.11922343 41.9671145 107.76227373 41.93969727 111.40625 C41.94622314 112.48897186 41.95274902 113.57169373 41.95947266 114.68722534 C41.86581123 121.99340985 41.86581123 121.99340985 39.49790955 125.26782227 C36.4459009 127.25382429 34.75493735 127.75645974 31.14697266 127.77416992 C30.26490143 127.78054977 29.3828302 127.78692963 28.47402954 127.79350281 C27.51580292 127.79461563 26.55757629 127.79572845 25.5703125 127.796875 C24.08572037 127.8018676 24.08572037 127.8018676 22.57113647 127.80696106 C20.4678392 127.812034 18.36453385 127.81436927 16.26123047 127.81420898 C13.07896108 127.81637379 9.89705074 127.83446494 6.71484375 127.85351562 C-9.92782899 127.90230549 -25.78254712 127.81675514 -39.1171875 116.484375 C-48.37255762 106.6612963 -49.94368212 96.2599914 -49.8046875 83.125 C-49.24134765 73.78816363 -45.52481007 64.38640934 -38.70703125 57.80859375 C-36.73236925 56.26455548 -34.73965287 54.92293842 -32.59375 53.62890625 C-31.94277344 53.22800781 -31.29179687 52.82710937 -30.62109375 52.4140625 C-27.03526775 50.41084758 -23.93958557 49.40437027 -19.83984375 49.0234375 C-19.04118896 48.94585205 -18.24253418 48.8682666 -17.41967773 48.78833008 C-16.81712158 48.73572021 -16.21456543 48.68311035 -15.59375 48.62890625 C-15.61993408 47.35249268 -15.64611816 46.0760791 -15.6730957 44.76098633 C-15.76370416 40.01816385 -15.82103827 35.27541763 -15.8684082 30.53198242 C-15.89352806 28.48041919 -15.92763036 26.42894524 -15.97094727 24.37768555 C-16.03171002 21.42604534 -16.05998492 18.47558975 -16.08203125 15.5234375 C-16.10783768 14.60867142 -16.1336441 13.69390533 -16.16023254 12.75141907 C-16.16208091 8.53977433 -15.94582531 6.20911973 -13.7253418 2.54980469 C-9.16870913 -0.24520473 -5.25211007 -0.07058106 0 0 Z " fill="#FED05B" transform="translate(400.59375,120.37109375)"/>
<path d="M0 0 C0.76819565 -0.00365067 1.5363913 -0.00730133 2.3278656 -0.01106262 C4.85064232 -0.01912679 7.37276861 -0.0055979 9.89550781 0.0090332 C11.65334065 0.0095521 13.41117408 0.00903327 15.16900635 0.00752258 C18.84404212 0.00761211 22.51885759 0.01800492 26.19384766 0.03613281 C30.91075182 0.05888627 35.62733622 0.05934994 40.34428024 0.05261517 C43.96959288 0.04927989 47.59483218 0.0558958 51.22013092 0.0657444 C52.96011217 0.06959931 54.70010157 0.07074341 56.44008636 0.06915855 C58.86516495 0.06878903 61.28982749 0.08137365 63.71484375 0.09765625 C64.79798103 0.09394012 64.79798103 0.09394012 65.90299988 0.09014893 C70.86988197 0.14356361 70.86988197 0.14356361 73.09863281 2.37231445 C73.32910156 4.9387207 73.32910156 4.9387207 73.28613281 7.93481445 C73.2796875 8.92610352 73.27324219 9.91739258 73.26660156 10.9387207 C73.09863281 13.37231445 73.09863281 13.37231445 72.09863281 14.37231445 C61.62846621 14.47184075 51.23929666 11.61774716 41.09863281 9.37231445 C41.09863281 15.64231445 41.09863281 21.91231445 41.09863281 28.37231445 C50.99863281 28.37231445 60.89863281 28.37231445 71.09863281 28.37231445 C71.09863281 32.00231445 71.09863281 35.63231445 71.09863281 39.37231445 C61.19863281 39.37231445 51.29863281 39.37231445 41.09863281 39.37231445 C41.1334375 44.00649414 41.16824219 48.64067383 41.20410156 53.4152832 C41.21943393 56.35474896 41.233876 59.29416528 41.24511719 62.23364258 C41.26303641 66.89723984 41.28421317 71.56066006 41.32495117 76.22412109 C41.35759649 79.98479971 41.37549666 83.7452884 41.38326454 87.50609779 C41.38879881 88.93940533 41.39960602 90.37270271 41.41582298 91.80592918 C41.43766337 93.81647949 41.43885878 95.82722173 41.43920898 97.83789062 C41.44587082 98.98150558 41.45253265 100.12512054 41.45939636 101.3033905 C40.94430875 105.68511011 39.380038 108.16872353 36.19372559 111.1615448 C33.77265625 112.56069872 32.35720432 112.74687669 29.57714844 112.74462891 C28.24556702 112.75397209 28.24556702 112.75397209 26.88708496 112.76350403 C25.4603949 112.74968941 25.4603949 112.74968941 24.00488281 112.7355957 C22.52936951 112.73634346 22.52936951 112.73634346 21.02404785 112.73710632 C18.94618711 112.73476787 16.86832343 112.72505288 14.79052734 112.70849609 C11.61041935 112.6849019 8.43114986 112.68793729 5.25097656 112.69458008 C3.23144032 112.68900318 1.2119076 112.68189324 -0.80761719 112.6730957 C-1.7587439 112.67400711 -2.70987061 112.67491852 -3.68981934 112.67585754 C-4.57754028 112.66632553 -5.46526123 112.65679352 -6.37988281 112.64697266 C-7.15835571 112.64236526 -7.93682861 112.63775787 -8.7388916 112.63301086 C-11.22590601 112.3331898 -12.78971105 111.7136806 -14.90136719 110.37231445 C-16.92982292 107.32963085 -17.15222233 106.74533963 -17.1620636 103.33146667 C-17.16914841 102.51142654 -17.17623322 101.69138641 -17.18353271 100.84649658 C-17.1810553 99.9503363 -17.17857788 99.05417603 -17.17602539 98.13085938 C-17.18113632 97.18420914 -17.18624725 96.2375589 -17.19151306 95.26222229 C-17.20543859 92.12567867 -17.20444974 88.98935411 -17.20214844 85.8527832 C-17.20603437 83.67425962 -17.21036883 81.4957368 -17.21513367 79.31721497 C-17.22260271 74.74660794 -17.22230009 70.17607814 -17.21704102 65.60546875 C-17.21125228 59.75102478 -17.22815983 53.89689779 -17.25138569 48.04250622 C-17.2661272 43.54118504 -17.26699403 39.03994006 -17.26387596 34.53859901 C-17.26438918 32.38045945 -17.26962712 30.22231562 -17.27968788 28.06419945 C-17.29203975 25.04324228 -17.2852673 22.02290062 -17.27368164 19.00195312 C-17.28132538 18.11186554 -17.28896912 17.22177795 -17.29684448 16.30471802 C-17.25446625 11.29918915 -16.91395875 7.57892052 -13.90136719 3.37231445 C-9.4171899 0.28971563 -5.2939904 -0.05667532 0 0 Z " fill="#FDCF5B" transform="translate(69.9013671875,135.627685546875)"/>
<path d="M0 0 C8.88510097 5.74579463 13.71717149 13.80922621 16.15234375 24.00415039 C18.58084428 36.93157911 16.6763474 49.86521453 9.75 61.0625 C2.92038186 70.47446132 -6.25242671 75.49113577 -17.6875 77.5 C-27.91161056 78.77801382 -38.51509628 79.32840477 -48.4375 76.1875 C-49.31921875 75.919375 -50.2009375 75.65125 -51.109375 75.375 C-61.05605009 72.07775964 -69.08205887 67.42890146 -74.4375 58.1875 C-80.30717872 46.03425495 -81.96145739 31.15909665 -77.5 18.25 C-72.02782561 6.07441199 -63.45794418 0.00663024 -51.4375 -4.8125 C-35.43136602 -10.7451218 -14.68914472 -8.04559615 0 0 Z " fill="#FDCF5B" transform="translate(326.4375,172.8125)"/>
<path d="M0 0 C0.90492188 0.42410156 1.80984375 0.84820312 2.7421875 1.28515625 C11.59080005 5.99828964 16.62402205 12.93536704 20.18408203 22.16357422 C21.64070233 27.22731289 21.57645488 32.20352606 21.5 37.4375 C21.52320313 39.02014648 21.52320313 39.02014648 21.546875 40.63476562 C21.49361026 51.45416694 18.53458385 61.04585696 11 69 C0.55264199 78.89628857 -14.52945631 81.54007389 -28.48046875 81.2421875 C-41.99521751 80.31220479 -55.25050565 77.46076074 -65 67.25 C-74.15997936 55.60634465 -74.81998866 43.16317328 -74 29 C-72.29452163 17.78681542 -65.96312942 9.64409752 -57 3 C-41.22243981 -6.64726978 -16.77924503 -8.03901142 0 0 Z " fill="#FDCF5B" transform="translate(217,170)"/>
<path d="M0 0 C0.86139587 -0.01606293 1.72279175 -0.03212585 2.61029053 -0.04867554 C6.55659187 -0.09317437 10.50272503 -0.13420224 14.44921875 -0.15722656 C16.52875979 -0.17377205 18.60824428 -0.2010434 20.6875 -0.23925781 C23.6881252 -0.29411821 26.68741689 -0.31591592 29.68847656 -0.33056641 C30.61368103 -0.35323578 31.5388855 -0.37590515 32.49212646 -0.39926147 C36.86441397 -0.38500391 39.89600787 -0.23672653 43.40039062 2.53808594 C46.85381768 6.31297192 46.95735164 8.982809 47.00268555 13.91772461 C47.01617538 15.092267 47.02966522 16.26680939 47.04356384 17.47694397 C47.05400223 18.74573898 47.06444061 20.014534 47.07519531 21.32177734 C47.09969423 23.3085124 47.12420435 25.2952474 47.14939213 27.28197384 C47.21021751 32.18765151 47.26097303 37.09342058 47.3059082 41.99926758 C47.33150974 44.75244531 47.36229945 47.50547362 47.3986969 50.25852966 C47.43264749 52.85483957 47.45850137 55.45126979 47.47569275 58.04774475 C47.50065575 59.80483009 47.50065575 59.80483009 47.52612305 61.59741211 C47.53643051 62.63205093 47.54673798 63.66668976 47.55735779 64.73268127 C47.58915697 67.36972646 47.58915697 67.36972646 49.82910156 69.19287109 C52.27873333 69.21540553 52.27873333 69.21540553 54.95410156 68.81787109 C55.86417969 68.70701172 56.77425781 68.59615234 57.71191406 68.48193359 C58.41058594 68.38654297 59.10925781 68.29115234 59.82910156 68.19287109 C59.82688095 67.3557106 59.82466034 66.51855011 59.82237244 65.65602112 C59.80237124 57.78319695 59.78712831 49.91038126 59.77728939 42.03753757 C59.77206115 37.98961367 59.76496457 33.94171069 59.75366211 29.89379883 C59.74283113 25.99051138 59.73682428 22.08724411 59.73422432 18.18394279 C59.73237045 16.69153462 59.72875056 15.19912761 59.72337151 13.70672798 C59.71615826 11.6233897 59.71511074 9.54013578 59.71557617 7.45678711 C59.71335556 6.26875992 59.71113495 5.08073273 59.70884705 3.85670471 C59.82910156 1.19287109 59.82910156 1.19287109 60.82910156 0.19287109 C62.82519531 0.02490234 62.82519531 0.02490234 65.26660156 0.00537109 C66.47123047 -0.01589844 66.47123047 -0.01589844 67.70019531 -0.03759766 C69.82910156 0.19287109 69.82910156 0.19287109 71.82910156 2.19287109 C72.02725341 4.6211717 72.10193423 6.93541128 72.08789062 9.36474609 C72.09139526 10.10309692 72.0948999 10.84144775 72.09851074 11.60217285 C72.10733206 14.04916717 72.1014776 16.4958737 72.09472656 18.94287109 C72.0960731 20.63916072 72.09801354 22.33544998 72.1005249 24.03173828 C72.1034767 27.58939279 72.09917675 31.14694698 72.08984375 34.70458984 C72.07844915 39.2713825 72.08500833 43.8379401 72.09698868 48.40472412 C72.10420579 51.90822124 72.10192004 55.41166236 72.09673309 58.91516113 C72.09539618 60.59932482 72.09704576 62.28349355 72.1016922 63.96765137 C72.10675503 66.31890383 72.09905089 68.66977232 72.08789062 71.02099609 C72.09193909 71.72131958 72.09598755 72.42164307 72.10015869 73.14318848 C72.05763072 77.96434194 72.05763072 77.96434194 69.82910156 80.19287109 C67.66503906 80.38818359 67.66503906 80.38818359 65.20410156 80.31787109 C64.38683594 80.29982422 63.56957031 80.28177734 62.72753906 80.26318359 C62.10105469 80.23998047 61.47457031 80.21677734 60.82910156 80.19287109 C60.49910156 78.54287109 60.16910156 76.89287109 59.82910156 75.19287109 C59.22324219 75.45841797 58.61738281 75.72396484 57.99316406 75.99755859 C57.15527344 76.35076172 56.31738281 76.70396484 55.45410156 77.06787109 C54.64199219 77.41591797 53.82988281 77.76396484 52.99316406 78.12255859 C44.19492537 81.09875292 35.55594714 81.53829192 26.32446289 81.50854492 C24.26623177 81.50537052 22.2094233 81.52897854 20.15136719 81.55419922 C10.66117699 81.60041083 1.58488592 81.09547091 -5.5587616 74.16438293 C-11.53110952 66.86068864 -11.77676831 57.25888629 -11.73730469 48.26318359 C-11.74350327 47.06982391 -11.74970184 45.87646423 -11.75608826 44.64694214 C-11.76314671 42.14435639 -11.76008263 39.64172329 -11.74731445 37.13916016 C-11.73335971 33.30723724 -11.76768985 29.47771676 -11.80566406 25.64599609 C-11.80661453 23.20589133 -11.80476033 20.76578351 -11.79980469 18.32568359 C-11.8130629 17.18293976 -11.82632111 16.04019592 -11.83998108 14.86282349 C-11.73652397 6.06942629 -11.73652397 6.06942629 -8.7565918 2.99707031 C-5.50843631 0.73063003 -3.88805483 0.06586864 0 0 Z " fill="#FBCE5A" transform="translate(642.1708984375,167.80712890625)"/>
<path d="M0 0 C1.23191826 -0.00956978 1.23191826 -0.00956978 2.48872375 -0.01933289 C3.3731163 -0.02044571 4.25750885 -0.02155853 5.16870117 -0.02270508 C6.53933968 -0.02769768 6.53933968 -0.02769768 7.93766785 -0.03279114 C9.87185157 -0.03785458 11.80604403 -0.04019964 13.74023438 -0.04003906 C16.68984517 -0.04222019 19.63907869 -0.06036727 22.58862305 -0.0793457 C24.46948115 -0.08228087 26.35034102 -0.08426484 28.23120117 -0.08520508 C29.10952103 -0.09239059 29.98784088 -0.09957611 30.89277649 -0.10697937 C35.58469419 -0.08960285 39.56222457 0.12695642 43.89916992 2.14526367 C46.31870518 5.77456656 46.16791634 7.50880803 46.20556641 11.83227539 C46.21388992 12.50743195 46.22221344 13.1825885 46.23078918 13.87820435 C46.25488749 16.11051193 46.26366097 18.3425273 46.27026367 20.57495117 C46.27923032 22.12810351 46.28835217 23.68125496 46.29762268 25.23440552 C46.31411486 28.49100849 46.32181316 31.74750864 46.32470703 35.00415039 C46.33009051 39.17299563 46.3677667 43.3408717 46.41345119 47.50944328 C46.44322505 50.71798208 46.45043064 53.92628761 46.45143318 57.13495255 C46.45563508 58.67154503 46.46806838 60.20813824 46.48895073 61.74459457 C46.51587441 63.8969376 46.51103979 66.04703626 46.49853516 68.19946289 C46.5036058 69.4228537 46.50867645 70.64624451 46.51390076 71.90670776 C45.71702316 76.10485841 44.26235131 77.57821819 40.89916992 80.14526367 C38.58520508 80.76672363 38.58520508 80.76672363 36.18823242 80.76049805 C34.83157471 80.77445618 34.83157471 80.77445618 33.44750977 80.78869629 C32.48280762 80.77230103 31.51810547 80.75590576 30.52416992 80.73901367 C29.02104248 80.7390741 29.02104248 80.7390741 27.48754883 80.73913574 C25.3727388 80.73378367 23.25792907 80.71621442 21.14331055 80.68725586 C17.9102689 80.64540734 14.67931173 80.64618851 11.44604492 80.65307617 C9.38873881 80.64258298 7.33144342 80.62964419 5.27416992 80.61401367 C4.30946777 80.61381226 3.34476562 80.61361084 2.35083008 80.61340332 C-6.27268294 80.4616891 -6.27268294 80.4616891 -10.10083008 77.14526367 C-11.23332593 73.74777611 -11.24861091 71.11713715 -11.27783203 67.53417969 C-11.28440323 66.86717041 -11.29097443 66.20016113 -11.29774475 65.51293945 C-11.31743666 63.30834843 -11.32912903 61.10382527 -11.33911133 58.89916992 C-11.34318686 58.14566694 -11.34726238 57.39216396 -11.35146141 56.61582756 C-11.3723013 52.63011831 -11.38661386 48.64444331 -11.39599609 44.65869141 C-11.40707642 40.54148513 -11.44150024 36.42481696 -11.48116779 32.30780125 C-11.50729672 29.14136238 -11.5156844 25.97505274 -11.51927757 22.80851555 C-11.52415061 21.29064218 -11.53578512 19.77277486 -11.55431557 18.25500679 C-11.57863716 16.13148195 -11.57775629 14.00936335 -11.57080078 11.88574219 C-11.57666702 10.67789566 -11.58253326 9.47004913 -11.58857727 8.2256012 C-11.00278253 4.5260504 -10.04651011 3.38540507 -7.10083008 1.14526367 C-4.38696116 0.2406407 -2.78990422 0.01474223 0 0 Z " fill="#FED05B" transform="translate(468.100830078125,167.854736328125)"/>
<path d="M0 0 C6.82381438 3.84379418 12.10969817 9.26659452 14.625 16.8125 C15.43450649 25.26620704 15.58255511 32.53986227 10.5390625 39.72265625 C5.64983516 45.06089426 -0.87788992 49.14244348 -8.1015625 50.21875 C-16.154945 50.47923677 -22.02063623 48.89000574 -28.375 43.8125 C-34.8285891 36.44512838 -36.67996343 30.80151506 -36.59375 21.11328125 C-36.16853452 14.69708334 -34.03939877 9.3572988 -29.375 4.8125 C-19.95522424 -1.53965142 -10.95483573 -5.23926926 0 0 Z " fill="#FCCF5B" transform="translate(496.375,111.1875)"/>
<path d="M0 0 C0 19.47 0 38.94 0 59 C-8.83566623 57.73776197 -12.64558874 55.82154101 -18.38671875 49.328125 C-22.84998142 42.88719388 -23.5541143 37.36556542 -23.5 29.6875 C-23.49427979 28.75413818 -23.48855957 27.82077637 -23.48266602 26.85913086 C-23.25011534 17.91493446 -21.24159126 11.81594488 -14.6875 5.5625 C-10.36279494 2.2219729 -5.53557148 0 0 0 Z " fill="#5A3F16" transform="translate(560,178)"/>
<path d="M0 0 C0 19.14 0 38.28 0 58 C-8.2065782 56.82763169 -13.03253479 54.51410354 -18.375 48.1875 C-23.73573423 37.67221362 -25.09783961 26.45433861 -21.4375 15 C-18.74987845 8.61808593 -14.71729275 4.71910358 -8.9375 1.0625 C-6 0 -6 0 0 0 Z " fill="#563B14" transform="translate(385,179)"/>
<path d="M0 0 C4.86327737 3.75895238 6.66997455 8.07258063 8 14 C8.28607676 16.96460801 8.33416151 19.89795457 8.3125 22.875 C8.30758545 23.6693042 8.3026709 24.4636084 8.29760742 25.28198242 C8.14956096 32.67747261 7.34420376 38.25556633 2.4375 44 C-1.09531076 46.89871652 -3.34883092 47.37052119 -7.96875 47.26171875 C-11.4461083 46.81367451 -12.76733439 45.67919873 -15 43 C-18.36755502 36.78088629 -18.30077459 29.83475347 -18.375 22.9375 C-18.38893799 22.09896484 -18.40287598 21.26042969 -18.41723633 20.39648438 C-18.37340078 14.58058931 -17.53452108 9.28723679 -15 4 C-10.31963189 -0.56621279 -6.38573538 -2.1127526 0 0 Z " fill="#563C15" transform="translate(324,185)"/>
<path d="M0 0 C3.63789084 1.22365419 5.44384874 3.44717196 7.1484375 6.72265625 C11.51913067 16.52574944 11.98448091 29.6359171 8.1484375 39.72265625 C5.84779814 43.7291674 3.46328241 47.08162227 -1.13671875 48.35546875 C-4.97135451 48.54752062 -7.33956155 48.00091764 -10.7265625 46.16015625 C-16.49751202 39.54053769 -16.34341661 32.70016053 -16.2890625 24.28515625 C-16.30904297 23.19138672 -16.32902344 22.09761719 -16.34960938 20.97070312 C-16.34469744 12.81197554 -15.0721347 7.49532655 -9.6640625 1.16015625 C-6.13621013 -0.6429683 -3.86364462 -0.66105547 0 0 Z " fill="#573C15" transform="translate(217.8515625,184.27734375)"/>
<path d="M0 0 C2.97 0 5.94 0 9 0 C9 8.25 9 16.5 9 25 C10.98 25 12.96 25 15 25 C16.71443219 23.28556781 16.23052967 20.99554759 16.31640625 18.65234375 C16.35830078 17.57275391 16.40019531 16.49316406 16.44335938 15.38085938 C16.48267578 14.24455078 16.52199219 13.10824219 16.5625 11.9375 C16.62727539 10.22723633 16.62727539 10.22723633 16.69335938 8.48242188 C16.79982839 5.65507805 16.90184207 2.82764262 17 0 C19.97 0 22.94 0 26 0 C26.33 7.92 26.66 15.84 27 24 C28.65 24.33 30.3 24.66 32 25 C33.71443219 23.28556781 33.23052967 20.99554759 33.31640625 18.65234375 C33.37924805 17.03295898 33.37924805 17.03295898 33.44335938 15.38085938 C33.48267578 14.24455078 33.52199219 13.10824219 33.5625 11.9375 C33.60568359 10.79732422 33.64886719 9.65714844 33.69335938 8.48242188 C33.79982839 5.65507805 33.90184207 2.82764262 34 0 C36.97 0 39.94 0 43 0 C43.11662261 4.04142215 43.1873935 8.08240865 43.25 12.125 C43.30027344 13.83816406 43.30027344 13.83816406 43.3515625 15.5859375 C43.42658173 22.03759089 43.46229912 26.1584458 39 31 C35.61989632 33.85430977 33.73506292 34.92524784 29.3125 35.375 C26 35 26 35 23 33 C21.12949873 33.26721447 19.25921195 33.53611821 17.390625 33.81640625 C12.85889548 34.16443123 8.19755653 33.76636307 4 32 C0.07535611 28.1747981 -0.25938471 25.14496808 -0.390625 19.7265625 C-0.36417244 17.35905871 -0.31666797 14.99171276 -0.25 12.625 C-0.23195312 11.41199219 -0.21390625 10.19898438 -0.1953125 8.94921875 C-0.14832216 5.9653321 -0.08263372 2.98307721 0 0 Z " fill="#87BB46" transform="translate(53,47)"/>
<path d="M0 0 C0.99 0 1.98 0 3 0 C3.33 0.66 3.66 1.32 4 2 C4.66 1.67 5.32 1.34 6 1 C11.04746398 -0.68248799 15.35862761 -0.55744723 20.3125 1.125 C21.6428125 1.558125 21.6428125 1.558125 23 2 C23.99 1.34 24.98 0.68 26 0 C29.98598983 -0.80337779 33.57146289 -0.86241315 37.109375 1.2734375 C39.5487885 3.33988282 41.5615922 5.12318439 43 8 C43.08510205 9.9593604 43.10717656 11.92162794 43.09765625 13.8828125 C43.09443359 15.04941406 43.09121094 16.21601562 43.08789062 17.41796875 C43.07532227 19.25294922 43.07532227 19.25294922 43.0625 21.125 C43.05798828 22.35605469 43.05347656 23.58710937 43.04882812 24.85546875 C43.0370133 27.90369392 43.02054028 30.95182314 43 34 C40.36 34 37.72 34 35 34 C34.970271 32.97060303 34.970271 32.97060303 34.93994141 31.92041016 C34.84489055 28.82154221 34.73513153 25.72336706 34.625 22.625 C34.5940625 21.54476562 34.563125 20.46453125 34.53125 19.3515625 C34.47324219 17.8046875 34.47324219 17.8046875 34.4140625 16.2265625 C34.3826416 15.27346191 34.3512207 14.32036133 34.31884766 13.33837891 C34.21444204 10.81104824 34.21444204 10.81104824 32 9 C30.35 9 28.7 9 27 9 C26.67 17.25 26.34 25.5 26 34 C23.03 34 20.06 34 17 34 C16.505 22.12 16.505 22.12 16 10 C12.36380344 8.91915479 12.36380344 8.91915479 10 9 C9.67 17.25 9.34 25.5 9 34 C6.03 34 3.06 34 0 34 C0 22.78 0 11.56 0 0 Z " fill="#89BE48" transform="translate(221,47)"/>
<path d="M0 0 C5.08550654 2.83192913 8.14598903 6.69846162 9.75 12.3125 C10.37434624 19.05543934 8.78556945 23.82458178 4.5 29.0625 C0.36316975 32.44717929 -3.40403572 34.0439961 -8.6875 34.8125 C-13.43886299 34.14564204 -16.64594097 32.4621342 -20.25 29.3125 C-21.95032834 27.03562355 -23.02528842 24.90888855 -24.25 22.3125 C-24.58 21.6525 -24.91 20.9925 -25.25 20.3125 C-26.13160645 14.24200991 -25.20507812 10.04695245 -21.68359375 5.0390625 C-15.89427597 -1.93335837 -8.21872782 -3.8098028 0 0 Z " fill="#88BD47" transform="translate(207.25,47.6875)"/>
<path d="M0 0 C1.23046875 2.140625 1.23046875 2.140625 2 4 C1.25556641 4.92619141 1.25556641 4.92619141 0.49609375 5.87109375 C-4.05304786 11.54241451 -8.55375434 17.24766967 -13 23 C-11.9275 22.505 -10.855 22.01 -9.75 21.5 C-6.74583192 20.11346089 -5.54065105 20 -2 20 C0.25 22 0.25 22 2 24 C0.2561389 28.19231253 -1.75820496 29.4042138 -5.7890625 31.23046875 C-10.20232301 32.76653292 -13.80500459 32.94128453 -18.140625 31.08203125 C-23.2595944 28.15284321 -26.52378606 24.69053485 -28.75 19.125 C-29.55427578 12.2886559 -29.39709474 8.46626758 -25.4296875 2.76171875 C-18.68953248 -5.54377282 -8.57377455 -6.3859838 0 0 Z " fill="#89BE48" transform="translate(129,50)"/>
<path d="M0 0 C3.41748066 1.90590267 4.9286816 3.7291836 7.25 6.8125 C6.00283203 8.25882813 6.00283203 8.25882813 4.73046875 9.734375 C3.63274647 11.01035987 2.53509388 12.28640469 1.4375 13.5625 C0.89029297 14.19671875 0.34308594 14.8309375 -0.22070312 15.484375 C-2.83391179 18.52519962 -5.4058129 21.55531371 -7.75 24.8125 C-4.03111761 24.30537967 -1.01545761 23.69641785 2.25 21.8125 C3.9 23.7925 5.55 25.7725 7.25 27.8125 C-1.46355353 35.33784169 -1.46355353 35.33784169 -8.59375 35.125 C-14.05277071 34.33383758 -17.78542393 32.02440327 -21.1875 27.75 C-24.28468233 21.92729722 -24.87474518 15.95328162 -23.13671875 9.5546875 C-21.11321273 4.86585857 -18.35975842 2.10839702 -13.89453125 -0.34375 C-8.98780144 -2.27426664 -5.00965498 -1.58639074 0 0 Z " fill="#89BE48" transform="translate(292.75,47.1875)"/>
<path d="M0 0 C2.97 0 5.94 0 9 0 C9 4.29 9 8.58 9 13 C13.29 13 17.58 13 22 13 C22 15.97 22 18.94 22 22 C17.71 22 13.42 22 9 22 C9.33 26.95 9.66 31.9 10 37 C13.96 37.33 17.92 37.66 22 38 C22 40.97 22 43.94 22 47 C9.82232808 47.89982797 9.82232808 47.89982797 4.40234375 43.6796875 C0.420302 38.91011103 -0.36025563 34.7290323 -0.1875 28.625 C-0.16042969 27.37976563 -0.13335937 26.13453125 -0.10546875 24.8515625 C-0.07066406 23.91054688 -0.03585937 22.96953125 0 22 C-1.32 22 -2.64 22 -4 22 C-4 19.03 -4 16.06 -4 13 C-2.68 13 -1.36 13 0 13 C0 8.71 0 4.42 0 0 Z " fill="#88BB47" transform="translate(324,34)"/>
<path d="M0 0 C3.52144115 1.89114432 6.32851614 4.0316846 9 7 C7.60667426 10.36720387 6.0210714 11.9859524 3 14 C2.484375 13.34 1.96875 12.68 1.4375 12 C-0.94087916 9.68459896 -0.94087916 9.68459896 -4.5625 9.5625 C-7.91869174 9.70739127 -7.91869174 9.70739127 -9.875 11.375 C-11.9288733 14.34170588 -12.09646536 15.9429556 -11.75 19.5 C-11.68296875 20.2940625 -11.6159375 21.088125 -11.546875 21.90625 C-11.14822839 24.38135838 -11.14822839 24.38135838 -8 26 C-4.47704517 26.37478243 -2.65118137 26.41127245 0.375 24.5 C0.91125 24.005 1.4475 23.51 2 23 C5.36720387 24.39332574 6.9859524 25.9789286 9 29 C4.53630075 33.84630204 1.72224318 35.68761144 -4.8125 36.4375 C-9.80505649 36.2773614 -13.29697557 34.25297669 -17 31 C-20.38878536 27.22556594 -22.28953751 23.60704011 -22.5625 18.5 C-22.21235239 13.01119959 -20.30407473 8.42439195 -16.50390625 4.42578125 C-11.39262183 -0.02269322 -6.55630431 -0.82934448 0 0 Z " fill="#88BD47" transform="translate(171,46)"/>
<path d="M0 0 C4.10488479 2.82780952 7.56757505 6.44765011 9.8125 10.9375 C9.88246014 12.64452735 9.89690154 14.35418003 9.875 16.0625 C9.86597656 16.97257812 9.85695313 17.88265625 9.84765625 18.8203125 C9.83605469 19.51898438 9.82445312 20.21765625 9.8125 20.9375 C8.1914897 21.63435498 6.56553934 22.31972861 4.9375 23 C4.03257812 23.38285156 3.12765625 23.76570313 2.1953125 24.16015625 C-0.1875 24.9375 -0.1875 24.9375 -2.1875 23.9375 C-1.5275 22.9475 -0.8675 21.9575 -0.1875 20.9375 C0.28723531 17.89036172 0.26126358 14.98795623 -0.1875 11.9375 C-2.43618762 8.96923235 -4.00389603 8.96372914 -7.6875 8.4375 C-11.26769721 8.63889821 -11.26769721 8.63889821 -13.6875 11 C-15.66108883 14.8649448 -15.38942801 16.80587247 -14.1875 20.9375 C-11.85605057 23.9121079 -9.54339409 25.32638942 -6.1875 26.9375 C-7.59203643 27.83184157 -9.01171869 28.70243192 -10.4375 29.5625 C-11.62085938 30.29339844 -11.62085938 30.29339844 -12.828125 31.0390625 C-15.1875 31.9375 -15.1875 31.9375 -17.34765625 31.23828125 C-20.80995208 28.79041604 -22.85623466 25.93129603 -24.1875 21.9375 C-24.933342 15.34212572 -24.7345685 10.05983154 -20.73046875 4.59765625 C-14.92243714 -1.65149168 -7.97335643 -2.65778548 0 0 Z " fill="#89BE48" transform="translate(373.1875,47.0625)"/>
<path d="M0 0 C2.97 0 5.94 0 9 0 C9 15.51 9 31.02 9 47 C6.03 47 3.06 47 0 47 C0 31.49 0 15.98 0 0 Z " fill="#88BB47" transform="translate(136,34)"/>
<path d="M0 0 C2.9375 2.0625 2.9375 2.0625 5 5 C5.69151325 9.30274909 5.51557405 11.20945312 3.125 14.875 C0.58588982 17.41411018 -0.31177839 17.9251933 -3.875 18.3125 C-7 18 -7 18 -9.3125 16.125 C-11.79961753 12.99307422 -12.15405705 11.48718389 -11.8125 7.5625 C-11.4278366 4.608665 -11.24190332 3.30703113 -9.375 0.9375 C-5.96803659 -0.40735398 -3.63267682 -0.50984938 0 0 Z " fill="#553D15" transform="translate(203,55)"/>
<path d="M0 0 C-1.4639923 3.06875309 -3.14009636 5.90434743 -5 8.75 C-5.515625 9.54921875 -6.03125 10.3484375 -6.5625 11.171875 C-7.2740625 12.07679687 -7.2740625 12.07679687 -8 13 C-8.66 13 -9.32 13 -10 13 C-10.60737527 5.8329718 -10.60737527 5.8329718 -7.8125 2 C-4.80512535 -0.13857753 -3.58848221 -0.51264032 0 0 Z " fill="#574217" transform="translate(119,55)"/>
<path d="M0 0 C-6.15034169 9.59453303 -6.15034169 9.59453303 -10 13 C-10.61741425 4.97361478 -10.61741425 4.97361478 -8.375 1.4375 C-5.40106977 -0.3625104 -3.41756151 -0.31068741 0 0 Z " fill="#563F16" transform="translate(288,55)"/>
<path d="M0 0 C0.66 0.33 1.32 0.66 2 1 C-3.28 6.28 -8.56 11.56 -14 17 C-14 12.95607032 -12.51908749 11.99868382 -9.8125 9.0625 C-9.03519531 8.20785156 -8.25789063 7.35320312 -7.45703125 6.47265625 C-5.09786332 4.09848566 -2.65532732 2.0327639 0 0 Z " fill="#34220B" transform="translate(26,94)"/>
</svg>
