<svg width="1024" height="1024" viewBox="0 0 1024 1024" fill="none" xmlns="http://www.w3.org/2000/svg">
<rect width="1024" height="1024" fill="#FFD15C"/>
<path d="M497.709 535.49C500.008 535.49 502.011 535.687 503.718 536.081C505.426 536.475 506.838 537.23 507.954 538.347C509.136 539.463 510.023 541.006 510.614 542.977C511.205 544.947 511.5 547.508 511.5 550.66L511.5 598.044C511.5 602.97 511.139 607.862 510.417 612.722C509.76 617.582 508.545 622.212 506.772 626.612C504.999 631.012 502.536 635.084 499.384 638.828C496.297 642.637 492.291 645.92 487.365 648.679C482.44 651.437 476.529 653.604 469.633 655.18C462.738 656.757 454.627 657.545 445.301 657.545C434.334 657.545 424.844 656.691 416.832 654.983C408.885 653.341 402.121 651.076 396.538 648.186C390.956 645.362 386.425 641.98 382.944 638.039C379.529 634.165 376.836 629.962 374.866 625.43C372.962 620.964 371.681 616.301 371.024 611.442C370.367 606.647 370.039 601.853 370.039 597.059L370.039 550.66C370.039 547.508 370.335 544.947 370.926 542.977C371.517 541.006 372.37 539.463 373.487 538.347C374.603 537.23 376.015 536.475 377.723 536.081C379.43 535.687 381.433 535.49 383.732 535.49L497.709 535.49ZM443.233 643.655C451.376 643.655 458.797 642.998 465.496 641.684C472.195 640.371 477.908 638.302 482.637 635.478C487.365 632.654 491.043 629.042 493.67 624.642C496.297 620.308 497.643 615.086 497.709 608.979L383.732 608.979C383.798 615.086 385.374 620.34 388.461 624.741C391.613 629.141 395.882 632.72 401.267 635.478C406.652 638.302 412.924 640.371 420.083 641.684C427.307 642.998 435.023 643.655 443.233 643.655Z" fill="#543A14"/>
<path d="M665.497 533.563C665.497 531.264 665.694 529.261 666.089 527.554C666.483 525.846 667.238 524.434 668.354 523.318C669.471 522.136 671.014 521.249 672.984 520.658C674.954 520.067 677.516 519.771 680.668 519.771H728.052C732.977 519.771 737.87 520.133 742.73 520.855C747.59 521.512 752.22 522.727 756.62 524.5C761.02 526.273 765.092 528.736 768.835 531.888C772.644 534.975 775.928 538.981 778.686 543.907C781.445 548.832 783.612 554.743 785.188 561.639C786.764 568.534 787.552 576.645 787.552 585.971C787.552 596.938 786.699 606.428 784.991 614.44C783.349 622.387 781.083 629.151 778.194 634.734C775.37 640.316 771.988 644.847 768.047 648.328C764.172 651.743 759.969 654.436 755.438 656.406C750.972 658.31 746.309 659.591 741.449 660.248C736.655 660.905 731.861 661.233 727.067 661.233H680.668C677.516 661.233 674.954 660.937 672.984 660.346C671.014 659.755 669.471 658.901 668.354 657.785C667.238 656.669 666.483 655.257 666.089 653.549C665.694 651.842 665.497 649.839 665.497 647.54V533.563ZM773.662 588.039C773.662 579.896 773.006 572.475 771.692 565.776C770.379 559.077 768.31 553.364 765.486 548.635C762.662 543.907 759.05 540.229 754.65 537.602C750.315 534.975 745.094 533.629 738.986 533.563V647.54C745.094 647.474 750.348 645.898 754.748 642.811C759.148 639.659 762.728 635.39 765.486 630.005C768.31 624.62 770.379 618.348 771.692 611.189C773.006 603.965 773.662 596.249 773.662 588.039Z" fill="#543A14"/>
<path d="M656.631 524.706C656.631 522.407 656.828 520.404 657.222 518.696C657.616 516.989 658.372 515.577 659.488 514.46C660.605 513.278 662.148 512.392 664.118 511.801C666.088 511.21 668.65 510.914 671.802 510.914H719.186C724.111 510.914 729.004 511.275 733.864 511.998C738.724 512.654 743.354 513.869 747.754 515.643C752.154 517.416 756.226 519.879 759.969 523.031C763.778 526.118 767.062 530.124 769.82 535.049C772.578 539.975 774.746 545.885 776.322 552.781C777.898 559.677 778.686 567.788 778.686 577.113C778.686 588.081 777.832 597.571 776.125 605.583C774.483 613.529 772.217 620.294 769.328 625.876C766.504 631.458 763.121 635.99 759.181 639.471C755.306 642.886 751.103 645.578 746.572 647.548C742.106 649.453 737.443 650.734 732.583 651.39C727.789 652.047 722.995 652.375 718.2 652.375H671.802C668.65 652.375 666.088 652.08 664.118 651.489C662.148 650.898 660.605 650.044 659.488 648.928C658.372 647.811 657.616 646.399 657.222 644.692C656.828 642.984 656.631 640.981 656.631 638.682V524.706ZM764.796 579.182C764.796 571.038 764.139 563.617 762.826 556.919C761.512 550.22 759.444 544.506 756.62 539.778C753.796 535.049 750.184 531.371 745.783 528.745C741.449 526.118 736.228 524.771 730.12 524.706V638.682C736.228 638.617 741.482 637.041 745.882 633.954C750.282 630.802 753.861 626.533 756.62 621.148C759.444 615.762 761.512 609.49 762.826 602.332C764.139 595.108 764.796 587.391 764.796 579.182Z" fill="#7EB143"/>
<path d="M207.63 516.05C207.63 517.561 207.433 519.17 207.039 520.877C206.711 522.585 205.988 524.194 204.872 525.704C203.821 527.149 202.311 528.364 200.34 529.349C198.37 530.334 195.809 530.827 192.657 530.827H149.312C146.225 530.827 143.697 530.531 141.726 529.94C139.822 529.349 138.311 528.495 137.195 527.379C136.079 526.262 135.323 524.85 134.929 523.143C134.535 521.435 134.338 519.432 134.338 517.134V406.506C134.338 402.763 134.765 399.775 135.619 397.542C136.473 395.243 137.688 393.503 139.264 392.321C140.84 391.073 142.712 390.285 144.879 389.956C147.112 389.562 149.574 389.365 152.267 389.365H243.784C246.936 389.365 248.512 391.007 248.512 394.291V403.354C248.512 404.667 248.118 405.521 247.33 405.915C246.542 406.309 245.59 406.506 244.473 406.506C243.816 406.506 242.798 406.408 241.419 406.211C240.04 406.014 238.431 405.784 236.592 405.521C234.753 405.193 232.75 404.831 230.583 404.437C228.482 403.978 226.347 403.551 224.18 403.157C219.123 402.172 213.606 401.022 207.63 399.709V424.731H244.276C245.655 424.731 246.345 425.42 246.345 426.799V436.65C246.345 438.095 245.655 438.818 244.276 438.818H207.63V516.05Z" fill="#543A14"/>
<path d="M198.764 506.208C198.764 507.718 198.567 509.327 198.173 511.035C197.845 512.742 197.122 514.351 196.006 515.862C194.955 517.307 193.444 518.522 191.474 519.507C189.504 520.492 186.943 520.984 183.79 520.984H140.446C137.359 520.984 134.83 520.689 132.86 520.098C130.956 519.507 129.445 518.653 128.329 517.536C127.212 516.42 126.457 515.008 126.063 513.301C125.669 511.593 125.472 509.59 125.472 507.291V396.664C125.472 392.92 125.899 389.932 126.753 387.699C127.606 385.401 128.821 383.66 130.397 382.478C131.974 381.23 133.845 380.442 136.013 380.114C138.246 379.72 140.708 379.523 143.401 379.523H234.917C238.07 379.523 239.646 381.165 239.646 384.448V393.511C239.646 394.825 239.252 395.679 238.464 396.073C237.676 396.467 236.723 396.664 235.607 396.664C234.95 396.664 233.932 396.565 232.553 396.368C231.174 396.171 229.565 395.941 227.726 395.679C225.887 395.35 223.884 394.989 221.717 394.595C219.615 394.135 217.481 393.708 215.314 393.314C210.257 392.329 204.74 391.18 198.764 389.867V414.888H235.41C236.789 414.888 237.479 415.578 237.479 416.957V426.808C237.479 428.253 236.789 428.975 235.41 428.975H198.764V506.208Z" fill="#7EB143"/>
<path d="M456.362 523.842C451.108 523.842 445.822 523.382 440.502 522.463C435.248 521.543 430.191 519.967 425.331 517.734C420.472 515.501 415.94 512.546 411.737 508.868C407.534 505.125 403.856 500.495 400.704 494.978C397.617 489.396 395.187 482.829 393.414 475.276C391.641 467.658 390.754 458.825 390.754 448.777C390.754 438.794 391.641 429.994 393.414 422.376C395.187 414.758 397.617 408.19 400.704 402.674C403.856 397.091 407.534 392.461 411.737 388.784C415.94 385.106 420.472 382.183 425.331 380.016C430.191 377.783 435.248 376.207 440.502 375.288C445.822 374.368 451.108 373.909 456.362 373.909C461.616 373.909 466.903 374.368 472.223 375.288C477.542 376.207 482.632 377.783 487.492 380.016C492.352 382.183 496.883 385.106 501.086 388.784C505.289 392.461 508.934 397.091 512.021 402.674C515.108 408.19 517.538 414.758 519.311 422.376C521.084 429.994 521.97 438.794 521.97 448.777C521.97 458.759 521.084 467.559 519.311 475.178C517.538 482.796 515.108 489.396 512.021 494.978C508.934 500.495 505.289 505.125 501.086 508.868C496.883 512.546 492.352 515.501 487.492 517.734C482.632 519.967 477.542 521.543 472.223 522.463C466.903 523.382 461.616 523.842 456.362 523.842ZM465.228 448.777C465.228 456.986 465.819 463.849 467.001 469.365C468.249 474.882 469.891 479.315 471.927 482.664C473.963 486.014 476.229 488.411 478.724 489.856C481.286 491.235 483.913 491.924 486.605 491.924C489.298 491.924 491.925 491.235 494.486 489.856C497.047 488.411 499.313 486.014 501.283 482.664C503.319 479.315 504.928 474.882 506.11 469.365C507.358 463.849 507.982 456.986 507.982 448.777C507.982 440.568 507.358 433.705 506.11 428.188C504.928 422.671 503.319 418.238 501.283 414.889C499.313 411.54 497.047 409.175 494.486 407.796C491.925 406.351 489.298 405.629 486.605 405.629C483.913 405.629 481.286 406.351 478.724 407.796C476.229 409.175 473.963 411.54 471.927 414.889C469.891 418.238 468.249 422.671 467.001 428.188C465.819 433.705 465.228 440.568 465.228 448.777Z" fill="#543A14"/>
<path d="M319.725 523.842C314.471 523.842 309.184 523.382 303.864 522.463C298.611 521.543 293.554 519.967 288.694 517.734C283.834 515.501 279.302 512.546 275.099 508.868C270.896 505.125 267.218 500.495 264.066 494.978C260.979 489.396 258.549 482.829 256.776 475.276C255.003 467.658 254.116 458.825 254.116 448.777C254.116 438.794 255.003 429.994 256.776 422.376C258.549 414.758 260.979 408.19 264.066 402.674C267.218 397.091 270.896 392.461 275.099 388.784C279.302 385.106 283.834 382.183 288.694 380.016C293.554 377.783 298.611 376.207 303.864 375.288C309.184 374.368 314.471 373.909 319.725 373.909C324.979 373.909 330.265 374.368 335.585 375.288C340.904 376.207 345.994 377.783 350.854 380.016C355.714 382.183 360.245 385.106 364.449 388.784C368.652 392.461 372.297 397.091 375.383 402.674C378.47 408.19 380.9 414.758 382.673 422.376C384.446 429.994 385.333 438.794 385.333 448.777C385.333 458.759 384.446 467.559 382.673 475.178C380.9 482.796 378.47 489.396 375.383 494.978C372.297 500.495 368.652 505.125 364.449 508.868C360.245 512.546 355.714 515.501 350.854 517.734C345.994 519.967 340.904 521.543 335.585 522.463C330.265 523.382 324.979 523.842 319.725 523.842ZM328.591 448.777C328.591 456.986 329.182 463.849 330.364 469.365C331.612 474.882 333.253 479.315 335.289 482.664C337.325 486.014 339.591 488.411 342.087 489.856C344.648 491.235 347.275 491.924 349.967 491.924C352.66 491.924 355.287 491.235 357.848 489.856C360.41 488.411 362.675 486.014 364.646 482.664C366.681 479.315 368.29 474.882 369.473 469.365C370.72 463.849 371.344 456.986 371.344 448.777C371.344 440.568 370.72 433.705 369.473 428.188C368.29 422.671 366.681 418.238 364.646 414.889C362.675 411.54 360.41 409.175 357.848 407.796C355.287 406.351 352.66 405.629 349.967 405.629C347.275 405.629 344.648 406.351 342.087 407.796C339.591 409.175 337.325 411.54 335.289 414.889C333.253 418.238 331.612 422.671 330.364 428.188C329.182 433.705 328.591 440.568 328.591 448.777Z" fill="#543A14"/>
<path d="M876.709 637.196C876.709 640.94 877.3 643.698 878.483 645.471C879.73 647.244 881.832 648.131 884.787 648.131C886.298 648.131 887.874 647.803 889.516 647.146C891.223 646.489 892.537 645.865 893.456 645.274V564.988C893.456 563.871 893.686 562.821 894.146 561.836C894.671 560.85 895.788 560.358 897.495 560.358H903.8C904.391 560.358 904.982 560.391 905.573 560.456C906.164 560.522 906.657 560.719 907.051 561.047C907.51 561.31 907.872 561.77 908.134 562.427C908.463 563.018 908.627 563.871 908.627 564.988V656.603C908.627 657.719 908.463 658.606 908.134 659.263C907.872 659.854 907.51 660.313 907.051 660.642C906.657 660.905 906.164 661.069 905.573 661.134C904.982 661.2 904.391 661.233 903.8 661.233H897.495C895.788 661.233 894.671 660.74 894.146 659.755C893.686 658.77 893.456 657.194 893.456 655.027C892.011 655.552 889.975 656.275 887.349 657.194C884.787 658.113 881.536 659.033 877.596 659.952C873.656 660.806 868.993 661.561 863.607 662.218C858.288 662.875 852.18 663.203 845.284 663.203C838.192 663.203 832.051 662.612 826.863 661.43C821.74 660.248 817.472 658.343 814.057 655.716C810.707 653.024 808.212 649.543 806.57 645.274C804.928 641.005 804.107 635.751 804.107 629.512V574.051C804.107 571.818 804.304 569.848 804.698 568.14C805.092 566.367 805.847 564.922 806.964 563.806C808.08 562.689 809.624 561.836 811.594 561.245C813.564 560.653 816.125 560.358 819.278 560.358H862.425C866.234 560.358 869.124 560.916 871.094 562.033C873.064 563.149 874.476 564.528 875.33 566.17C876.184 567.812 876.611 569.585 876.611 571.49C876.677 573.394 876.709 575.135 876.709 576.711V637.196Z" fill="#543A14"/>
<path d="M867.843 628.339C867.843 632.082 868.434 634.841 869.616 636.614C870.864 638.387 872.966 639.274 875.921 639.274C877.432 639.274 879.008 638.945 880.65 638.288C882.357 637.632 883.671 637.008 884.59 636.417V556.13C884.59 555.014 884.82 553.963 885.28 552.978C885.805 551.993 886.921 551.5 888.629 551.5H894.934C895.525 551.5 896.116 551.533 896.707 551.599C897.298 551.665 897.79 551.862 898.184 552.19C898.644 552.453 899.005 552.912 899.268 553.569C899.596 554.16 899.761 555.014 899.761 556.13V647.745C899.761 648.862 899.596 649.749 899.268 650.405C899.005 650.996 898.644 651.456 898.184 651.784C897.79 652.047 897.298 652.211 896.707 652.277C896.116 652.343 895.525 652.375 894.934 652.375H888.629C886.921 652.375 885.805 651.883 885.28 650.898C884.82 649.913 884.59 648.337 884.59 646.169C883.145 646.695 881.109 647.417 878.482 648.337C875.921 649.256 872.67 650.175 868.73 651.095C864.789 651.949 860.126 652.704 854.741 653.361C849.422 654.017 843.314 654.346 836.418 654.346C829.325 654.346 823.185 653.755 817.997 652.573C812.874 651.39 808.605 649.486 805.19 646.859C801.841 644.166 799.345 640.686 797.704 636.417C796.062 632.148 795.241 626.894 795.241 620.655V565.193C795.241 562.961 795.438 560.99 795.832 559.283C796.226 557.51 796.981 556.065 798.098 554.948C799.214 553.832 800.757 552.978 802.728 552.387C804.698 551.796 807.259 551.5 810.411 551.5H853.559C857.368 551.5 860.258 552.059 862.228 553.175C864.198 554.292 865.61 555.671 866.464 557.313C867.318 558.954 867.745 560.728 867.745 562.632C867.81 564.537 867.843 566.277 867.843 567.853V628.339Z" fill="#7EB143"/>
<path fill-rule="evenodd" clip-rule="evenodd" d="M592.879 450.986C593.703 448.948 594.609 447.223 595.599 445.81C596.613 444.336 597.836 443.296 599.267 442.689C600.699 442.081 602.424 441.871 604.441 442.057C606.459 442.244 608.908 442.918 611.787 444.079L651.201 459.978C653.961 461.091 656.071 462.256 657.533 463.473C659.079 464.655 660.126 465.948 660.674 467.354C661.222 468.76 661.331 470.303 661.001 471.982C660.672 473.662 660.071 475.58 659.199 477.738L593.268 640.883C592.445 642.92 591.568 644.658 590.639 646.095C589.733 647.473 588.582 648.507 587.187 649.199C585.815 649.831 584.15 650.065 582.193 649.903C580.319 649.705 578.003 649.049 575.243 647.936L535.829 632.037C532.95 630.876 530.719 629.662 529.137 628.397C527.555 627.132 526.461 625.784 525.852 624.353C525.244 622.923 525.075 621.356 525.345 619.653C525.615 617.949 526.174 616.049 527.021 613.951L592.879 450.986ZM616.809 401.354C618.48 397.218 620.834 393.637 623.872 390.61C626.969 387.607 630.412 385.302 634.202 383.694C637.991 382.086 642.031 381.241 646.32 381.158C650.633 381.016 654.86 381.78 658.999 383.45C663.078 385.095 666.591 387.453 669.536 390.523C672.566 393.558 674.886 396.968 676.495 400.754C678.105 404.54 678.951 408.576 679.033 412.861C679.175 417.171 678.411 421.393 676.74 425.529C675.092 429.604 672.72 433.143 669.623 436.146C666.61 439.113 663.209 441.401 659.419 443.009C655.63 444.617 651.578 445.492 647.265 445.634C643.036 445.741 638.881 444.971 634.802 443.325C630.663 441.656 627.078 439.304 624.048 436.269C621.043 433.175 618.735 429.734 617.126 425.948C615.516 422.162 614.628 418.145 614.462 413.895C614.379 409.61 615.162 405.429 616.809 401.354ZM636.984 472.582C638.285 469.408 641.913 467.889 645.087 469.188C648.261 470.487 649.78 474.113 648.478 477.286L583.357 636.102C582.056 639.275 578.428 640.794 575.254 639.495C572.08 638.196 570.562 634.57 571.863 631.397L636.984 472.582ZM656.159 436.429C659.718 438.38 665.894 433.967 669.955 426.572C674.016 419.177 674.424 411.601 670.865 409.651C667.307 407.7 661.13 412.113 657.069 419.508C653.008 426.903 652.601 434.478 656.159 436.429Z" fill="#543A14"/>
</svg>
