<?xml version="1.0" encoding="UTF-8"?>
<svg version="1.1" xmlns="http://www.w3.org/2000/svg" width="204" height="192">
<path d="M0 0 C67.32 0 134.64 0 204 0 C204 63.36 204 126.72 204 192 C136.68 192 69.36 192 0 192 C0 128.64 0 65.28 0 0 Z " fill="#FDFDFD" transform="translate(0,0)"/>
<path d="M0 0 C1.65 0 3.3 0 5 0 C5.66 1.32 6.32 2.64 7 4 C10.48670834 2.8905928 13.77484237 1.73662334 17 0 C17.4125 0.515625 17.825 1.03125 18.25 1.5625 C19.87499557 3.2422832 19.87499557 3.2422832 21.9375 2.8125 C24.03204478 1.9873763 26.01591042 1.06290513 28 0 C28.5775 0.515625 29.155 1.03125 29.75 1.5625 C31.8563365 3.23053312 31.8563365 3.23053312 34.125 2.8125 C36.19171429 2.05339164 36.19171429 2.05339164 38 0 C38.99 0 39.98 0 41 0 C41.474375 0.515625 41.94875 1.03125 42.4375 1.5625 C43.2109375 2.2740625 43.2109375 2.2740625 44 3 C46.97332891 2.71225849 49.38809637 1.39923409 52 0 C52.556875 0.53625 53.11375 1.0725 53.6875 1.625 C54.450625 2.07875 55.21375 2.5325 56 3 C58.54295238 2.23290201 58.54295238 2.23290201 61 1 C65 1 65 1 67.5 2.1875 C68.325 2.455625 69.15 2.72375 70 3 C72.32511472 1.73647948 72.32511472 1.73647948 74 0 C74.5775 0.309375 75.155 0.61875 75.75 0.9375 C78.76367213 2.37297564 78.76367213 2.37297564 82 3 C84.24755753 1.6483633 84.24755753 1.6483633 86 0 C86.5775 0.309375 87.155 0.61875 87.75 0.9375 C90.76367213 2.37297564 90.76367213 2.37297564 94 3 C96.24755753 1.6483633 96.24755753 1.6483633 98 0 C98.5775 0.309375 99.155 0.61875 99.75 0.9375 C102.76367213 2.37297564 102.76367213 2.37297564 106 3 C108.24755753 1.6483633 108.24755753 1.6483633 110 0 C110.5775 0.309375 111.155 0.61875 111.75 0.9375 C114.7646204 2.36547957 114.7646204 2.36547957 118 3 C118.495 2.505 118.99 2.01 119.5 1.5 C119.995 1.005 120.49 0.51 121 0 C123.97397616 0.27036147 124.85446026 0.85446026 127 3 C129.93453261 2.63318342 130.86437246 2.13562754 133 0 C136.125 -0.125 136.125 -0.125 139 0 C138.45276317 3.37462715 137.9451 5.08235 136 8 C136.31986702 10.49496276 136.91425559 12.73497181 137.6875 15.125 C138 17 138 17 136 20 C136.32196657 22.51133923 136.92939503 24.77534783 137.6875 27.1875 C137.790625 27.785625 137.89375 28.38375 138 29 C137.34 29.66 136.68 30.32 136 31 C135.66666667 33.5 135.66666667 33.5 136 36 C136.66 36.66 137.32 37.32 138 38 C137.6875 39.75 137.6875 39.75 137 42 C136.26656572 45.06556598 136.26656572 45.06556598 136 48 C136.66 48.66 137.32 49.32 138 50 C137.46428571 53.53571429 137.46428571 53.53571429 136 55 C135.7499227 57.45809998 135.7499227 57.45809998 136 60 C136.66 60.66 137.32 61.32 138 62 C137.625 64.125 137.625 64.125 137 66 C136.34 66 135.68 66 135 66 C135.309375 67.0725 135.61875 68.145 135.9375 69.25 C136.66812096 71.82866222 137.37482904 74.39512102 138 77 C137.01 77.495 137.01 77.495 136 78 C135.79913557 81.71599191 135.8480563 82.77208445 138 86 C138 86.99 138 87.98 138 89 C137.01 89.66 136.02 90.32 135 91 C135.61277612 93.96175123 136.25372522 95.38058783 138 98 C138 98.99 138 99.98 138 101 C137.01 101.66 136.02 102.32 135 103 C135.57344937 105.86724686 135.8614515 106.8614515 138 109 C137.61121812 112.01305957 136.73543126 113.39685311 135 116 C135.15688424 118.12816413 135.15688424 118.12816413 136 120 C136.66 120.33 137.32 120.66 138 121 C137.7834375 121.804375 137.7834375 121.804375 137.5625 122.625 C136.89894625 125.42667138 136.31146805 128.13449393 136 131 C136.66 131.66 137.32 132.32 138 133 C138.125 136.125 138.125 136.125 138 139 C136.35 139 134.7 139 133 139 C132.67 138.01 132.34 137.02 132 136 C128.95613276 135.91773332 126.92824652 136.02391783 124 137 C124 137.66 124 138.32 124 139 C121.13275314 138.42655063 120.1385485 138.1385485 118 136 C116.01508358 136.26676204 116.01508358 136.26676204 114 137 C113.01 137.33 112.02 137.66 111 138 C111 138.66 111 139.32 111 140 C110.34 140 109.68 140 109 140 C108.67 139.01 108.34 138.02 108 137 C104.61608307 135.93648325 103.4195366 135.78557018 100.1875 137.4375 C99.465625 137.953125 98.74375 138.46875 98 139 C97.4225 138.484375 96.845 137.96875 96.25 137.4375 C94.16092695 135.77821334 94.16092695 135.77821334 92 136.1875 C89.93651179 137.02579209 87.96321426 137.94827807 86 139 C85.443125 138.505 84.88625 138.01 84.3125 137.5 C81.61837017 135.75245633 80.14624993 135.73781251 77 136 C76.67 136.99 76.34 137.98 76 139 C75.01 139 74.02 139 73 139 C72.34 138.01 71.68 137.02 71 136 C68.52733235 136.34444881 68.52733235 136.34444881 66 137 C65.67 137.66 65.34 138.32 65 139 C63.68 139 62.36 139 61 139 C60.67 138.01 60.34 137.02 60 136 C57.58380177 135.74969023 57.58380177 135.74969023 55 136 C54.34 136.99 53.68 137.98 53 139 C52.01 139 51.02 139 50 139 C49.319375 138.2265625 49.319375 138.2265625 48.625 137.4375 C48.08875 136.963125 47.5525 136.48875 47 136 C44.3727086 136.07533247 44.3727086 136.07533247 42 137 C41.67 137.66 41.34 138.32 41 139 C40.01 139 39.02 139 38 139 C37.319375 138.2265625 37.319375 138.2265625 36.625 137.4375 C36.08875 136.963125 35.5525 136.48875 35 136 C32.3727086 136.07533247 32.3727086 136.07533247 30 137 C29.67 137.66 29.34 138.32 29 139 C28.01 139 27.02 139 26 139 C25.319375 138.2575 25.319375 138.2575 24.625 137.5 C23.03775477 135.72110101 23.03775477 135.72110101 20.3125 135.8125 C19.549375 135.874375 18.78625 135.93625 18 136 C17.67 136.99 17.34 137.98 17 139 C16.01 139 15.02 139 14 139 C13.34 138.01 12.68 137.02 12 136 C9.5 135.5 9.5 135.5 7 136 C6.34 136.99 5.68 137.98 5 139 C2.375 139.1875 2.375 139.1875 0 139 C-0.1875 136.125 -0.1875 136.125 0 133 C1.485 132.01 1.485 132.01 3 131 C3.72965366 128.43717258 3.72965366 128.43717258 4 126 C2.68 125.34 1.36 124.68 0 124 C0 123.01 0 122.02 0 121 C1.485 120.01 1.485 120.01 3 119 C3.72965366 116.43717258 3.72965366 116.43717258 4 114 C2.68 113.34 1.36 112.68 0 112 C0.144375 111.443125 0.28875 110.88625 0.4375 110.3125 C0.623125 109.549375 0.80875 108.78625 1 108 C1.226875 107.195625 1.45375 106.39125 1.6875 105.5625 C2.21856092 102.93030786 2.21856092 102.93030786 0.9375 100.375 C0.628125 99.59125 0.31875 98.8075 0 98 C0.66 97.01 1.32 96.02 2 95 C2.66 95 3.32 95 4 95 C3.29875 93.9275 2.5975 92.855 1.875 91.75 C0.76171875 89.80859375 0.76171875 89.80859375 0 88 C0.6875 85.8125 0.6875 85.8125 2 84 C2.9049261 82.0480428 2.9049261 82.0480428 3 80 C1.6483633 77.75244247 1.6483633 77.75244247 0 76 C0.309375 75.4225 0.61875 74.845 0.9375 74.25 C2.37297564 71.23632787 2.37297564 71.23632787 3 68 C1.6483633 65.75244247 1.6483633 65.75244247 0 64 C0.309375 63.4225 0.61875 62.845 0.9375 62.25 C2.36547957 59.2353796 2.36547957 59.2353796 3 56 C1.64555699 54.22809091 1.64555699 54.22809091 0 53 C0.309375 52.2575 0.61875 51.515 0.9375 50.75 C2.29240141 47.44973417 2.29240141 47.44973417 3 44 C1.64555699 42.22809091 1.64555699 42.22809091 0 41 C0.33 40.278125 0.66 39.55625 1 38.8125 C2.3491808 35.01792899 2.61237356 32.41611387 1 28.6875 C0.67 28.130625 0.34 27.57375 0 27 C0.99 25.515 0.99 25.515 2 24 C2.66 24 3.32 24 4 24 C3.505 23.0925 3.01 22.185 2.5 21.25 C1 18 1 18 1 14 C1.66 13.34 2.32 12.68 3 12 C2.67028521 8.70285207 2.3773161 7.3773161 0 5 C-0.125 2.375 -0.125 2.375 0 0 Z " fill="#F3F3F3" transform="translate(33,27)"/>
<path d="M0 0 C1.65 0 3.3 0 5 0 C5.66 1.32 6.32 2.64 7 4 C10.48670834 2.8905928 13.77484237 1.73662334 17 0 C17.4125 0.515625 17.825 1.03125 18.25 1.5625 C19.87499557 3.2422832 19.87499557 3.2422832 21.9375 2.8125 C24.03204478 1.9873763 26.01591042 1.06290513 28 0 C28.5775 0.515625 29.155 1.03125 29.75 1.5625 C31.8563365 3.23053312 31.8563365 3.23053312 34.125 2.8125 C36.19171429 2.05339164 36.19171429 2.05339164 38 0 C38.99 0 39.98 0 41 0 C41.474375 0.515625 41.94875 1.03125 42.4375 1.5625 C43.2109375 2.2740625 43.2109375 2.2740625 44 3 C46.97332891 2.71225849 49.38809637 1.39923409 52 0 C52.556875 0.53625 53.11375 1.0725 53.6875 1.625 C54.450625 2.07875 55.21375 2.5325 56 3 C58.54295238 2.23290201 58.54295238 2.23290201 61 1 C65 1 65 1 67.5 2.1875 C68.325 2.455625 69.15 2.72375 70 3 C72.32511472 1.73647948 72.32511472 1.73647948 74 0 C74.5775 0.309375 75.155 0.61875 75.75 0.9375 C78.76367213 2.37297564 78.76367213 2.37297564 82 3 C84.24755753 1.6483633 84.24755753 1.6483633 86 0 C86.5775 0.309375 87.155 0.61875 87.75 0.9375 C90.76367213 2.37297564 90.76367213 2.37297564 94 3 C96.24755753 1.6483633 96.24755753 1.6483633 98 0 C98.5775 0.309375 99.155 0.61875 99.75 0.9375 C102.76367213 2.37297564 102.76367213 2.37297564 106 3 C108.24755753 1.6483633 108.24755753 1.6483633 110 0 C110.5775 0.309375 111.155 0.61875 111.75 0.9375 C114.7646204 2.36547957 114.7646204 2.36547957 118 3 C118.495 2.505 118.99 2.01 119.5 1.5 C119.995 1.005 120.49 0.51 121 0 C123.97397616 0.27036147 124.85446026 0.85446026 127 3 C129.93453261 2.63318342 130.86437246 2.13562754 133 0 C136.125 -0.125 136.125 -0.125 139 0 C138.45276317 3.37462715 137.9451 5.08235 136 8 C136.31986702 10.49496276 136.91425559 12.73497181 137.6875 15.125 C138 17 138 17 136 20 C136.32196657 22.51133923 136.92939503 24.77534783 137.6875 27.1875 C137.790625 27.785625 137.89375 28.38375 138 29 C137.34 29.66 136.68 30.32 136 31 C135.66666667 33.5 135.66666667 33.5 136 36 C136.66 36.66 137.32 37.32 138 38 C137.6875 39.75 137.6875 39.75 137 42 C136.26656572 45.06556598 136.26656572 45.06556598 136 48 C136.66 48.66 137.32 49.32 138 50 C137.46428571 53.53571429 137.46428571 53.53571429 136 55 C135.7499227 57.45809998 135.7499227 57.45809998 136 60 C136.66 60.66 137.32 61.32 138 62 C137.625 64.125 137.625 64.125 137 66 C136.34 66 135.68 66 135 66 C135.309375 67.0725 135.61875 68.145 135.9375 69.25 C136.66812096 71.82866222 137.37482904 74.39512102 138 77 C137.01 77.495 137.01 77.495 136 78 C135.79913557 81.71599191 135.8480563 82.77208445 138 86 C138 86.99 138 87.98 138 89 C137.01 89.66 136.02 90.32 135 91 C135.61277612 93.96175123 136.25372522 95.38058783 138 98 C138 98.99 138 99.98 138 101 C137.01 101.66 136.02 102.32 135 103 C135.57344937 105.86724686 135.8614515 106.8614515 138 109 C137.61121812 112.01305957 136.73543126 113.39685311 135 116 C135.15688424 118.12816413 135.15688424 118.12816413 136 120 C136.66 120.33 137.32 120.66 138 121 C137.7834375 121.804375 137.7834375 121.804375 137.5625 122.625 C136.89894625 125.42667138 136.31146805 128.13449393 136 131 C136.66 131.66 137.32 132.32 138 133 C138.125 136.125 138.125 136.125 138 139 C136.35 139 134.7 139 133 139 C132.67 138.01 132.34 137.02 132 136 C128.95613276 135.91773332 126.92824652 136.02391783 124 137 C124 137.66 124 138.32 124 139 C121.13275314 138.42655063 120.1385485 138.1385485 118 136 C116.01508358 136.26676204 116.01508358 136.26676204 114 137 C113.01 137.33 112.02 137.66 111 138 C111 138.66 111 139.32 111 140 C110.34 140 109.68 140 109 140 C108.67 139.01 108.34 138.02 108 137 C104.61608307 135.93648325 103.4195366 135.78557018 100.1875 137.4375 C99.465625 137.953125 98.74375 138.46875 98 139 C97.4225 138.484375 96.845 137.96875 96.25 137.4375 C94.16092695 135.77821334 94.16092695 135.77821334 92 136.1875 C89.93651179 137.02579209 87.96321426 137.94827807 86 139 C85.443125 138.505 84.88625 138.01 84.3125 137.5 C81.61837017 135.75245633 80.14624993 135.73781251 77 136 C76.67 136.99 76.34 137.98 76 139 C75.01 139 74.02 139 73 139 C72.34 138.01 71.68 137.02 71 136 C68.52733235 136.34444881 68.52733235 136.34444881 66 137 C65.67 137.66 65.34 138.32 65 139 C63.68 139 62.36 139 61 139 C60.67 138.01 60.34 137.02 60 136 C57.58380177 135.74969023 57.58380177 135.74969023 55 136 C54.34 136.99 53.68 137.98 53 139 C52.01 139 51.02 139 50 139 C49.319375 138.2265625 49.319375 138.2265625 48.625 137.4375 C48.08875 136.963125 47.5525 136.48875 47 136 C44.3727086 136.07533247 44.3727086 136.07533247 42 137 C41.67 137.66 41.34 138.32 41 139 C40.01 139 39.02 139 38 139 C37.319375 138.2265625 37.319375 138.2265625 36.625 137.4375 C36.08875 136.963125 35.5525 136.48875 35 136 C32.3727086 136.07533247 32.3727086 136.07533247 30 137 C29.67 137.66 29.34 138.32 29 139 C28.01 139 27.02 139 26 139 C25.319375 138.2575 25.319375 138.2575 24.625 137.5 C23.03775477 135.72110101 23.03775477 135.72110101 20.3125 135.8125 C19.549375 135.874375 18.78625 135.93625 18 136 C17.67 136.99 17.34 137.98 17 139 C16.01 139 15.02 139 14 139 C13.34 138.01 12.68 137.02 12 136 C9.5 135.5 9.5 135.5 7 136 C6.34 136.99 5.68 137.98 5 139 C2.375 139.1875 2.375 139.1875 0 139 C-0.1875 136.125 -0.1875 136.125 0 133 C1.485 132.01 1.485 132.01 3 131 C3.72965366 128.43717258 3.72965366 128.43717258 4 126 C2.68 125.34 1.36 124.68 0 124 C0 123.01 0 122.02 0 121 C1.485 120.01 1.485 120.01 3 119 C3.72965366 116.43717258 3.72965366 116.43717258 4 114 C2.68 113.34 1.36 112.68 0 112 C0.144375 111.443125 0.28875 110.88625 0.4375 110.3125 C0.623125 109.549375 0.80875 108.78625 1 108 C1.226875 107.195625 1.45375 106.39125 1.6875 105.5625 C2.21856092 102.93030786 2.21856092 102.93030786 0.9375 100.375 C0.628125 99.59125 0.31875 98.8075 0 98 C0.66 97.01 1.32 96.02 2 95 C2.66 95 3.32 95 4 95 C3.29875 93.9275 2.5975 92.855 1.875 91.75 C0.76171875 89.80859375 0.76171875 89.80859375 0 88 C0.6875 85.8125 0.6875 85.8125 2 84 C2.9049261 82.0480428 2.9049261 82.0480428 3 80 C1.6483633 77.75244247 1.6483633 77.75244247 0 76 C0.309375 75.4225 0.61875 74.845 0.9375 74.25 C2.37297564 71.23632787 2.37297564 71.23632787 3 68 C1.6483633 65.75244247 1.6483633 65.75244247 0 64 C0.309375 63.4225 0.61875 62.845 0.9375 62.25 C2.36547957 59.2353796 2.36547957 59.2353796 3 56 C1.64555699 54.22809091 1.64555699 54.22809091 0 53 C0.309375 52.2575 0.61875 51.515 0.9375 50.75 C2.29240141 47.44973417 2.29240141 47.44973417 3 44 C1.64555699 42.22809091 1.64555699 42.22809091 0 41 C0.33 40.278125 0.66 39.55625 1 38.8125 C2.3491808 35.01792899 2.61237356 32.41611387 1 28.6875 C0.67 28.130625 0.34 27.57375 0 27 C0.99 25.515 0.99 25.515 2 24 C2.66 24 3.32 24 4 24 C3.505 23.0925 3.01 22.185 2.5 21.25 C1 18 1 18 1 14 C1.66 13.34 2.32 12.68 3 12 C2.67028521 8.70285207 2.3773161 7.3773161 0 5 C-0.125 2.375 -0.125 2.375 0 0 Z M8 7 C8 47.92 8 88.84 8 131 C48.59 131 89.18 131 131 131 C131 90.08 131 49.16 131 7 C90.41 7 49.82 7 8 7 Z " fill="#1A1A1A" transform="translate(33,27)"/>
<path d="M0 0 C9.24 0 18.48 0 28 0 C28 0.66 28 1.32 28 2 C28.721875 2.061875 29.44375 2.12375 30.1875 2.1875 C34.17517712 3.33949561 35.6072088 4.58172685 38 8 C38.85625975 12.50050124 39.13613681 16.94711832 36.8671875 21.046875 C35.5 22.6875 35.5 22.6875 33 25 C33.825 25.598125 34.65 26.19625 35.5 26.8125 C38.20719149 29.5042659 38.44584173 31.74157499 38.5625 35.5 C38.38819867 39.10222755 38.10646416 40.81073038 36.3125 44 C31.60198987 48.07395471 28.45139451 49.37600962 22.16796875 49.29296875 C21.00289795 49.28547607 19.83782715 49.2779834 18.63745117 49.27026367 C17.16896729 49.24295166 15.7004834 49.21563965 14.1875 49.1875 C9.505625 49.125625 4.82375 49.06375 0 49 C0 32.83 0 16.66 0 0 Z " fill="#050505" transform="translate(52,45)"/>
<path d="M0 0 C0.86625 0.4640625 0.86625 0.4640625 1.75 0.9375 C4.7624662 2.38072364 4.7624662 2.38072364 8 3 C10.72981832 1.64599355 10.72981832 1.64599355 13 0 C13.5775 0.515625 14.155 1.03125 14.75 1.5625 C16.8563365 3.23053312 16.8563365 3.23053312 19.125 2.8125 C21.19171429 2.05339164 21.19171429 2.05339164 23 0 C23.99 0 24.98 0 26 0 C26.474375 0.515625 26.94875 1.03125 27.4375 1.5625 C28.2109375 2.2740625 28.2109375 2.2740625 29 3 C31.97332891 2.71225849 34.38809637 1.39923409 37 0 C37.556875 0.53625 38.11375 1.0725 38.6875 1.625 C39.450625 2.07875 40.21375 2.5325 41 3 C43.54295238 2.23290201 43.54295238 2.23290201 46 1 C50 1 50 1 52.5 2.1875 C53.325 2.455625 54.15 2.72375 55 3 C57.32511472 1.73647948 57.32511472 1.73647948 59 0 C59.5775 0.309375 60.155 0.61875 60.75 0.9375 C63.76367213 2.37297564 63.76367213 2.37297564 67 3 C69.24755753 1.6483633 69.24755753 1.6483633 71 0 C71.5775 0.309375 72.155 0.61875 72.75 0.9375 C75.76367213 2.37297564 75.76367213 2.37297564 79 3 C81.24755753 1.6483633 81.24755753 1.6483633 83 0 C83.5775 0.309375 84.155 0.61875 84.75 0.9375 C87.76367213 2.37297564 87.76367213 2.37297564 91 3 C93.24755753 1.6483633 93.24755753 1.6483633 95 0 C95.5775 0.309375 96.155 0.61875 96.75 0.9375 C99.7646204 2.36547957 99.7646204 2.36547957 103 3 C103.495 2.505 103.99 2.01 104.5 1.5 C104.995 1.005 105.49 0.51 106 0 C108.97397616 0.27036147 109.85446026 0.85446026 112 3 C114.93453261 2.63318342 115.86437246 2.13562754 118 0 C121.125 -0.125 121.125 -0.125 124 0 C123.45276317 3.37462715 122.9451 5.08235 121 8 C121.31986702 10.49496276 121.91425559 12.73497181 122.6875 15.125 C123 17 123 17 121 20 C121.32196657 22.51133923 121.92939503 24.77534783 122.6875 27.1875 C122.790625 27.785625 122.89375 28.38375 123 29 C122.34 29.66 121.68 30.32 121 31 C120.66666667 33.5 120.66666667 33.5 121 36 C121.66 36.66 122.32 37.32 123 38 C122.6875 39.75 122.6875 39.75 122 42 C121.26656572 45.06556598 121.26656572 45.06556598 121 48 C121.66 48.66 122.32 49.32 123 50 C122.46428571 53.53571429 122.46428571 53.53571429 121 55 C120.7499227 57.45809998 120.7499227 57.45809998 121 60 C121.66 60.66 122.32 61.32 123 62 C122.625 64.125 122.625 64.125 122 66 C121.34 66 120.68 66 120 66 C120.4640625 67.60875 120.4640625 67.60875 120.9375 69.25 C121.66812096 71.82866222 122.37482904 74.39512102 123 77 C122.01 77.495 122.01 77.495 121 78 C120.79913557 81.71599191 120.8480563 82.77208445 123 86 C123 86.99 123 87.98 123 89 C120.5 91.1875 120.5 91.1875 118 93 C116.2234257 91.2234257 116.88012749 88.85112329 116.87557125 86.48589993 C116.88096841 85.29683088 116.88096841 85.29683088 116.88647461 84.08374023 C116.88635407 83.24108392 116.88623354 82.3984276 116.88610935 81.53023624 C116.88685858 78.78966233 116.89448723 76.04915557 116.90234375 73.30859375 C116.90381314 71.62178582 116.90483387 69.93497743 116.90539551 68.24816895 C116.91064874 61.97793903 116.92460982 55.70771886 116.9375 49.4375 C116.958125 35.433125 116.97875 21.42875 117 7 C76.08 7 35.16 7 -7 7 C-4.66666667 4.66666667 -2.33333333 2.33333333 0 0 Z " fill="#111111" transform="translate(48,27)"/>
<path d="M0 0 C2.97 0 5.94 0 9 0 C9 7.26 9 14.52 9 22 C14.47825081 20.67082039 14.47825081 20.67082039 16 19 C16.08651611 17.58429877 16.10704904 16.164405 16.09765625 14.74609375 C16.09282227 13.46508789 16.09282227 13.46508789 16.08789062 12.15820312 C16.07951172 11.26037109 16.07113281 10.36253906 16.0625 9.4375 C16.05798828 8.53580078 16.05347656 7.63410156 16.04882812 6.70507812 C16.03700225 4.46998686 16.0205222 2.23502563 16 0 C17.45792884 -0.05399736 18.91642712 -0.09279177 20.375 -0.125 C21.18710938 -0.14820312 21.99921875 -0.17140625 22.8359375 -0.1953125 C25 0 25 0 27 2 C27.27882453 4.86162022 27.41621662 7.57370361 27.4375 10.4375 C27.48680664 11.60249023 27.48680664 11.60249023 27.53710938 12.79101562 C27.55859375 15.05859375 27.55859375 15.05859375 27 19 C24.47265625 21.03515625 24.47265625 21.03515625 22 22 C22.81855469 22.43828125 23.63710937 22.8765625 24.48046875 23.328125 C27.82791602 26.87797605 27.52095016 29.08957825 27.43945312 33.81640625 C27.39755859 34.78449219 27.35566406 35.75257813 27.3125 36.75 C27.28994141 37.73355469 27.26738281 38.71710938 27.24414062 39.73046875 C27.18530981 42.15429813 27.09563118 44.57734348 27 47 C23.7 47 20.4 47 17 47 C16.67 39.74 16.34 32.48 16 25 C13.69 24.34 11.38 23.68 9 23 C9 30.92 9 38.84 9 47 C6.03 47 3.06 47 0 47 C0 31.49 0 15.98 0 0 Z " fill="#020202" transform="translate(56,99)"/>
<path d="M0 0 C11.88 0 23.76 0 36 0 C36 4.29 36 8.58 36 13 C32.04 13 28.08 13 24 13 C24 20.26 24 27.52 24 35 C19.71 35 15.42 35 11 35 C11 27.74 11 20.48 11 13 C7.37 13 3.74 13 0 13 C0 8.71 0 4.42 0 0 Z " fill="#070707" transform="translate(117,97)"/>
<path d="M0 0 C11.22 0 22.44 0 34 0 C34 3.96 34 7.92 34 12 C31.36 12 28.72 12 26 12 C26 10.02 26 8.04 26 6 C21.38 6 16.76 6 12 6 C12 8.64 12 11.28 12 14 C14.31 14 16.62 14 19 14 C19 15.32 19 16.64 19 18 C16.69 18 14.38 18 12 18 C12 20.97 12 23.94 12 27 C18.435 26.505 18.435 26.505 25 26 C25.33 24.02 25.66 22.04 26 20 C28.64 20 31.28 20 34 20 C34 24.29 34 28.58 34 33 C22.78 33 11.56 33 0 33 C0 31.02 0 29.04 0 27 C0.66 27 1.32 27 2 27 C2 20.07 2 13.14 2 6 C1.34 6 0.68 6 0 6 C0 4.02 0 2.04 0 0 Z " fill="#000000" transform="translate(95,61)"/>
<path d="M0 0 C22.11 0 44.22 0 67 0 C67 3.63 67 7.26 67 11 C44.89 11 22.78 11 0 11 C0 7.37 0 3.74 0 0 Z " fill="#141414" transform="translate(86,136)"/>
<path d="M0 0 C4.62 0 9.24 0 14 0 C13.67 8.91 13.34 17.82 13 27 C14.32 27 15.64 27 17 27 C16.67 18.09 16.34 9.18 16 0 C20.29 0 24.58 0 29 0 C29 2.31 29 4.62 29 7 C28.34 7 27.68 7 27 7 C27.05220703 8.82724609 27.05220703 8.82724609 27.10546875 10.69140625 C27.13362512 12.31509028 27.16092329 13.93878935 27.1875 15.5625 C27.21263672 16.36236328 27.23777344 17.16222656 27.26367188 17.98632812 C27.33045192 23.44003211 26.65168352 27.19730048 24 32 C19.12433211 35.25044526 13.69476189 34.70649302 8 34 C4.21630991 31.38052225 2.82971392 29.4176522 2 25 C1.92181364 23.48604304 1.89210091 21.96906493 1.90234375 20.453125 C1.90556641 19.60878906 1.90878906 18.76445313 1.91210938 17.89453125 C1.92048828 17.02183594 1.92886719 16.14914063 1.9375 15.25 C1.94201172 14.36183594 1.94652344 13.47367188 1.95117188 12.55859375 C1.962926 10.37232671 1.97935751 8.18619821 2 6 C1.34 6 0.68 6 0 6 C0 4.02 0 2.04 0 0 Z " fill="#0B0B0B" transform="translate(86,98)"/>
<path d="M0 0 C6.27 0 12.54 0 19 0 C17.68 0.33 16.36 0.66 15 1 C15 16.84 15 32.68 15 49 C11.37 49 7.74 49 4 49 C4 33.16 4 17.32 4 1 C2.68 0.67 1.36 0.34 0 0 Z " fill="#010101" transform="translate(134,45)"/>
<path d="M0 0 C8.58 0 17.16 0 26 0 C26 0.33 26 0.66 26 1 C24.35 1.33 22.7 1.66 21 2 C21.05220703 3.89685547 21.05220703 3.89685547 21.10546875 5.83203125 C21.13360677 7.49217423 21.16090691 9.15233156 21.1875 10.8125 C21.21263672 11.64587891 21.23777344 12.47925781 21.26367188 13.33789062 C21.27333984 14.14033203 21.28300781 14.94277344 21.29296875 15.76953125 C21.3086792 16.50792236 21.32438965 17.24631348 21.34057617 18.00708008 C21 20 21 20 19.79418945 21.7644043 C18 23 18 23 13 23 C13 15.74 13 8.48 13 1 C10.03 1 7.06 1 4 1 C4 16.51 4 32.02 4 48 C6.97 48 9.94 48 13 48 C13 40.08 13 32.16 13 24 C13.33 24 13.66 24 14 24 C14 31.59 14 39.18 14 47 C15.32 47 16.64 47 18 47 C18 47.66 18 48.32 18 49 C12.06 49 6.12 49 0 49 C0 48.34 0 47.68 0 47 C0.99 47 1.98 47 3 47 C3 31.82 3 16.64 3 1 C2.01 0.67 1.02 0.34 0 0 Z " fill="#5B5B5B" transform="translate(52,98)"/>
<path d="M0 0 C0 4.29 0 8.58 0 13 C-0.99 13 -1.98 13 -3 13 C-3 10.36 -3 7.72 -3 5 C-3.66 5 -4.32 5 -5 5 C-5 7.97 -5 10.94 -5 14 C-6.32 14 -7.64 14 -9 14 C-9.33 12.68 -9.66 11.36 -10 10 C-11.32 10.33 -12.64 10.66 -14 11 C-14.33 10.34 -14.66 9.68 -15 9 C-15.33 10.65 -15.66 12.3 -16 14 C-16.99 14 -17.98 14 -19 14 C-19 9.71 -19 5.42 -19 1 C-18.01 1 -17.02 1 -16 1 C-14.96986723 2.64821244 -13.96885372 4.31503702 -13 6 C-12.34 6 -11.68 6 -11 6 C-10.3503125 4.7934375 -10.3503125 4.7934375 -9.6875 3.5625 C-8 1 -8 1 -5.5 0.1875 C-3 0 -3 0 0 0 Z " fill="#2A2A2A" transform="translate(113,45)"/>
<path d="M0 0 C2.31 0.33 4.62 0.66 7 1 C7.05379226 3.95857409 7.09357093 6.91617721 7.125 9.875 C7.14175781 10.71675781 7.15851563 11.55851562 7.17578125 12.42578125 C7.18222656 13.23144531 7.18867187 14.03710938 7.1953125 14.8671875 C7.20578613 15.61081543 7.21625977 16.35444336 7.22705078 17.12060547 C7 19 7 19 5 21 C3.35 21 1.7 21 0 21 C0 14.07 0 7.14 0 0 Z " fill="#ECECEC" transform="translate(66,99)"/>
<path d="M0 0 C1.588125 -0.061875 3.17625 -0.12375 4.8125 -0.1875 C6.15248047 -0.23970703 6.15248047 -0.23970703 7.51953125 -0.29296875 C10 0 10 0 11.83203125 1.3515625 C13 3 13 3 12.875 5.5625 C12 8 12 8 9 10 C5.97670744 10.2610788 3.04123758 10.08815181 0 10 C0 6.7 0 3.4 0 0 Z " fill="#DBDBDB" transform="translate(64,74)"/>
<path d="M0 0 C8.625 -0.25 8.625 -0.25 12 2 C11.125 7.875 11.125 7.875 10 9 C8.31391034 9.07205511 6.62499341 9.08386068 4.9375 9.0625 C4.01839844 9.05347656 3.09929687 9.04445313 2.15234375 9.03515625 C1.44207031 9.02355469 0.73179688 9.01195313 0 9 C0 6.03 0 3.06 0 0 Z " fill="#F0F0F0" transform="translate(65,56)"/>
<path d="M0 0 C0 4.29 0 8.58 0 13 C-0.99 13 -1.98 13 -3 13 C-3 10.36 -3 7.72 -3 5 C-3.66 5 -4.32 5 -5 5 C-5 7.97 -5 10.94 -5 14 C-6.32 14 -7.64 14 -9 14 C-9.33 12.02 -9.66 10.04 -10 8 C-9.34 8 -8.68 8 -8 8 C-8 9.65 -8 11.3 -8 13 C-7.34 13 -6.68 13 -6 13 C-6 9.37 -6 5.74 -6 2 C-6.66 1.67 -7.32 1.34 -8 1 C-5.23735711 0.40267181 -2.83967231 0 0 0 Z " fill="#909090" transform="translate(113,45)"/>
<path d="M0 0 C0.28875 0.598125 0.5775 1.19625 0.875 1.8125 C2.04742026 4.19327792 2.04742026 4.19327792 4 7 C4 7.99 4 8.98 4 10 C1.5 12.1875 1.5 12.1875 -1 14 C-2 13 -2 13 -2.09765625 10.27734375 C-2.08605469 9.17519531 -2.07445312 8.07304688 -2.0625 6.9375 C-2.05347656 5.83277344 -2.04445312 4.72804688 -2.03515625 3.58984375 C-2.02355469 2.73519531 -2.01195312 1.88054687 -2 1 C-1.34 0.67 -0.68 0.34 0 0 Z " fill="#111111" transform="translate(167,106)"/>
<path d="M0 0 C6.15234375 -0.09765625 6.15234375 -0.09765625 8 0 C9 1 9 1 9.0625 4.5625 C9.041875 5.696875 9.02125 6.83125 9 8 C8.34 8 7.68 8 7 8 C6.67 6.35 6.34 4.7 6 3 C5.01 2.67 4.02 2.34 3 2 C3 3.98 3 5.96 3 8 C2.01 8 1.02 8 0 8 C0 5.36 0 2.72 0 0 Z " fill="#171717" transform="translate(115,50)"/>
<path d="M0 0 C1.32 0.33 2.64 0.66 4 1 C4 2.65 4 4.3 4 6 C4.66 6 5.32 6 6 6 C6 4.35 6 2.7 6 1 C6.33 1 6.66 1 7 1 C7.04254356 2.99954746 7.04080783 5.00041636 7 7 C6 8 6 8 2.5625 8.1875 C-1 8 -1 8 -3 6 C-2.01 6 -1.02 6 0 6 C0 4.02 0 2.04 0 0 Z " fill="#D2D2D2" transform="translate(118,52)"/>
<path d="M0 0 C5.57142857 5.14285714 5.57142857 5.14285714 6 9 C4.35 10.32 2.7 11.64 1 13 C0 12 0 12 -0.09765625 9.27734375 C-0.08605469 8.17519531 -0.07445312 7.07304688 -0.0625 5.9375 C-0.05347656 4.83277344 -0.04445312 3.72804688 -0.03515625 2.58984375 C-0.02355469 1.73519531 -0.01195312 0.88054687 0 0 Z " fill="#040404" transform="translate(165,95)"/>
<path d="M0 0 C0.99 0.495 0.99 0.495 2 1 C2 1.66 2 2.32 2 3 C3.65 2.34 5.3 1.68 7 1 C7.33 2.98 7.66 4.96 8 7 C5.36 7 2.72 7 0 7 C0 4.69 0 2.38 0 0 Z " fill="#EEEEEE" transform="translate(97,53)"/>
<path d="M0 0 C1.32 0 2.64 0 4 0 C4 2.97 4 5.94 4 9 C2.68 9 1.36 9 0 9 C0 6.03 0 3.06 0 0 Z " fill="#565656" transform="translate(126,50)"/>
<path d="M0 0 C0.99 0 1.98 0 3 0 C3 3.63 3 7.26 3 11 C2.34 11 1.68 11 1 11 C1 9.02 1 7.04 1 5 C0.01 4.67 -0.98 4.34 -2 4 C-1.34 2.68 -0.68 1.36 0 0 Z " fill="#060606" transform="translate(104,47)"/>
<path d="M0 0 C0.99 0 1.98 0 3 0 C3 2.64 3 5.28 3 8 C2.01 8 1.02 8 0 8 C0 5.36 0 2.72 0 0 Z " fill="#343434" transform="translate(110,50)"/>
<path d="M0 0 C0.99 0 1.98 0 3 0 C3 1.65 3 3.3 3 5 C1.35 5 -0.3 5 -2 5 C-1.34 3.35 -0.68 1.7 0 0 Z " fill="#9C9C9C" transform="translate(110,45)"/>
<path d="M0 0 C0.99 0.33 1.98 0.66 3 1 C3 3.31 3 5.62 3 8 C2.34 8 1.68 8 1 8 C0.814375 6.824375 0.814375 6.824375 0.625 5.625 C0.20882007 2.85942178 0.20882007 2.85942178 -2 1 C-1.34 0.67 -0.68 0.34 0 0 Z " fill="#070707" transform="translate(121,50)"/>
<path d="M0 0 C2.97 0.495 2.97 0.495 6 1 C5.01 1.495 5.01 1.495 4 2 C3.67 2.99 3.34 3.98 3 5 C2.01 5 1.02 5 0 5 C0 3.35 0 1.7 0 0 Z " fill="#1D1D1D" transform="translate(99,51)"/>
</svg>
